<?xml version="1.0" encoding="utf-8"?>
<!-- Generator: Adobe Illustrator 18.1.1, SVG Export Plug-In . SVG Version: 6.00 Build 0)  -->
<!DOCTYPE svg PUBLIC "-//W3C//DTD SVG 1.1//EN" "http://www.w3.org/Graphics/SVG/1.1/DTD/svg11.dtd">
<svg version="1.1" id="Layer_2" xmlns="http://www.w3.org/2000/svg" xmlns:xlink="http://www.w3.org/1999/xlink" x="0px" y="0px"
	 viewBox="0 0 336.4 73.7" enable-background="new 0 0 336.4 73.7" xml:space="preserve">
<path fill="#7E8C8C" d="M162.9,2.2h-17.3c0,0-50.3,1.7-118,30.7c0,0,65.7-15.3,112-4.3C139.6,28.5,137.2,4.9,162.9,2.2z"/>
<g>
	<path fill="#7E8C8C" d="M17.1,57.5c-1.3,0.6-3.5,1-6.4,1C4.3,58.6,0,54.7,0,48.3c0-5.4,2.4-9.7,6.1-12.1c2.5-1.8,5.5-2.6,8.9-2.6
		c2.6,0,4.6,0.6,5.3,1l-1.4,4.2c-0.7-0.4-2.3-0.8-4.4-0.8c-2.1,0-4.1,0.6-5.5,1.9c-2.1,1.7-3.3,4.4-3.3,7.8c0,3.9,2.2,6.4,6.4,6.4
		c1.7,0,3.4-0.3,4.6-0.8L17.1,57.5z"/>
	<path fill="#7E8C8C" d="M43.2,43.7c0,4.4-1.5,8.7-4.3,11.4c-2.3,2.2-5.3,3.5-9,3.5c-6.3,0-9.8-4.5-9.8-10.1c0-4.4,1.6-8.7,4.5-11.5
		c2.3-2.2,5.4-3.5,8.9-3.5C39.8,33.6,43.2,37.9,43.2,43.7z M28.6,39.7c-1.9,1.9-3,5.7-3,8.6c0,3.4,1.5,6,5.1,6c1.5,0,3-0.7,4.1-1.8
		c1.9-1.9,3-5.9,3-8.7c0-3-1.1-5.9-4.9-5.9C31.2,37.9,29.7,38.6,28.6,39.7z"/>
	<path fill="#7E8C8C" d="M54.1,33.9l-2.7,14c-0.2,0.8-0.3,1.8-0.3,2.9c0,1.9,1.2,3.5,3.5,3.5c2.7,0,4.5-1.8,5.4-6.3l2.7-14h5.2
		l-2.6,13.8c-1.4,7.3-4.6,10.9-11.2,10.9c-5,0-8.1-2.6-8.1-7.7c0-1,0.1-2.2,0.4-3.4l2.6-13.5H54.1z"/>
	<path fill="#7E8C8C" d="M72.5,34.4c1.5-0.4,4-0.6,6.3-0.6c2.2,0,4.7,0.4,6.4,1.6c1.6,1.1,2.6,2.8,2.6,5.1c0,3.1-1.4,5.4-3.3,6.8
		c-2,1.5-4.8,2.2-7.7,2.2c-0.9,0-1.6-0.1-2.1-0.1l-1.7,8.7H68L72.5,34.4z M75.5,45.3c0.5,0.1,1.1,0.2,2,0.2c3.1,0,5.2-2,5.2-4.4
		c0-2.3-1.7-3.1-3.7-3.1c-1,0-1.7,0.1-2.1,0.2L75.5,45.3z"/>
	<path fill="#7E8C8C" d="M112.3,43.7c0,4.4-1.5,8.7-4.3,11.4c-2.3,2.2-5.3,3.5-9,3.5c-6.3,0-9.8-4.5-9.8-10.1
		c0-4.4,1.6-8.7,4.5-11.5c2.3-2.2,5.4-3.5,8.9-3.5C108.9,33.6,112.3,37.9,112.3,43.7z M97.7,39.7c-1.9,1.9-3,5.7-3,8.6
		c0,3.4,1.5,6,5.1,6c1.5,0,3-0.7,4.1-1.8c1.9-1.9,3-5.9,3-8.7c0-3-1.1-5.9-4.9-5.9C100.3,37.9,98.8,38.6,97.7,39.7z"/>
	<path fill="#7E8C8C" d="M113.5,58.2l4.6-24.3h6.1l3.2,9.3c1,3.1,1.6,5.6,2.2,8.3h0.1c0.1-2.5,0.4-5.1,1.1-8.7l1.7-8.8h4.8
		l-4.6,24.3h-5.4l-3.4-9.7c-1.1-3.3-1.7-5.5-2.4-8.5l-0.1,0c-0.3,2.3-0.9,5.8-1.6,9.6l-1.6,8.5H113.5z"/>
</g>
<g>
	<path fill="#AEBBBC" d="M186.1,11.3c1.7-0.3,4-0.6,6.4-0.6c2.5,0,4.4,0.3,6,1.3c1.6,0.8,2.8,2.4,2.8,4.4c0,3.1-2.3,5-4.9,5.8v0.1
		c2.3,0.7,3.8,2.6,3.8,5.3c0,2.6-1.4,4.5-3.3,5.8c-2.1,1.4-5.1,1.9-9.1,1.9c-2.7,0-4.9-0.2-6.1-0.4L186.1,11.3z M187.4,31.2
		c0.6,0.1,1.2,0.1,2,0.1c2.8,0,5.4-1.1,5.4-3.8c0-2.4-2-3.1-4.4-3.1h-1.6L187.4,31.2z M189.5,20.6h1.7c2.8,0,4.8-1.2,4.8-3.3
		c0-1.8-1.4-2.5-3.4-2.5c-0.9,0-1.6,0.1-2,0.2L189.5,20.6z"/>
	<path fill="#AEBBBC" d="M206.4,35.2l1.9-9.9l-4.7-14.4h5.5l1.5,6.2c0.4,2,0.7,3.2,0.9,4.4h0.1c0.7-1.3,1.4-2.7,2.5-4.4l3.6-6.1h6.2
		l-10.5,14.3l-1.9,10H206.4z"/>
</g>
<path fill="#AEBBBC" d="M186.1,42.2h-6.4l0.9-4.5h18l-0.9,4.5h-6.5l-3.7,19.7h-5.2L186.1,42.2z"/>
<path fill="#AEBBBC" d="M212.7,51.6H204l-1.1,5.9h9.7l-0.8,4.4h-14.9l4.6-24.3h14.4L215,42h-9.1l-1,5.2h8.6L212.7,51.6z"/>
<path fill="#AEBBBC" d="M227.9,61.9l-1.7-4.9c-0.5-1.5-0.9-2.6-1.3-4.1h-0.1c-0.8,1.4-1.4,2.6-2.5,4.3l-2.8,4.7h-6.2l9.1-12.4
	l-4.2-11.9h5.5l1.5,4.6c0.4,1.5,0.8,2.6,1.1,4h0.1c0.9-1.7,1.5-2.8,2.3-4.1l2.8-4.6h6.2l-8.9,11.9l4.6,12.3H227.9z"/>
<path fill="#AEBBBC" d="M244.6,42.2h-6.4l0.9-4.5h18l-0.9,4.5h-6.5l-3.7,19.7h-5.2L244.6,42.2z"/>
<path fill="#7E8C8C" d="M252.9,59.2c0-2,1.4-3.7,3.5-3.7c1.8,0,3,1.3,3,3.1c0,2.1-1.5,3.6-3.6,3.6C254.1,62.2,252.9,61,252.9,59.2z"
	/>
<path fill="#7E8C8C" d="M280.5,61.2c-1.3,0.6-3.5,1-6.4,1c-6.4,0-10.7-3.9-10.7-10.3c0-5.4,2.4-9.7,6.1-12.1
	c2.5-1.8,5.5-2.6,8.9-2.6c2.6,0,4.6,0.6,5.3,1l-1.4,4.2c-0.7-0.4-2.3-0.8-4.4-0.8s-4.1,0.6-5.5,1.9c-2.1,1.7-3.3,4.4-3.3,7.8
	c0,3.9,2.2,6.4,6.4,6.4c1.7,0,3.4-0.3,4.6-0.8L280.5,61.2z"/>
<path fill="#7E8C8C" d="M306.6,47.3c0,4.4-1.5,8.7-4.3,11.4c-2.3,2.2-5.3,3.5-9,3.5c-6.3,0-9.8-4.5-9.8-10.1c0-4.4,1.6-8.7,4.5-11.5
	c2.3-2.2,5.4-3.5,8.9-3.5C303.2,37.2,306.6,41.5,306.6,47.3z M292,43.4c-1.9,1.9-3,5.7-3,8.6c0,3.4,1.5,6,5.1,6c1.5,0,3-0.7,4.1-1.8
	c1.9-1.9,3-5.9,3-8.7c0-3-1.1-5.9-4.9-5.9C294.6,41.5,293.1,42.2,292,43.4z"/>
<path fill="#7E8C8C" d="M328.1,61.9l1.5-10c0.4-2.6,0.9-6,1.6-9.5h-0.1c-1.3,3.1-2.8,6.5-4.2,9.1l-5,9.9h-4l-0.9-9.8
	c-0.2-2.7-0.4-6-0.5-9.3h-0.1c-0.7,3.2-1.4,6.8-2,9.5l-2.4,10h-4.8l6.1-24.3h6.9l0.8,9.2c0.1,2.3,0.4,5,0.4,7.7h0.1
	c0.9-2.7,2.2-5.5,3.3-7.7l4.5-9.2h7l-3.3,24.3H328.1z"/>
<g>
	<path fill="#7E8C8C" d="M150.3,73.7l1.6-8.8c-4.9-0.2-10.4-2.4-13-4.4l3.4-8c3.1,2.3,7.5,4.2,13.2,4.2c5.8,0,10.3-3.1,10.3-8
		c0-3.4-2-6-7.6-8.8c-7.2-3.7-12.4-8.2-12.4-14.9c0-8.5,6.9-15.5,17.2-16.6l1.6-8.4h7.1l-1.5,8.4c4.7,0.2,8.7,1.7,10.8,3.2l-3.4,7.8
		c-2.2-1.2-5.8-3.1-11.4-3.1c-5.7,0-9.1,3.2-9.1,7.1c0,3.3,2.3,5.4,8.9,8.7c7,3.6,11.2,8.4,11.2,14.9c0,10.6-8.2,16.7-18.1,17.9
		l-1.7,8.8H150.3z"/>
</g>
</svg>
