<?xml version="1.0" encoding="utf-8"?>
<!-- Generator: Adobe Illustrator 19.1.0, SVG Export Plug-In . SVG Version: 6.00 Build 0)  -->
<svg version="1.1" id="Layer_1_xA0_Image_1_" xmlns="http://www.w3.org/2000/svg" xmlns:xlink="http://www.w3.org/1999/xlink"
	 x="0px" y="0px" viewBox="0 0 616 223.2" style="enable-background:new 0 0 616 223.2;" xml:space="preserve">
<style type="text/css">
	.st0{fill:#7F8C8D;}
</style>
<path class="st0" d="M616,162.2c-2.1,2.9-3.7,6-7.6,7.3c-7.7,2.6-15.8-1.9-16.4-10.5c-0.2-3.6-0.2-7.1,1.8-10.6
	c3.3-6.1,12.6-7.6,17.9-3c1.6,1.4,2.9,3.1,4.3,4.7C616,154.2,616,158.2,616,162.2z M599,164.2c3.5,3.4,5.6,3.5,9.6,0.3
	c-3.5-0.2-3.1-4.1-5.4-5.8c-0.4,5.2-0.4,5.2-4.3,5.6c0.1-5-0.2-10,0.2-15.1c2.7,0,4.9-0.1,7,0c1.8,0.1,2.8,1.1,2.7,2.9
	c-0.1,1.7,0.8,3.6-0.9,5.1c-0.3,0.3-0.3,1.2-0.1,1.7c0.7,1.4,0.9,3.2,2.7,3.9c3.6-5,3.1-11-1.3-14.7c-1.9-1.6-4.1-2.4-6.5-1.7
	c-4.2,1.2-6.7,4.2-7.5,8.4C594.6,158.5,595.5,161.9,599,164.2z"/>
<path class="st0" d="M69,1.2c0,0,3.4,2.8,4.1,5.3c1.1,4.3-0.2,8.6-4,11c-2.4,1.5-8.4,0.7-10.7-1.5c-2.8-2.6-3.3-8-1.1-11.4
	c0.8-1.2,2.9-3.2,2.9-3.2s3-1.4,4.5-1.4C66.1,0,69,1.2,69,1.2z"/>
<path class="st0" d="M46.8,1.4c0,0,1.7,1.5,2.3,2.5c2.5,3.6,2,8.7-1,11.2c-3.3,2.7-8.2,2.7-11.4,0c-2.8-2.4-3.5-7.2-1.5-10.4
	c0.8-1.2,2.9-3.3,2.9-3.3s2.4-1.1,4.2-1.1C44.3,0.3,46.8,1.4,46.8,1.4z"/>
<path class="st0" d="M0,51.2c1.8-0.7,3.6-1.5,5.5-2c2.8-0.6,4.9,1,6,3.3c1.3,2.5,0.6,5.2-1,7.4c-1.1,1.6-4.3,2.2-6.7,1.3
	c-1.3-0.5-2.6-1.4-3.8-2C0,56.5,0,53.8,0,51.2z"/>
<path class="st0" d="M103,223.2c-2.1-1.8-3.6-3.9-2.9-6.8c0.4-1.7,0.9-3.8,3-4.1c2.4-0.3,4.9-0.9,6.9,1.4c2.1,2.4,2.3,4.3,0.7,7.1
	c-0.5,0.8-1.1,1.6-1.7,2.4C107,223.2,105,223.2,103,223.2z"/>
<path class="st0" d="M449.7,58.5c4.2-4.9,7.8-9.3,13.3-11.4c6.1-2.3,12.3-3,18,0.7c6.2,4,7.5,10.3,6.8,17c-0.6,5.5-1.8,11-2.8,16.5
	c-0.6,3.2-1.3,6.4-1.8,9.7c-0.1,0.8-0.1,1.7-0.2,2.5c-0.1,4.7,0.7,5.5,5.3,5.7c0.6,0,1.3,0.1,2,0.2c-0.2,2.1-0.1,4.1-0.5,6
	c-0.5,2.9-2.5,5-5.3,4.7c-3.1-0.3-6.3-0.9-9-2.2c-3.1-1.5-4.5-4.5-4.6-8.2c-0.2-6.9,1.2-13.5,2.5-20.1c1-5,1.7-10.1,1.6-15.2
	c-0.1-5.6-4.1-7.6-8.2-7c-3.1,0.5-5.9,1.7-8.4,3.9c-6.9,6-9.8,14-11.4,22.6c-1.4,7.3-2.7,14.6-4,21.8c-0.2,1-0.2,2-0.3,3.3
	c-3.7,0-7.3,0-11.1,0c-1.1-1.1-0.7-2.6-0.5-4c1.2-7,2.5-13.9,3.8-20.9c0.8-4.2,1.7-8.4,2.3-12.6c0.4-2.8,0.8-5.6,0.5-8.4
	c-0.4-5-5.8-7.3-11.2-5.1c-5.3,2.1-9.1,5.9-11.9,10.8c-3.2,5.5-4.7,11.6-5.8,17.8c-1.1,6.5-2,13-3.1,19.5c-0.4,2.5-1.4,3.2-4.1,3.3
	c-2.8,0.1-5.6,0-8.6,0c2.7-17.5,6.3-34.3,8.9-51.7c-3.2-0.2-6-0.4-9.1-0.6c0.4-1.7,0.7-3.1,0.9-4.5c0.7-5.1,0.7-5.1,5.6-5.2
	c3,0,6-0.1,9,0c5.4,0.1,7.1,2.3,5.7,7.5c-0.1,0.6-0.1,1.2-0.2,2.2c4.8-5.9,10.5-9.5,17.6-11.2c8.5-2,15.2,1.8,17.3,10.3
	C449.2,56.6,449.3,57.3,449.7,58.5z"/>
<path class="st0" d="M196.8,46c-3.7,0-6.8,0-10,0c-1.2-1.7-0.8-3.5-0.5-5.3c0.5-3,0-4.1-2.5-5.7c-5.2-3.3-15.8-3-21,2.1
	c-5.6,5.4-6.1,14.1,1.9,18.3c3.5,1.8,7.3,3.2,10.8,5c3.3,1.6,6.6,3.2,9.5,5.4c5.3,4,8,9.5,8.1,16.3c0.1,8.3-2.4,15.4-8.5,20.9
	c-4.1,3.8-9.2,5.7-14.6,7.1c-7.5,2-14.7,0.7-21.8-1.8c-8.5-3-12.4-9.9-10.4-18.7c0.4-1.6,0.6-3.2,1-4.8c0.2-0.8,0.5-1.5,0.9-2.7
	c2,0,4,0,5.9,0c1.3,0,2.6,0.1,4.5,0.2c-0.2,1.8-0.3,3.4-0.6,4.9c-1.2,5.2,0,7.9,4.9,9.9c7.2,2.9,14.1,2.7,20.7-2
	c6.2-4.5,6.9-15,1.6-19.2c-2.5-2-5.1-3.6-8-4.9c-5-2.3-9.8-4.9-14.6-7.4c-4.8-2.5-7.2-7.2-7.8-12.1c-1.8-13.3,4.2-23.9,17.2-28.4
	c8.3-2.9,16.9-3.1,25.3,0c1.7,0.6,3.4,1.3,4.9,2.3c4.8,3.1,6.2,7,4.8,12.9C197.8,40.8,197.4,43.2,196.8,46z"/>
<path class="st0" d="M359.2,47.3c7.1,0,13.5,0,20,0c1.4,1.5,1,3.3,0.7,4.8c-2.2,11.8-4.5,23.6-6.8,35.3c-0.3,1.8-0.6,3.6-0.9,5.3
	c-0.7,3.7,1,5.9,4.9,6.4c3.1,0.4,3.3,0.6,2.5,3.8c-0.1,0.6-0.4,1.3-0.6,1.9c-0.3,1.2-0.3,3-1.1,3.6c-1.4,1-3.4,1.6-5.1,1.7
	c-7,0-11.3-4-12.2-11.7c-0.8,0.9-1.3,1.5-1.8,2.2c-5.7,6.6-12.8,10.5-21.6,10.5c-4.5,0-8.7-1.3-12-5c-2.1-2.4-3.2-5-3.3-8
	c-0.2-6.6,0.2-13.2,1.8-19.7c1.4-5.9,2.2-12,3.2-18c0.1-0.8-0.1-1.6-0.1-3c-2.8-0.1-5.5-0.2-8.7-0.4c0.4-2.7,0.7-5.1,1.3-7.4
	c0.4-1.5,1.3-2.5,3.2-2.5c5.3,0.1,10.7,0,16,0.1c2.2,0,2.7,0.8,2.4,2.8c-1.5,7.9-3.2,15.8-4.6,23.7c-1,6-1.9,12.1-2.2,18.1
	c-0.3,5.3,2.4,7.6,7.7,7.3c5.4-0.2,9.9-2.8,13.4-6.8c5-5.8,7.9-12.5,8.9-20.1c0.7-4.9,1.7-9.7,2.6-14.9c-2.8-0.1-5.4-0.3-8-0.4
	C356.8,53.6,359.2,50.8,359.2,47.3z"/>
<path class="st0" d="M209.5,220.2c0.2-1.1,0.4-1.7,0.4-2.3c0.7-5.5,0.7-5.5,6.3-5.7c0.7,0,1.3-0.1,2.5-0.2c0-1.8,0.3-3.6,0.1-5.3
	c-0.5-4.2-1.3-8.4-1.9-12.7c-0.3-2.1-1.5-2.8-3.4-2.8c-3.3,0-6.7,0-10,0c-4.3,0-8.7,0.1-13,0c-2.4-0.1-4,0.6-5.1,3
	c-2.5,5.1-5.3,10-7.9,15c-0.4,0.8-0.8,1.7-1.3,2.9c2.6,0.1,4.9,0.3,7.4,0.4c0.1,1.5,0.3,2.8,0.2,4.1c-0.3,2.8-1.3,3.7-4.2,3.7
	c-6.5,0-13,0.1-19.5,0c-3.3,0-3.6-0.6-2.8-3.9c0.3-1.3,0.7-2.5,1-3.8c0.8-0.1,1.5-0.3,2.1-0.2c4.4,0.9,6.7-1.5,8.5-5.1
	c1.6-3.3,3.3-6.6,4.9-9.8c8.8-17.3,17.6-34.7,26.5-52c1.6-3.1,3.4-6.1,5-9.2c0.7-1.3,1.5-2.1,3.1-2c1.3,0.1,2.7,0,4,0
	c3.3,0.1,3.9,0.7,4.4,4c1.6,10.1,3.3,20.1,4.9,30.2c1.2,7.6,2,15.3,3.2,23c0.7,4.9,1.9,9.7,2.7,14.5c0.3,1.8,0.3,3.6,0.4,5.6
	c2.5,1.4,5.3,0.2,8.2,1c-0.1,0.5-0.2,1-0.2,1.6c-0.1,6.2-0.2,6.2-6.7,6.2C223,220.2,216.5,220.2,209.5,220.2z M191,183.2
	c7.3,0,14.1-0.1,20.9,0c2.6,0,3.6-0.3,3-4.1c-0.5-2.9-1.4-5.7-1.8-8.7c-1.2-7.9-2.2-15.8-3.3-24.4
	C203.3,158.7,197.3,170.6,191,183.2z"/>
<path class="st0" d="M250.2,92c2.6,2.2,2.9,5,3.7,7.5c0.7,2.1-1,3.4-2.3,4.6c-3.3,2.8-7.4,4.3-11.5,5.6c-6.9,2.2-13.6,1.6-20.4-0.5
	c-10.7-3.3-15.7-13-16.6-22.5c-0.8-8.2,1-15.9,5.1-22.9c5.6-9.4,13.8-15.1,24.5-17.8c6.3-1.5,12.1-0.3,18,1.2
	c2.9,0.8,5.2,2.6,7.1,5.1c2.3,2.9,2.6,6,1.9,9.4c-0.1,0.6-0.5,1.2-0.6,1.9c-0.9,4.5-0.9,4.6-5.2,4.6c-1.8,0-3.6,0-5.6,0
	c-0.1-1.4-0.3-2.4-0.2-3.3c0.3-4.6-1.7-7.2-6.1-7.7c-10.2-1.1-18.7,3.4-23.2,12.7c-1.4,2.8-2.7,5.7-3.3,8.8
	c-1.7,7.7,1.5,18.3,10.7,20.3c6.6,1.5,13.1,0.4,19-3.4C246.7,94.4,248.3,93.3,250.2,92z"/>
<path class="st0" d="M387.8,212.7c0.2,7.5-1.6,9.1-8.4,7.5c-5.6-1.3-6.9-3-7.8-9.8c-0.8,0.9-1.3,1.6-1.8,2.2
	c-4.3,5.5-10.1,8.7-16.9,9.5c-4.9,0.6-9.5-1.1-13.5-4c-4.1-3-5.5-7.6-5.3-12.3c0.2-9.4,5.3-15.8,13.8-19.5c7.1-3,14.5-4.3,22.2-4.2
	c1.7,0,3.3,0,5.1,0c1.3-2.3,2.1-4.6,1.8-7.2c-0.7-6.7-3.3-9.3-9.6-9.8c-5.9-0.4-11.4,1.6-16.5,4.6c-0.5,0.3-1,0.7-1.8,1.2
	c-1.1-2.5-2-4.8-3.1-7.3c4.6-3.6,9.8-5.7,15.4-6.5c3.9-0.6,8.1-0.6,11.9,0.2c9.7,2.1,14.2,10.8,12.3,20.6
	c-1.8,9.2-3.7,18.4-5.4,27.6C379.1,211.1,381.7,213.5,387.8,212.7z M374.4,189.4c-6.9-0.9-13.3,0.3-19.4,2
	c-5.2,1.5-10.1,4.1-11.5,10.5c-1.3,5.6,0.8,9.8,6.2,11.6c4.2,1.4,8.2,0.3,11.2-2.1C367.8,205.8,373.5,199.1,374.4,189.4z"/>
<path class="st0" d="M585.6,190.2c-14.5,0-28.7,0-42.7,0c-3,8.7,1.4,20.3,11.5,22.6c4.9,1.1,9.9,0.9,14.5-1.6c3-1.6,6.1-3.3,9.1-5
	c4.2,9.1,3.6,7.2-3.5,11.7c-4.2,2.6-8.9,4-13.6,4.1c-12.4,0.4-24.1-4.5-26.9-19c-3-15,1.1-28,12.2-38.4c9-8.4,21-9.8,31-5.5
	c4.1,1.8,6.4,5,8,9c2.6,6.4,2.5,12.9,0.9,19.5C585.9,188.3,585.8,188.9,585.6,190.2z M544.7,182.8c7.6,0.8,29.6,0.6,33.3-0.5
	c0-2.2,0.1-4.5,0-6.8c-0.4-4.8-4.5-9.7-8.8-10.2C557.7,163.6,547.3,171.9,544.7,182.8z"/>
<path class="st0" d="M409.7,219.9c-3,0-5.6,0-8.6,0c2.5-17.9,6.5-35.3,9.2-53.5c-3.3-0.2-6.1-0.3-9.1-0.4c-0.1-1.6-0.4-2.9-0.2-4.1
	c0.3-2.8,1.3-3.6,4.2-3.7c2.5-0.1,5-0.1,7.5,0c4.9,0.1,6.2,1.4,6.3,6.1c0,1.1,0.1,2.2,0.2,3.6c3.1-2.5,5.8-4.9,8.7-7.1
	c6.1-4.4,13.2-4.3,20.1-3.4c3.3,0.4,6.2,2.7,7.8,6.3c2.1,4.4,2.6,9,2,13.6c-0.8,6.3-2.3,12.6-3.4,18.9c-0.6,3.7-1.2,7.5-1.4,11.2
	c-0.2,4.1,1.6,5.6,5.7,5.6c0.6,0,1.2-0.2,2.2-0.4c-0.5,2.4-0.9,4.6-1.3,6.8c-3.6,2.7-7.3,1.3-10.8,0.1c-3.3-1.2-5-3.9-4.8-7.4
	c0.2-4.8,0.5-9.6,1.2-14.3c1-6.5,2.7-12.9,3.6-19.4c0.6-3.8,0.5-7.9-2.8-10.6c-3.8-3-8.3-2.6-12.7-0.9c-6.7,2.6-11,7.7-14.6,13.6
	c-2.5,4.2-3.7,8.8-4.6,13.5C412.6,202.6,411.3,211,409.7,219.9z"/>
<path class="st0" d="M518.4,205c0.9,2.7,1.7,5.1,2.6,7.5c-3.1,3.7-7.4,5.8-11.7,7.4c-6.6,2.6-13.6,3.3-20.4,1.1
	c-9-3-14.7-9.1-16.9-18.5c-2.7-11.9,0.4-22.5,7.5-31.8c6.4-8.5,15.1-13.7,26.4-13.6c4.9,0.1,9.6,0.2,14,2.5c4.1,2.1,6.5,5.1,6.1,9.9
	c-0.1,0.8,0,1.7,0,2.5c-0.1,5.8-1.1,6.7-6.8,6.2c-1.7-0.1-2.4-0.9-2.2-2.5c0-0.2,0.1-0.3,0.1-0.5c0.1-1.6,1-3.7,0.3-4.7
	c-1.3-1.8-3.4-3.2-5.4-4.2c-4.3-2.2-8.8-1.2-13,0.4c-11.4,4.4-20.3,17.5-18.9,29.9c0.9,8.5,7.4,16.6,17.4,16.6c6.5,0,12-2.1,17-5.9
	C515.5,206.4,516.9,205.8,518.4,205z"/>
<path class="st0" d="M277.4,57.4c-3.7-0.2-6.4-0.3-9.4-0.4c0.3-1.4,0.4-2.2,0.6-2.9c1.9-8,0-6.7,9-6.9c2.2,0,4.3-0.1,6.5,0
	c4.9,0.2,6.8,2.8,5.7,7.6c-0.2,0.8-0.4,1.6-0.5,2.4c0,0.1,0.2,0.3,0.3,0.4c8.2-9.9,12.9-12.3,22.3-10.9c-0.7,4-1.4,8-2.1,12.3
	c-1.1,0.1-2.2,0.3-3.3,0.2c-3.9-0.2-7,1.6-9.8,4.1c-7.3,6.5-10.6,15-12.3,24.3c-1.1,6-2,12-3.1,18c-0.5,3-1.3,3.6-4.3,3.6
	c-2.6,0.1-5.3,0-8.4,0C271.3,91.9,274.3,75,277.4,57.4z"/>
<path class="st0" d="M248.6,142.2c0.2-1.9,0.2-3.2,0.4-4.5c0.3-2.9,0.7-3.4,3.7-3.5c4.8-0.1,9.6,0,14.5,0c1.3,2,0.8,3.9,0.4,5.9
	c-1.3,6.6-2.4,13.3-3.6,19.9c-1.1,6.3-2.3,12.6-3.4,18.9c-1.2,7-2.5,13.9-3.6,20.9c-0.5,2.9-0.9,5.9-1,8.8c-0.1,2.9,0.6,3.3,3.6,3.6
	c1.3,0.1,2.6,0.1,4.2,0.2c-0.4,2.4-0.4,4.5-1.1,6.5c-0.4,1-1.8,1.9-3,2.2c-6.5,1.6-12.6-3.4-12.9-10.1c-0.2-4.8,0.9-9.5,1.7-14.2
	c1.2-6.8,2.2-13.6,3.4-20.5c1-5.8,2.1-11.7,3.2-17.5c0.9-4.7,1.8-9.3,2.7-14c0.3-1.6-0.3-2.6-2.1-2.6
	C253.5,142.2,251.2,142.2,248.6,142.2z"/>
<path class="st0" d="M293.7,212.4c-0.3,1.6-0.5,2.8-0.7,4.1c-0.6,3.8-1.9,5.1-5.6,4.6c-2.4-0.3-4.8-1.2-7-2.3
	c-2.2-1.1-3.3-3.3-3.4-5.7c-0.1-3-0.4-6,0.1-9c0.9-6.3,2.3-12.6,3.4-18.9c1.2-6.8,2.3-13.6,3.5-20.4c0.8-4.4,1.5-8.8,2.3-13.1
	c0.5-2.9,1.1-5.8,1.7-9.2c-3.3-0.1-6.4-0.2-10-0.3c0.5-2.7,0.9-5,1.3-7.8c5.6,0,11-0.1,16.5,0c1.8,0,2.4,0.9,2.1,3.1
	c-0.6,4.1-1.4,8.1-2.2,12.2c-1.3,6.8-2.5,13.6-3.8,20.4c-1.9,10.3-3.9,20.7-5.8,31c-0.4,2.3-0.7,4.6-0.8,6.9c-0.1,3,1.4,4.2,4.7,4.4
	C291.3,212.2,292.4,212.3,293.7,212.4z"/>
<path class="st0" d="M315.8,166.4c-3-0.2-5.6-0.3-8.7-0.5c0-1.6-0.2-3.1,0-4.5c0.4-2.5,1.4-3.2,4.1-3.3c4.7-0.1,9.3,0,14.5,0
	c0.1,1.6,0.5,3.1,0.2,4.4c-1.5,8.1-3.1,16.1-4.7,24.2c-1.1,6-2.1,12-3.2,18c-0.1,0.5,0,1-0.1,1.5c-0.2,5.8,1.5,7.3,7.5,6.4
	c1.3,2.4-0.4,4.5-1,6.6c-0.3,1-3,1.6-4.7,1.7c-1.6,0.1-3.2-0.5-4.8-0.9c-3.3-0.8-5.5-3.6-5.9-8.3c-0.3-2.9,0.4-5.9,0.8-8.8
	c0.9-6.2,2-12.3,3.1-18.5c0.8-4.7,1.9-9.3,2.8-14C316,169.3,315.8,168.1,315.8,166.4z"/>
<path class="st0" d="M38,154.7c-1,7.8-5.8,12.9-13.5,13.3c-6.7,0.4-13.4-6.7-13.4-13.4c0.1-6.8,6.8-13.5,13.5-13.4
	C31.4,141.3,38,148,38,154.7z"/>
<path class="st0" d="M48,125.7c0.6,7-5.4,12.6-12.7,12.7c-5.6,0.1-12.1-5.4-12.1-12.6c0-7.4,5.6-12.6,12.6-12.6
	C42.4,113.3,48.7,118.1,48,125.7z"/>
<path class="st0" d="M47,107.2c0-7.1,3.9-11,10.9-11c7.7,0,12.1,4.2,12.2,11.3c0.1,6.7-5.5,11.7-11.5,11.8
	C52,119.3,45.7,113.4,47,107.2z"/>
<path class="st0" d="M86.8,91.2c6-0.1,11.2,4.9,11.2,10.9c-0.1,6.4-4.6,10.9-10.9,11.1c-6,0.1-11.2-5-11-11.1
	C76.2,96.1,80.8,91.6,86.8,91.2z"/>
<path class="st0" d="M105,41.7c0,6.7-2.9,9.6-9.8,9.5c-5.9,0-9.9-3.6-10.2-9.3c-0.3-5.5,4.2-9.7,10.2-9.7
	C102.2,32.1,105,34.9,105,41.7z"/>
<path class="st0" d="M105,109.9c0-5.8,3.8-9.7,9.4-9.7c5.8,0,9.6,4.1,9.6,10.3c-0.1,5.9-3.9,9.8-9.6,9.7
	C108.7,120.1,105,116.1,105,109.9z"/>
<path class="st0" d="M83.6,30.2c-5.4,0-9.6-4-9.6-9.1c0-5.2,4.5-9.7,9.8-9.9C89,11,93.1,15.5,93,21.3C93,27.4,90,30.2,83.6,30.2z"/>
<path class="st0" d="M135.2,139.2c-4.9,0.1-9.2-4.1-9.2-9c0-4.5,3.9-8.7,8.3-8.9c4.5-0.2,9.6,4.8,9.6,9.4
	C143.9,134.9,139.7,139.1,135.2,139.2z"/>
<path class="st0" d="M143.3,164.2c-4-0.1-8.3-4.5-8.3-8.5c0-4.2,4.7-8.7,8.8-8.4c4.3,0.3,8.3,4.7,8.1,8.7
	C151.6,160.2,147.4,164.3,143.3,164.2z"/>
<path class="st0" d="M15,18.2c0-5.1,2-7.1,7.2-7.1c4.2,0,7.9,3.5,7.8,7.2c-0.1,4.3-3.6,7.8-7.9,7.8C18.3,26.2,15,22.4,15,18.2z"/>
<path class="st0" d="M139.9,188.2c-4.7,0-6.9-2-6.9-6.4c0-4,3.1-7.4,6.9-7.4c3.8-0.1,7.2,3.5,7.1,7.5
	C146.9,185.9,144.4,188.2,139.9,188.2z"/>
<path class="st0" d="M16,35.9c-0.1,3.8-2.7,6.3-6.6,6.3c-4.1-0.1-6.5-2.7-6.4-7c0.1-4.4,2.7-7,6.6-6.9C13.8,28.4,16.1,31.1,16,35.9z
	"/>
<path class="st0" d="M121,204.4c0-3.4,2.8-6.4,5.7-6.2c2.6,0.2,6.2,3.8,6.2,6.4c0,2.8-4,6.6-6.7,6.4
	C123.2,210.9,120.9,208,121,204.4z"/>
<path class="st0" d="M320.8,134.2c3.3,0,5.7,0,8.2,0c1.9,0,2.2,1.2,2,2.7c-0.3,2.1-0.5,4.3-1.2,6.3c-0.3,0.9-1.5,1.8-2.5,1.9
	c-2.1,0.3-4.3,0.1-6.5,0.1C318.6,141.6,322,138.3,320.8,134.2z"/>
<path class="st0" d="M6,73.7c0.2-3.3,2-4.8,5.7-4.6c2.9,0.2,5.6,3,5.3,5.5c-0.3,3-3.2,5.6-6.1,5.5C8.2,80.1,5.8,77,6,73.7z"/>
<path class="st0" d="M23.5,95.2c-2.9,0-4.6-1.8-4.5-4.7c0.1-2.8,1.8-4.3,4.9-4.3c2.8,0,4.9,1.7,5,4.3C29.1,93,26.5,95.2,23.5,95.2z"
	/>
<path class="st0" d="M45,98.4c-0.1,3.1-1,3.9-4.4,3.8c-2.5-0.1-4.4-2-4.5-4.3c-0.1-2.3,2.4-4.6,4.9-4.6C43.5,93.2,45.1,95.2,45,98.4
	z"/>
</svg>
