<?xml version="1.0" encoding="utf-8"?>
<!-- Generator: Adobe Illustrator 18.1.1, SVG Export Plug-In . SVG Version: 6.00 Build 0)  -->
<!DOCTYPE svg PUBLIC "-//W3C//DTD SVG 1.1//EN" "http://www.w3.org/Graphics/SVG/1.1/DTD/svg11.dtd">
<svg version="1.1" id="Layer_1" xmlns="http://www.w3.org/2000/svg" xmlns:xlink="http://www.w3.org/1999/xlink" x="0px" y="0px"
	 viewBox="0 0 33 32.8" enable-background="new 0 0 33 32.8" xml:space="preserve">
<g>
	<path fill="#7F8C8D" d="M0,0.6C1.8,0.2,4.2,0,6.6,0c3.7,0,6.7,0.5,8.8,2.5c1.9,1.7,2.8,4.4,2.8,7.1c0,3.5-1.1,6-2.7,7.8
		c-2,2.1-5.3,3.1-7.9,3.1c-0.4,0-0.9,0-1.2,0v12H0V0.6z M6.3,15.3c0.3,0.1,0.6,0.1,1,0.1c3.2,0,4.6-2.3,4.6-5.3c0-2.8-1.2-5-4.1-5
		c-0.6,0-1.2,0.1-1.5,0.2V15.3z"/>
	<path fill="#7F8C8D" d="M20.4,26.8c0.9,0.6,2.6,1.2,4.2,1.2c1.6,0,2.5-0.7,2.5-2.1c0-1.2-0.7-2-2.7-3.2c-3.8-2.2-4.8-4.6-4.8-6.8
		c0-4.2,3-7.4,7.7-7.4c2,0,3.5,0.5,4.8,1.1l-1.1,4.6c-0.9-0.5-2-1-3.3-1c-1.6,0-2.4,1-2.4,2c0,1.1,0.5,1.6,2.7,2.9
		c3.5,2,4.8,4.4,4.8,7.1c0,4.8-3.5,7.4-8.3,7.4c-2,0-4.3-0.5-5.4-1.3L20.4,26.8z"/>
</g>
</svg>
