<?xml version="1.0" encoding="utf-8"?>
<!-- Generator: Adobe Illustrator 18.1.1, SVG Export Plug-In . SVG Version: 6.00 Build 0)  -->
<!DOCTYPE svg PUBLIC "-//W3C//DTD SVG 1.1//EN" "http://www.w3.org/Graphics/SVG/1.1/DTD/svg11.dtd">
<svg version="1.1"
	 id="svg2" sodipodi:docname="js logo.svg" inkscape:version="0.47pre4 r22446" xmlns:rdf="http://www.w3.org/1999/02/22-rdf-syntax-ns#" xmlns:sodipodi="http://sodipodi.sourceforge.net/DTD/sodipodi-0.dtd" xmlns:inkscape="http://www.inkscape.org/namespaces/inkscape" xmlns:svg="http://www.w3.org/2000/svg" xmlns:dc="http://purl.org/dc/elements/1.1/" xmlns:cc="http://creativecommons.org/ns#"
	 xmlns="http://www.w3.org/2000/svg" xmlns:xlink="http://www.w3.org/1999/xlink" x="0px" y="0px"
	 viewBox="-177.9 266.2 306.9 64.1" enable-background="new -177.9 266.2 306.9 64.1" xml:space="preserve">
<defs>
	
	
		<inkscape:perspective  id="perspective10" inkscape:vp_z="744.09448 : 526.18109 : 1" inkscape:vp_x="0 : 526.18109 : 1" sodipodi:type="inkscape:persp3d" inkscape:vp_y="0 : 1000 : 0" inkscape:persp3d-origin="372.04724 : 350.78739 : 1">
		</inkscape:perspective>
</defs>
<sodipodi:namedview  id="base" inkscape:current-layer="layer1" inkscape:window-y="414" inkscape:document-units="px" inkscape:window-width="625" inkscape:window-x="134" inkscape:pageshadow="2" inkscape:window-height="489" inkscape:pageopacity="0.0" inkscape:window-maximized="0" bordercolor="#666666" inkscape:cx="375" inkscape:cy="351.99868" borderopacity="1.0" showgrid="false" inkscape:zoom="0.35" pagecolor="#ffffff">
	</sodipodi:namedview>
<g enable-background="new    ">
	<path fill="#7E8C8C" d="M-158.3,269.2v-1.8h21.4v1.8c-3.5,0.4-4.8,1.3-5.8,5.2l-9.2,34.5c-2.5,9.4-7.3,13.8-15,13.8
		c-6.3,0-10.9-3.1-10.9-7.3c0-2.8,2-5,4.6-5c2.5,0,4.5,2,4.5,4.5c0,2.3-1.7,2.4-1.7,3.9c0,0.9,0.6,1.3,1.9,1.3c2.6,0,3.7-2,6.5-12.7
		l8.2-31.1c0.5-1.9,0.8-3.5,0.8-4.4C-153,270.3-154,269.8-158.3,269.2z"/>
	<path fill="#7E8C8C" d="M-107.3,307.5c-4.1,6.3-7.5,9.1-10.9,9.1c-2.7,0-4.8-2.1-4.8-4.8c0-1,0.2-2,1-4.8
		c-4.1,6.8-7.4,9.5-11.8,9.5c-4.7,0-7.8-3.7-7.8-9.1c0-11.2,10.8-25.1,19.7-25.1c3.1,0,4.7,1.5,5.3,5.2l1.3-4.2l8-0.5l-5.1,17
		c-1.7,5.8-2.4,8.9-2.4,10.7c0,0.6,0.4,1.1,0.9,1.1c1.2,0,2.2-1.1,5.2-5L-107.3,307.5z M-121,285.3c-4.5,0-11.7,14.8-11.7,22.2
		c0,2.2,1.4,3.9,3.2,3.9c6.3,0,11.2-17.8,11.2-22.7C-118.2,286.6-119.5,285.3-121,285.3z"/>
	<path fill="#7E8C8C" d="M-105,286.3v-1.9c6-0.9,7.6-1.2,11.2-2c1.5,5.8,1.9,9.9,2.2,24c7.1-8.1,9.1-11,9.1-13.5
		c0-1.8-3.2-3.7-3.2-6.3c0-2.2,1.9-4.2,4-4.2c2.2,0,4.4,2.3,4.4,4.8c0,6.3-5.5,14.8-20.9,29.4h-1.9l0.3-9.8c0.1-1.5,0.1-2.7,0.1-3
		C-99.7,286.3-101.9,286.3-105,286.3z"/>
	<path fill="#7E8C8C" d="M-43.3,307.5c-4.1,6.3-7.5,9.1-10.9,9.1c-2.7,0-4.8-2.1-4.8-4.8c0-1,0.2-2,1-4.8c-4.1,6.8-7.4,9.5-11.8,9.5
		c-4.7,0-7.8-3.7-7.8-9.1c0-11.2,10.8-25.1,19.7-25.1c3.1,0,4.7,1.5,5.3,5.2l1.3-4.2l8-0.5l-5.1,17c-1.7,5.8-2.4,8.9-2.4,10.7
		c0,0.6,0.4,1.1,0.9,1.1c1.2,0,2.2-1.1,5.2-5L-43.3,307.5z M-57,285.3c-4.5,0-11.7,14.8-11.7,22.2c0,2.2,1.4,3.9,3.2,3.9
		c6.3,0,11.2-17.8,11.2-22.7C-54.2,286.6-55.5,285.3-57,285.3z"/>
	<path fill="#7E8C8C" d="M-35,314.3c-1.4,0-1.9,0.4-2.7,2.5h-2.2l2.6-16.1l2.1,0.1c0.4,5.8,2.2,13.5,11.1,13.5
		c5.5,0,9.1-4.1,9.1-9.1c0-9.1-17.6-13.4-17.6-25.1c0-7.9,6.3-14,14.5-14c4.4,0,8.6,2.2,10.7,2.2c1.5,0,2.5-0.6,3.2-1.9h2.2L-5,281
		l-1.9-0.3c-0.9-8.4-3.7-12-9.5-12c-4.6,0-7.5,3-7.5,7.6c0,3.2,1.1,4.8,5.5,8.2c8.8,6.7,12.1,11.5,12.1,17.7
		c0,8.9-6.4,14.6-16.5,14.6C-28.9,316.9-32.5,314.3-35,314.3z"/>
	<path fill="#7E8C8C" d="M8.1,305.4c0,3.9,2.2,6.5,5.3,6.5s5.3-1.7,8.8-6.5l2,1.3c-2,2.9-6.3,9.8-14.3,9.8c-6.5,0-11-4.5-11-10.9
		c0-11.5,10.4-23.3,20.5-23.3c4.8,0,8.1,2.7,8.1,6.5c0,3-1.9,5-4.5,5c-2.4,0-4.2-1.6-4.2-3.7c0-1.9,1.5-3.3,1.5-4.2
		c0-0.7-0.7-1.2-1.6-1.2C11.7,284.7,8.1,301.2,8.1,305.4z"/>
	<path fill="#7E8C8C" d="M47.1,289.6c-1.9,0-5.9,6-9.9,18.5c-0.3,1.1-1.3,4.2-2.4,7.5h-8.7c4.9-16.5,7.3-25.7,7.3-27.5
		c0-1.4-0.6-1.7-3.9-1.8v-1.9c8.7-0.7,10.1-0.9,14.4-2l-4.8,15c5.7-11.4,8.6-15,12.3-15c2.4,0,4.1,1.9,4.1,4.8c0,3-1.8,5.3-4.2,5.3
		S48,289.6,47.1,289.6z"/>
	<path fill="#7E8C8C" d="M72.8,306.4c-5,7.6-7.7,9.8-12,9.8c-3,0-5-1.9-5-4.5c0-0.9,0.4-3,0.9-5l4.2-15.5c0.3-1.2,0.5-2.3,0.5-2.9
		c0-1.5-1.2-2.1-4.2-2.1v-1.9c5.6-0.4,10.7-1.2,14.5-2l-6.6,24c-0.2,0.9-0.6,3.3-0.6,3.7c0,0.6,0.5,1.1,1.1,1.1
		c1.1,0,2.7-1.5,4.6-4.3l1-1.4L72.8,306.4z M74.6,271.1c0,2.7-2.2,4.8-5,4.8c-2.7,0-4.8-2.2-4.8-5c0-2.5,2.2-4.8,4.8-4.8
		C72.3,266.2,74.6,268.5,74.6,271.1z"/>
	<path fill="#7E8C8C" d="M75.9,284.3c3.7-0.4,6.6-0.9,13.9-2l-2.7,8.3c4.2-6,7.4-8.3,11.5-8.3c4.8,0,7.8,3.4,7.8,8.7
		c0,12.5-10.2,25.5-19.9,25.5c-1.5,0-2.4-0.3-4.9-1.6l-0.9,3c-1.3,4.9-1.8,7.3-1.8,8.1c0,1.7,1.2,2.3,4.7,2.4v1.9H65.6v-1.9H66
		c3,0,3.8-0.9,5-5.3l7.2-27.9c0.9-3.5,1.6-6.4,1.6-7.1c0-1.4-0.6-1.7-3.9-1.8V284.3z M94.3,287.4c-5.8,0-8.6,11.2-9.4,14.1
		c-1.9,6.6-2.5,8.7-2.5,9.9c0,1.4,1.2,2.6,2.8,2.6c7.3,0,12.2-18.3,12.2-22.9C97.3,288.9,96.1,287.4,94.3,287.4z"/>
	<path fill="#7E8C8C" d="M129,286.3h-6l-2.4,8.5c-2.5,8.8-3.9,14-3.9,15.3c0,0.5,0.6,1.1,1.2,1.1c1.2,0,3-1.9,5.5-5.8l1.6,1
		c-4.8,7.4-7.6,9.8-12,9.8c-3,0-5-1.9-5-4.7c0-1.2,0.6-4.5,1.7-8.1l4.9-17.1H111v-2.5c5.7-2.2,9.3-5.1,13.2-10.9h2.5l-2.8,10.4h5.2
		V286.3z"/>
</g>
</svg>
