<?xml version="1.0" encoding="utf-8"?>
<!-- Generator: Adobe Illustrator 18.1.1, SVG Export Plug-In . SVG Version: 6.00 Build 0)  -->
<!DOCTYPE svg PUBLIC "-//W3C//DTD SVG 1.1//EN" "http://www.w3.org/Graphics/SVG/1.1/DTD/svg11.dtd">
<svg version="1.1"
	 id="svg3059" xmlns:rdf="http://www.w3.org/1999/02/22-rdf-syntax-ns#" xmlns:svg="http://www.w3.org/2000/svg" xmlns:dc="http://purl.org/dc/elements/1.1/" xmlns:cc="http://creativecommons.org/ns#"
	 xmlns="http://www.w3.org/2000/svg" xmlns:xlink="http://www.w3.org/1999/xlink" x="0px" y="0px" viewBox="3.6 68.4 955.9 424"
	 enable-background="new 3.6 68.4 955.9 424" xml:space="preserve">
<path id="path21" fill="#7E8C8C" d="M766.6,275c35.9,12.6,53.9,34.1,53.9,64.5c0,20-7.4,36-22.3,47.7c-14.8,11.8-36,19.1-63.6,19.1
	s-53-8-76.5-21.1c0.3-7,2.1-14.6,5.5-22.9s7.4-14.9,11.9-19.7c21.6,11.2,40.3,16.8,56.3,16.8c7.5,0,13.4-1.3,17.4-3.8
	c4.1-2.5,6.1-5.9,6.1-10.2c0-8-6.2-14.1-18.6-18.1l-22.3-8.4c-33.7-12.3-50.6-32.3-50.6-60.1c0-20.3,7.1-36.4,21.3-48.3
	c14.2-11.9,33.3-22.1,57.3-22.1c11.9,0,25,1.7,39.3,5c14.3,3.3,26,11.6,35.2,16.1c0.5,7.5-1,15.7-4.5,24.7c-3.5,9-7.8,15.3-13,19.1
	c-22.7-10.2-41.6-15.2-56.7-15.2c-5.4,0-9.5,1.2-12.4,3.6c-2.8,2.4-4.2,5.5-4.2,9.2c0,6.4,5.1,11.5,15.4,15.2L766.6,275L766.6,275z"
	/>
<path id="path23" fill="#7E8C8C" d="M587.2,275c35.9,12.6,53.8,34.1,53.8,64.5c0,20-7.4,36-22.3,47.7c-14.9,11.8-36,19.1-63.6,19.1
	c-27.5,0-53-8-76.5-21.1c0.3-7,2.1-14.6,5.5-22.9c3.4-8.3,7.3-14.9,11.9-19.7c21.6,11.2,40.4,16.8,56.3,16.8
	c7.5,0,13.4-1.3,17.4-3.8c4-2.5,6.1-5.9,6.1-10.2c0-8-6.2-14.1-18.6-18.1L535,319c-33.7-12.3-50.6-32.3-50.6-60.1
	c0-20.3,7.1-36.4,21.3-48.3c14.2-11.9,33.3-22.1,57.3-22.1c11.9,0,25,1.7,39.3,5c14.3,3.3,26,11.6,35.2,16.1
	c0.5,7.5-1,15.7-4.5,24.7c-3.5,9-7.8,15.3-13,19.1c-22.7-10.2-41.6-15.2-56.7-15.2c-5.4,0-9.5,1.2-12.3,3.6
	c-2.8,2.4-4.2,5.5-4.2,9.2c0,6.4,5.1,11.5,15.4,15.2L587.2,275L587.2,275z"/>
<path id="path25" fill="#7E8C8C" d="M456.4,277.8c0-12.3-2-23.7-5.9-34.1c-3.9-10.4-9.5-19.4-16.8-26.9
	c-7.3-7.5-16.1-13.4-26.5-17.6c-10.4-4.3-22.1-10.7-35-10.7c-15.4,0-28.8,7-40.3,12.3c-11.5,5.3-20.9,12.7-28.3,22
	c-7.4,9.4-13,20.4-16.6,33.1c-3.6,12.7-5.5,26.5-5.5,41.5c0,15.5,1.5,29.8,4.5,42.9c3,13.1,8,24.4,15.2,34.1
	c7.2,9.6,16.5,17.1,27.9,22.4c11.5,5.3,25.7,9.4,42.7,9.4c31.3,0,57.8-9.1,79.3-24.3c-2.1-15.5-7.7-27.8-16.5-36.9
	c-11,4.1-20.8,7.1-29.2,8.9c-8.5,1.8-15.9,2.7-22.4,2.7c-12.9,0-22.2-3.3-27.8-9.9c-5.6-6.6-8.7-14.4-9.3-26.3h105.3
	C454.7,309.3,456.4,294.1,456.4,277.8z M345.5,280.6c0.8-13.6,3.3-28.2,7.4-34.3c4.2-6,10.5-9,19.1-9c8.8,0,15.5,3.2,19.9,9.6
	c4.4,6.4,6.6,19.3,6.6,29.2l0,4.4H345.5L345.5,280.6L345.5,280.6z"/>
<path id="path27" fill="#7E8C8C" d="M931.5,307.3c-11.4,10-18.1,24.4-18.1,43.2v70c0,23.3-7.2,41-23.3,53.2
	c-16.2,12.2-35,18.2-56.5,18.8l-12.7-0.1v-34.9c11.2-3.3,15.8-7.1,20.3-11.4c8.1-7.3,14.3-19.2,14.3-35.8v-56.5
	c0.3-19.2,1.8-34.3,8.8-45.2c7-10.9,20.7-20.4,41-28.6c-22.4-10.3-37.5-23.7-45.2-40.2c-4.5-9.8-4.6-23.1-4.6-39.8v-51.9
	c0-17.1-5.6-29.1-12.5-36c-4.5-4.5-9.7-8-22.1-10.7V68.6c15.2,0.2,22.8,0,31.7,0c13.6-0.1,25,7.3,34.9,15.1
	c10.8,8.5,18.5,20,23,34.5c2.6,8.4,2.9,16.3,2.9,23.9v60c0,21.2,6.3,36.9,17,47.2c6,6,14.5,11.4,29.1,16.3v27.1
	C946.5,296.3,938.4,301.1,931.5,307.3L931.5,307.3z"/>
<path id="path29" fill="#7E8C8C" d="M126.3,68.6L126.3,68.6c-4.3,0-8.3,0-11.4,0c-13.6-0.1-25,7.3-34.9,15.1
	c-10.8,8.5-20.1,19.6-23,34.5c-1.7,8.7-1.3,16.3-1.3,23.9v60c0,21.2-7.9,36.9-18.6,47.2c-6,6-18.9,11.4-33.5,16.3v27.1
	c13,3.6,25.4,8.4,32.3,14.5c11.4,10,19.7,24.4,19.7,43.2v70c0,23.3,5.6,41,21.7,53.1c16.2,12.2,35,18.2,56.5,18.8l14.4-0.1v-34.9
	c-11.2-3.3-17.5-7.1-21.9-11.4c-8.1-7.3-12.7-19.2-12.7-35.7v-56.6c-0.3-19.2-3.4-34.3-10.4-45.2c-7-10.9-20.7-20.4-41-28.6
	c22.4-10.3,37.5-23.7,45.2-40.2c4.5-9.8,6.2-23.1,6.2-39.8v-51.9c0-17.1,4-29.1,10.9-36c3.7-3.7,10.4-6.8,19.6-9.3l14.6,0.1
	c0-12.6,0-20.4,0-34.3L126.3,68.6L126.3,68.6L126.3,68.6L126.3,68.6z"/>
<path id="path31" fill="#7E8C8C" d="M260.9,352.8H250c-11.9,0-16.4-6.2-16.4-18.8V103.2c0-13.9-4-23.6-9.1-29.2
	c-5.1-5.6-14-5.5-26.7-5.5H173l-2.9-0.1v0.2l0,34.3v242.2c0,19.3,4.3,33.3,12,42.3c7.7,9,20.7,13.4,39.1,13.4
	c12.7,0,27.1-1.3,43.3-4c0.8-2.7,1.2-8.5,1.2-17.4C265.7,370.6,264.1,361.7,260.9,352.8L260.9,352.8z"/>
</svg>
