<?xml version="1.0" encoding="utf-8"?>
<!-- Generator: Adobe Illustrator 18.1.1, SVG Export Plug-In . SVG Version: 6.00 Build 0)  -->
<!DOCTYPE svg PUBLIC "-//W3C//DTD SVG 1.1//EN" "http://www.w3.org/Graphics/SVG/1.1/DTD/svg11.dtd">
<svg version="1.1" id="Layer_1" xmlns="http://www.w3.org/2000/svg" xmlns:xlink="http://www.w3.org/1999/xlink" x="0px" y="0px"
	 viewBox="0 0 30.1 33.1" enable-background="new 0 0 30.1 33.1" xml:space="preserve">
<g>
	<path fill="#7F8C8D" d="M7.5,25.7l-1.4,7.4H0L7,0.8h7.5l6.3,32.4h-6.1l-1.4-7.4H7.5z M12.8,20.8l-1.1-6.8c-0.3-2-0.8-5.2-1.1-7.3
		h-0.1c-0.3,2.2-0.8,5.5-1.2,7.4l-1.2,6.7H12.8z"/>
	<path fill="#7F8C8D" d="M30.1,3.4c0,2-1.4,3.4-3.3,3.4c-1.7,0-3.2-1.4-3.1-3.4c0-2.1,1.5-3.4,3.2-3.4C28.7,0,30.1,1.3,30.1,3.4z
		 M23.8,33.1V9.6h6.3v23.5H23.8z"/>
</g>
</svg>
