<?xml version="1.0" encoding="utf-8"?>
<!-- Generator: Adobe Illustrator 18.1.1, SVG Export Plug-In . SVG Version: 6.00 Build 0)  -->
<!DOCTYPE svg PUBLIC "-//W3C//DTD SVG 1.1//EN" "http://www.w3.org/Graphics/SVG/1.1/DTD/svg11.dtd">
<svg version="1.1"
	 id="svg2" inkscape:version="0.48.2 r9819" xmlns:rdf="http://www.w3.org/1999/02/22-rdf-syntax-ns#" xmlns:sodipodi="http://sodipodi.sourceforge.net/DTD/sodipodi-0.dtd" xmlns:inkscape="http://www.inkscape.org/namespaces/inkscape" xmlns:svg="http://www.w3.org/2000/svg" xmlns:dc="http://purl.org/dc/elements/1.1/" xmlns:cc="http://creativecommons.org/ns#"
	 xmlns="http://www.w3.org/2000/svg" xmlns:xlink="http://www.w3.org/1999/xlink" x="0px" y="0px" viewBox="-179 199.7 600.3 162.3"
	 enable-background="new -179 199.7 600.3 162.3" xml:space="preserve">
<sodipodi:namedview  id="base" inkscape:current-layer="layer1" inkscape:window-y="52" fit-margin-right="0" inkscape:document-units="px" inkscape:window-width="828" inkscape:window-x="208" inkscape:pageshadow="2" inkscape:window-height="655" fit-margin-bottom="0" inkscape:pageopacity="0.0" inkscape:window-maximized="0" fit-margin-left="0" bordercolor="#666666" inkscape:cx="370.41189" inkscape:cy="-146.05626" borderopacity="1.0" showgrid="false" inkscape:zoom="0.35" pagecolor="#ffffff" fit-margin-top="0">
	<sodipodi:guide  id="guide3070" position="-85.589293,-513.11383" orientation="0,744.09448"></sodipodi:guide>
	<sodipodi:guide  id="guide3072" position="658.50519,-513.11383" orientation="-1052.3622,0"></sodipodi:guide>
	<sodipodi:guide  id="guide3074" position="658.50519,539.24837" orientation="0,-744.09448"></sodipodi:guide>
	<sodipodi:guide  id="guide3076" position="-85.589293,539.24837" orientation="1052.3622,0"></sodipodi:guide>
	<sodipodi:guide  id="guide3078" position="-85.589293,-513.11383" orientation="0,744.09448"></sodipodi:guide>
	<sodipodi:guide  id="guide3080" position="658.50519,-513.11383" orientation="-1052.3622,0"></sodipodi:guide>
	<sodipodi:guide  id="guide3082" position="658.50519,539.24837" orientation="0,-744.09448"></sodipodi:guide>
	<sodipodi:guide  id="guide3084" position="-85.589293,539.24837" orientation="1052.3622,0"></sodipodi:guide>
</sodipodi:namedview>
<rect x="-179" y="199.7" fill="none" width="600.2" height="162.3"/>
<g id="g3018">
	<path id="path3024" inkscape:connector-curvature="0" fill="#7E8C8C" d="M-63.4,269.1h-50.4c-1.3,0-2.4,1.1-2.4,2.4v24.7
		c0,1.3,1.1,2.4,2.4,2.4h19.7v30.6c0,0-4.4,1.5-16.6,1.5c-14.4,0-34.5-5.3-34.5-49.5c0-44.3,21-50.1,40.6-50.1c17,0,24.4,3,29,4.4
		c1.5,0.4,2.8-1,2.8-2.3l5.6-23.8c0-0.6-0.2-1.3-0.9-1.8c-1.9-1.4-13.5-7.8-42.7-7.8c-33.7,0-68.2,14.3-68.2,83.2
		c0,68.9,39.5,79.1,72.9,79.1c27.6,0,44.3-11.8,44.3-11.8c0.7-0.4,0.8-1.3,0.8-1.8v-76.9C-61,270.2-62.1,269.1-63.4,269.1"/>
	<path id="path3026" inkscape:connector-curvature="0" fill="#7E8C8C" d="M196.6,207.9c0-1.3-1-2.4-2.3-2.4h-28.4
		c-1.3,0-2.4,1.1-2.4,2.4c0,0,0,54.9,0,54.9h-44.3v-54.9c0-1.3-1-2.4-2.3-2.4H88.5c-1.3,0-2.3,1.1-2.3,2.4v148.6
		c0,1.3,1.1,2.4,2.3,2.4h28.4c1.3,0,2.3-1.1,2.3-2.4V293h44.3c0,0-0.1,63.6-0.1,63.6c0,1.3,1.1,2.4,2.4,2.4h28.5
		c1.3,0,2.3-1.1,2.3-2.4V207.9"/>
	<path id="path3028" inkscape:connector-curvature="0" fill="#7E8C8C" d="M-9.8,227.4c0-10.2-8.2-18.5-18.3-18.5
		c-10.1,0-18.3,8.3-18.3,18.5c0,10.2,8.2,18.5,18.3,18.5C-18,245.9-9.8,237.6-9.8,227.4"/>
	<path id="path3030" inkscape:connector-curvature="0" fill="#7E8C8C" d="M-11.8,325.2c0-3.8,0-68.6,0-68.6c0-1.3-1.1-2.4-2.4-2.4
		h-28.3c-1.3,0-2.5,1.3-2.5,2.6c0,0,0,82.6,0,98.3c0,2.9,1.8,3.7,4.1,3.7c0,0,12.1,0,25.5,0c2.8,0,3.5-1.4,3.5-3.8
		C-11.8,349.8-11.8,329.2-11.8,325.2"/>
	<path id="path3032" inkscape:connector-curvature="0" fill="#7E8C8C" d="M304.5,254.4h-28.2c-1.3,0-2.3,1.1-2.3,2.4v72.9
		c0,0-7.2,5.2-17.3,5.2c-10.2,0-12.9-4.6-12.9-14.6c0-10,0-63.6,0-63.6c0-1.3-1-2.4-2.3-2.4h-28.6c-1.3,0-2.3,1.1-2.3,2.4
		c0,0,0,38.8,0,68.4c0,29.6,16.5,36.8,39.1,36.8c18.6,0,33.6-10.3,33.6-10.3s0.7,5.4,1,6.1c0.3,0.6,1.2,1.3,2.1,1.3l18.2-0.1
		c1.3,0,2.3-1.1,2.3-2.4l0-99.8C306.9,255.5,305.8,254.4,304.5,254.4"/>
	<path id="path3034" inkscape:connector-curvature="0" fill="#7E8C8C" d="M370.5,334.8c-9.8-0.3-16.4-4.7-16.4-4.7V283
		c0,0,6.5-4,14.6-4.7c10.2-0.9,19.9,2.2,19.9,26.4C388.5,330.2,384.1,335.2,370.5,334.8z M381.6,251.1c-16,0-26.9,7.1-26.9,7.1
		v-50.3c0-1.3-1-2.4-2.3-2.4h-28.5c-1.3,0-2.3,1.1-2.3,2.4v148.6c0,1.3,1.1,2.4,2.4,2.4c0,0,19.8,0,19.8,0c0.9,0,1.6-0.5,2.1-1.3
		c0.5-0.8,1.2-6.9,1.2-6.9s11.6,11,33.7,11c25.9,0,40.7-13.1,40.7-58.9C421.3,257.1,397.6,251.1,381.6,251.1"/>
	<path id="path3036" inkscape:connector-curvature="0" fill="#7E8C8C" d="M69.8,254.2H48.5c0,0,0-28.1,0-28.1c0-1.1-0.5-1.6-1.8-1.6
		h-29c-1.1,0-1.7,0.5-1.7,1.6v29.1c0,0-14.6,3.5-15.5,3.8c-1,0.3-1.7,1.2-1.7,2.3v18.3c0,1.3,1.1,2.4,2.3,2.4h14.9c0,0,0,19.1,0,44
		c0,32.7,22.9,35.9,38.4,35.9c7.1,0,15.5-2.3,16.9-2.8c0.8-0.3,1.3-1.2,1.3-2.1l0-20.1c0-1.3-1.1-2.4-2.4-2.4
		c-1.2,0-4.4,0.5-7.7,0.5c-10.5,0-14-4.9-14-11.2c0-6.3,0-41.8,0-41.8h21.3c1.3,0,2.4-1.1,2.4-2.4v-22.9
		C72.2,255.3,71.1,254.2,69.8,254.2"/>
</g>
</svg>
