<?xml version="1.0" encoding="utf-8"?>
<!-- Generator: Adobe Illustrator 19.1.0, SVG Export Plug-In . SVG Version: 6.00 Build 0)  -->
<svg version="1.1" id="Layer_1" xmlns="http://www.w3.org/2000/svg" xmlns:xlink="http://www.w3.org/1999/xlink" x="0px" y="0px"
	 viewBox="0 0 139.4 19.3" style="enable-background:new 0 0 139.4 19.3;" xml:space="preserve">
<style type="text/css">
	.st0{fill:#7F8C8D;}
</style>
<g>
	<g>
		<path class="st0" d="M0,18.9V0.5h13V4H3.9v3.9h8.9v3.5H3.9v7.6H0z"/>
		<path class="st0" d="M14.8,12.3c0-3.8,2.7-7,7-7c4.4,0,7.1,3.2,7.1,7c0,3.8-2.7,7-7.1,7C17.5,19.3,14.8,16.1,14.8,12.3z
			 M25.3,12.3c0-2.1-1.2-3.9-3.4-3.9c-2.2,0-3.4,1.8-3.4,3.9c0,2.1,1.2,3.9,3.4,3.9C24.1,16.2,25.3,14.4,25.3,12.3z"/>
		<path class="st0" d="M40.5,18.9v-1.7c-0.9,1-2.5,2-4.7,2c-2.9,0-4.3-1.6-4.3-4.2V5.6H35v8.1c0,1.9,1,2.5,2.5,2.5
			c1.4,0,2.4-0.7,3-1.5v-9H44v13.3H40.5z"/>
		<path class="st0" d="M56.5,18.9v-8.1c0-1.9-1-2.5-2.5-2.5c-1.4,0-2.5,0.8-3,1.6v9h-3.5V5.6H51v1.7c0.9-1,2.5-2.1,4.7-2.1
			c2.9,0,4.3,1.7,4.3,4.3v9.4H56.5z"/>
		<path class="st0" d="M72.7,18.9v-1.7c-1,1.3-2.5,2-4.1,2c-3.4,0-5.9-2.5-5.9-7c0-4.4,2.5-7,5.9-7c1.6,0,3.1,0.7,4.1,2V0.5h3.5
			v18.4H72.7z M72.7,14.6V9.9c-0.6-0.9-1.9-1.5-3-1.5c-2,0-3.4,1.6-3.4,3.9c0,2.3,1.4,3.9,3.4,3.9C70.8,16.2,72.1,15.5,72.7,14.6z"
			/>
		<path class="st0" d="M87.7,18.9v-1.4c-0.9,1.1-2.5,1.7-4.2,1.7c-2.1,0-4.6-1.4-4.6-4.4c0-3.1,2.5-4.3,4.6-4.3
			c1.8,0,3.3,0.6,4.2,1.6v-1.8c0-1.4-1.2-2.2-2.9-2.2c-1.4,0-2.8,0.5-3.9,1.6l-1.3-2.3c1.6-1.4,3.7-2.1,5.8-2.1c3,0,5.8,1.2,5.8,5.1
			v8.6H87.7z M87.7,15.7v-1.7c-0.6-0.8-1.7-1.2-2.8-1.2c-1.4,0-2.5,0.7-2.5,2c0,1.2,1.1,2,2.5,2C86,16.9,87.1,16.5,87.7,15.7z"/>
		<path class="st0" d="M95.4,15.6v-7h-2.2V5.6h2.2V2h3.5v3.6h2.7v3.1h-2.7v6c0,0.8,0.4,1.5,1.2,1.5c0.5,0,1-0.2,1.2-0.4l0.7,2.7
			c-0.5,0.5-1.5,0.9-2.9,0.9C96.7,19.3,95.4,18,95.4,15.6z"/>
		<path class="st0" d="M103.7,2.1c0-1.2,1-2.1,2.1-2.1c1.2,0,2.1,0.9,2.1,2.1c0,1.2-0.9,2.1-2.1,2.1C104.6,4.2,103.7,3.2,103.7,2.1z
			 M104,18.9V5.6h3.5v13.3H104z"/>
		<path class="st0" d="M110.1,12.3c0-3.8,2.7-7,7-7c4.4,0,7.1,3.2,7.1,7c0,3.8-2.7,7-7.1,7C112.8,19.3,110.1,16.1,110.1,12.3z
			 M120.6,12.3c0-2.1-1.2-3.9-3.4-3.9c-2.2,0-3.4,1.8-3.4,3.9c0,2.1,1.2,3.9,3.4,3.9C119.4,16.2,120.6,14.4,120.6,12.3z"/>
		<path class="st0" d="M135.9,18.9v-8.1c0-1.9-1-2.5-2.5-2.5c-1.4,0-2.5,0.8-3,1.6v9h-3.5V5.6h3.5v1.7c0.9-1,2.5-2.1,4.7-2.1
			c2.9,0,4.3,1.7,4.3,4.3v9.4H135.9z"/>
	</g>
</g>
</svg>
