<?xml version="1.0" encoding="utf-8"?>
<!-- Generator: Adobe Illustrator 18.1.1, SVG Export Plug-In . SVG Version: 6.00 Build 0)  -->
<!DOCTYPE svg PUBLIC "-//W3C//DTD SVG 1.1//EN" "http://www.w3.org/Graphics/SVG/1.1/DTD/svg11.dtd">
<svg version="1.1" xmlns="http://www.w3.org/2000/svg" xmlns:xlink="http://www.w3.org/1999/xlink" x="0px" y="0px"
	 viewBox="0 0 247 61" enable-background="new 0 0 247 61" xml:space="preserve">
<g id="CHASE">
	<path fill="#FFFFFF" d="M28.4,47.1c0,7.4-6.1,13.9-13.9,13.9C7.7,61,0,57.8,0,46.8v-33C0,6,5.8,0,14.3,0c8.1,0,14.1,6,14.1,14.3
		v3.4h-8.8v-2.9c0-3.4-2.1-6.2-5.4-6.2c-4.4,0-5.4,2.9-5.4,7v30.7c0,3.5,1.4,6.2,5.3,6.2c2.4,0,5.5-1.3,5.5-6.1v-2.9h8.8V47.1z"/>
	<path fill="#FFFFFF" d="M35.5,0h8.8v26.1h10.8V0h8.8v61h-8.8V33.8H44.3V61h-8.8V0z"/>
	<path fill="#FFFFFF" d="M81.9,0h7.3l13.7,61h-8.8l-2.6-13.1h-12L77,61h-8.8L81.9,0z M85.6,17.6h-0.2l-4.3,22.1h8.8L85.6,17.6z"/>
	<path fill="#FFFFFF" d="M135.5,17.8h-8.8v-1.9c0-4-1.7-7.2-6.2-7.2c-4.8,0-5.9,3.8-5.9,7.8c0,4.6,0.4,6.2,5,8l6.7,2.6
		c7.7,2.9,9.2,7.7,9.2,16.4c0,10.1-3.8,17.6-15.1,17.6c-8.5,0-15-6.2-15-14.2v-3.2h8.8v2.7c0,3.1,1.7,6.2,6.2,6.2
		c5.9,0,6.4-3.5,6.4-8.9c0-6.4-0.8-7.4-5.1-9.1l-6.3-2.5c-7.6-3-9.5-7.9-9.5-15.4c0-9.1,5-16.4,15-16.4c8.8,0,14.6,6.9,14.6,13.6
		V17.8z"/>
	<path fill="#FFFFFF" d="M142.1,0h26.1v8.2h-17.4v17.9H166v8.2h-15.1v17.9h17.4V61h-26.1V0z"/>
	<path fill="#2ECC71" d="M220,35.2L214.2,0h9.3l2.8,24.2h0.2L237.8,0h9.3l-18.2,35.2L224.2,61h-8.8L220,35.2z"/>
</g>
<g id="RY">
	<path fill="#2ECC71" d="M197.1,0h-8.9H183h-10.8v1h10.6l-0.4,2h-10.2v2h9.9l-0.4,2h-9.5v3h9l-0.4,2h-8.6v4h7.9l-0.4,2h-7.6v5h6.7
		l-0.4,2h-6.3v6h5.3l-0.4,2h-4.9v7h3.7l-0.4,2h-3.4v8h1.9l-0.4,2h-1.6v9h8h0.8l4.6-26h5.2l3.6,26h9.3l-4.5-27.8
		c6.1-3.1,9-8.2,10.3-15.2C211.5,6.1,207.5,0,197.1,0z M200.7,17.7c-1.1,6.1-2.6,9.5-8.7,9.5h-5l3.4-19h4.6
		C201.3,8.2,201.7,11.6,200.7,17.7z"/>
	<path fill="#2ECC71" d="M220,35.2L214.2,0h9.3l2.8,24.2h0.2L237.8,0h9.3l-18.2,35.2L224.2,61h-8.8L220,35.2z"/>
</g>
</svg>
