<?xml version="1.0" encoding="UTF-8"?>
<svg width="259px" height="47px" viewBox="0 0 259 47" version="1.1" xmlns="http://www.w3.org/2000/svg" xmlns:xlink="http://www.w3.org/1999/xlink">
    <!-- Generator: Sketch 44.1 (41455) - http://www.bohemiancoding.com/sketch -->
    <title>Untitled</title>
    <desc>Created with Sketch.</desc>
    <defs></defs>
    <g id="Page-1" stroke="none" stroke-width="1" fill="none" fill-rule="evenodd">
        <path d="M154.67712,22.2066383 L154.67712,36.324766 L149.183883,36.324766 L149.183883,0 L154.67712,0 L154.67712,15.0005106 C155.461872,13.3991409 156.647157,12.1409407 158.23301,11.2258723 C159.818863,10.3108039 161.527308,9.8532766 163.358396,9.8532766 C166.301216,9.8532766 168.67996,10.751991 170.494699,12.5494468 C172.309438,14.3469026 173.216794,16.9450043 173.216794,20.3438298 L173.216794,36.324766 L167.723557,36.324766 L167.723557,22.0105532 C167.723557,17.2064441 165.729009,14.8044255 161.739853,14.8044255 C159.843369,14.8044255 158.192145,15.4335256 156.786131,16.6917447 C155.380117,17.9499637 154.67712,19.7882432 154.67712,22.2066383 Z M202.00724,36.324766 L197.004471,36.324766 L197.004471,32.8442553 C194.846403,35.4260555 191.952673,36.7169362 188.323195,36.7169362 C185.609261,36.7169362 183.361307,35.9489439 181.579266,34.4129362 C179.797225,32.8769285 178.906218,30.8262256 178.906218,28.260766 C178.906218,25.6953063 179.854446,23.7753255 181.75093,22.500766 C183.647414,21.2262064 186.214168,20.5889362 189.45127,20.5889362 L196.56305,20.5889362 L196.56305,19.6085106 C196.56305,16.1443231 194.633897,14.4122553 190.775533,14.4122553 C188.355881,14.4122553 185.838172,15.2946295 183.222332,17.0594043 L180.769994,13.6279149 C183.941701,11.1114768 187.538427,9.8532766 191.560281,9.8532766 C194.633893,9.8532766 197.143427,10.629439 199.088958,12.1817872 C201.034489,13.7341354 202.00724,16.1770046 202.00724,19.5104681 L202.00724,36.324766 Z M196.514003,26.6185532 L196.514003,24.4125957 L190.334112,24.4125957 C186.377654,24.4125957 184.399454,25.6544557 184.399454,28.1382128 C184.399454,29.4127723 184.889917,30.3850179 185.870857,31.0549787 C186.851797,31.7249395 188.216918,32.0599149 189.966261,32.0599149 C191.715604,32.0599149 193.244213,31.569707 194.552133,30.5892766 C195.860053,29.6088462 196.514003,28.2852849 196.514003,26.6185532 Z M225.549683,34.4864681 C223.751293,35.9734542 221.446118,36.7169362 218.63409,36.7169362 C216.737606,36.7169362 214.767581,36.3737907 212.723956,35.6874894 C210.680331,35.0011881 208.873794,34.0371126 207.30429,32.795234 L209.952814,28.530383 C212.993728,30.818054 215.936504,31.9618723 218.78123,31.9618723 C220.023755,31.9618723 221.00468,31.6759178 221.724036,31.104 C222.443392,30.5320822 222.803064,29.8049406 222.803064,28.9225532 C222.803064,27.6153126 221.070096,26.4388137 217.604108,25.3930213 C217.342524,25.2949782 217.146339,25.2296172 217.015547,25.1969362 C211.587679,23.7262905 208.873786,21.2752512 208.873786,17.8437447 C208.873786,15.4253496 209.813839,13.4890285 211.693974,12.0347234 C213.574109,10.5804183 216.018248,9.8532766 219.026464,9.8532766 C222.03468,9.8532766 224.879364,10.7356508 227.5606,12.5004255 L225.500636,16.5691915 C223.375266,15.1639079 221.070092,14.4612766 218.585043,14.4612766 C217.277123,14.4612766 216.214454,14.6982104 215.397004,15.1720851 C214.579554,15.6459598 214.170835,16.3567612 214.170835,17.3045106 C214.170835,18.154217 214.595903,18.775147 215.446051,19.1673191 C216.034615,19.4614483 216.860227,19.7392327 217.922912,20.0006809 C218.985597,20.262129 219.925651,20.5235732 220.743101,20.7850213 C221.560551,21.0464694 222.353465,21.3405941 223.121868,21.6674043 C223.890271,21.9942144 224.715884,22.4517417 225.59873,23.04 C227.364422,24.2165165 228.247254,26.0466259 228.247254,28.530383 C228.247254,31.0141401 227.348073,32.9994819 225.549683,34.4864681 Z M258.754337,25.6871489 L238.301839,25.6871489 C238.432631,27.5826478 239.299115,29.1104623 240.901318,30.2706383 C242.50352,31.4308143 244.33458,32.0108936 246.394554,32.0108936 C249.664354,32.0108936 252.149365,30.9814571 253.849661,28.9225532 L256.988654,32.3540426 C254.176625,35.2626528 250.514504,36.7169362 246.00218,36.7169362 C242.340004,36.7169362 239.225566,35.4995866 236.658773,33.0648511 C234.09198,30.6301155 232.808603,27.3620631 232.808603,23.2605957 C232.808603,19.1591284 234.116503,15.8992461 236.732343,13.4808511 C239.348183,11.062456 242.429924,9.8532766 245.977657,9.8532766 C249.52539,9.8532766 252.541735,10.9235638 255.026783,13.0641702 C257.511831,15.2047767 258.754337,18.154194 258.754337,21.9125106 L258.754337,25.6871489 Z M238.301839,21.3732766 L253.2611,21.3732766 C253.2611,19.1836486 252.574452,17.5006016 251.201136,16.3240851 C249.82782,15.1475686 248.135724,14.5593191 246.124797,14.5593191 C244.11387,14.5593191 242.307333,15.172079 240.705131,16.397617 C239.102928,17.6231551 238.301839,19.2816917 238.301839,21.3732766 Z" id="Chase" fill="#3F51B5"></path>
        <path d="M121.636561,35.0697771 C124.029473,36.1678863 126.71321,36.7169362 129.687798,36.7169362 C134.870431,36.7169362 139.276421,34.7070839 142.905899,30.6873191 L139.178345,26.8636596 C137.608841,28.3343052 136.104756,29.4045924 134.666044,30.0745532 C133.227332,30.744514 131.510712,31.0794894 129.516134,31.0794894 C126.507725,31.0794894 123.881224,30.04971 121.636561,27.9901223 L121.636561,35.0697771 Z M113.362797,26.9990883 C112.229672,24.6484414 111.663115,22.0051789 111.663115,19.0692766 C111.663115,17.5950205 111.808708,16.1918215 112.099895,14.8596763 C112.941831,16.5543609 113.362797,18.7560209 113.362797,21.4646619 L113.362797,26.9990883 Z M116.731389,6.47694114 C116.782734,6.42568529 116.834469,6.3746198 116.886594,6.32374468 C120.368932,2.92491918 124.766747,1.22553191 130.080172,1.22553191 C135.393597,1.22553191 139.832284,3.18636337 143.396366,7.10808511 L139.717859,11.1278298 C138.082959,9.55914109 136.538002,8.46434353 135.082941,7.84340426 C133.62788,7.22246498 131.919435,6.912 129.957555,6.912 C126.491567,6.912 123.581488,8.03130796 121.227232,10.2699574 C120.882775,10.5975004 120.563517,10.938335 120.269458,11.2924618 C119.60253,9.7178525 118.691583,8.35856834 117.536615,7.21460047 C117.275934,6.95640135 117.007525,6.71051492 116.731389,6.47694114 Z" id="Combined-Shape" fill="#3F51B5"></path>
        <path d="M27.36809,13.1867234 C27.36809,18.8405389 24.8994279,22.4027161 19.9620298,23.8733617 L28.9375862,36.324766 L21.5805727,36.324766 L13.3897644,24.804766 L5.78751723,24.804766 L5.78751723,36.324766 L0,36.324766 L0,2.05889362 L12.7521566,2.05889362 C17.9838368,2.05889362 21.7277017,2.94126777 23.9838638,4.70604255 C26.2400258,6.47081733 27.36809,9.29768268 27.36809,13.1867234 Z M19.6677492,18.0398298 C20.8448773,17.0267183 21.4334325,15.4008623 21.4334325,13.1622128 C21.4334325,10.9235633 20.8285285,9.38757863 19.6187025,8.55421277 C18.4088764,7.7208469 16.2508408,7.30417021 13.1445307,7.30417021 L5.78751723,7.30417021 L5.78751723,19.5594894 L12.9973904,19.5594894 C16.2671905,19.5594894 18.4906212,19.0529412 19.6677492,18.0398298 Z M38.2074231,46.7172766 C35.820469,46.7172766 33.6624333,45.8512427 31.7332513,44.1191489 L34.2346358,39.6582128 C35.3790659,40.7366862 36.5643506,41.2759149 37.7905257,41.2759149 C39.0167007,41.2759149 40.0139748,40.8347278 40.7823778,39.9523404 C41.5507808,39.069953 41.9349766,38.1058776 41.9349766,37.0600851 C41.9349766,36.6025509 38.4199942,27.6644275 31.389924,10.2454468 L37.2755347,10.2454468 L45.0739689,29.4617872 L52.8724032,10.2454468 L58.7580139,10.2454468 L46.1039508,41.2268936 C45.3518968,42.9263064 44.272879,44.2662079 42.8668649,45.2466383 C41.4608509,46.2270687 39.9077191,46.7172766 38.2074231,46.7172766 Z M83.8699531,36.324766 L78.867184,36.324766 L78.867184,32.8442553 C76.7091159,35.4260555 73.8153862,36.7169362 70.1859081,36.7169362 C67.471974,36.7169362 65.2240202,35.9489439 63.4419791,34.4129362 C61.6599381,32.8769285 60.7689309,30.8262256 60.7689309,28.260766 C60.7689309,25.6953063 61.7171587,23.7753255 63.6136428,22.500766 C65.5101268,21.2262064 68.0768814,20.5889362 71.3139835,20.5889362 L78.4257632,20.5889362 L78.4257632,19.6085106 C78.4257632,16.1443231 76.49661,14.4122553 72.6382459,14.4122553 C70.2185939,14.4122553 67.7008856,15.2946295 65.0850455,17.0594043 L62.6327077,13.6279149 C65.8044138,11.1114768 69.4011399,9.8532766 73.422994,9.8532766 C76.4966061,9.8532766 79.0061401,10.629439 80.9516711,12.1817872 C82.8972022,13.7341354 83.8699531,16.1770046 83.8699531,19.5104681 L83.8699531,36.324766 Z M78.3767164,26.6185532 L78.3767164,24.4125957 L72.1968251,24.4125957 C68.240367,24.4125957 66.2621676,25.6544557 66.2621676,28.1382128 C66.2621676,29.4127723 66.7526303,30.3850179 67.7335703,31.0549787 C68.7145103,31.7249395 70.0796314,32.0599149 71.8289745,32.0599149 C73.5783175,32.0599149 75.1069261,31.569707 76.4148462,30.5892766 C77.7227662,29.6088462 78.3767164,28.2852849 78.3767164,26.6185532 Z M97.0144838,22.2066383 L97.0144838,36.324766 L91.5212471,36.324766 L91.5212471,10.2454468 L97.0144838,10.2454468 L97.0144838,15.0005106 C97.8973298,13.3991409 99.1153121,12.1409407 100.668467,11.2258723 C102.221622,10.3108039 103.89737,9.8532766 105.69576,9.8532766 C108.63858,9.8532766 111.017324,10.751991 112.832063,12.5494468 C114.646802,14.3469026 115.554158,16.9450043 115.554158,20.3438298 L115.554158,36.324766 L110.060921,36.324766 L110.060921,22.0105532 C110.060921,17.2064441 108.066373,14.8044255 104.077217,14.8044255 C102.180733,14.8044255 100.529508,15.4335256 99.1234943,16.6917447 C97.7174802,17.9499637 97.0144838,19.7882432 97.0144838,22.2066383 Z" id="Ryan" fill="#25292D"></path>
    </g>
</svg>