<?xml version="1.0" encoding="UTF-8"?>
<svg width="259px" height="48px" viewBox="0 0 259 48" version="1.1" xmlns="http://www.w3.org/2000/svg" xmlns:xlink="http://www.w3.org/1999/xlink">
    <!-- Generator: Sketch 44.1 (41455) - http://www.bohemiancoding.com/sketch -->
    <title>Untitled</title>
    <desc>Created with Sketch.</desc>
    <defs></defs>
    <g id="Page-1" stroke="none" stroke-width="1" fill="none" fill-rule="evenodd">
        <g id="Logo-header">
            <path d="M154.817903,22.6478298 L154.817903,36.7659574 L149.33719,36.7659574 L149.33719,0.441191489 L154.817903,0.441191489 L154.817903,15.4417021 C155.600866,13.8403324 156.783448,12.5821322 158.365686,11.6670638 C159.947923,10.7519954 161.652473,10.2944681 163.479387,10.2944681 C166.415497,10.2944681 168.788818,11.1931825 170.59942,12.9906383 C172.410021,14.7880941 173.315309,17.3861958 173.315309,20.7850213 L173.315309,36.7659574 L167.834596,36.7659574 L167.834596,22.4517447 C167.834596,17.6476356 165.844595,15.245617 161.864534,15.245617 C159.972373,15.245617 158.324914,15.8747171 156.922105,17.1329362 C155.519297,18.3911552 154.817903,20.2294347 154.817903,22.6478298 Z M202.040116,36.7659574 L197.048753,36.7659574 L197.048753,33.2854468 C194.895605,35.867247 192.008472,37.1581277 188.387269,37.1581277 C185.679522,37.1581277 183.436694,36.3901353 181.658715,34.8541277 C179.880737,33.31812 178.991761,31.2674171 178.991761,28.7019574 C178.991761,26.1364978 179.937827,24.216517 181.829988,22.9419574 C183.722148,21.6673979 186.283051,21.0301277 189.512772,21.0301277 L196.608338,21.0301277 L196.608338,20.0497021 C196.608338,16.5855146 194.683583,14.8534468 190.834016,14.8534468 C188.41988,14.8534468 185.907912,15.735821 183.298036,17.5005957 L180.851289,14.0691064 C184.015764,11.5526683 187.60429,10.2944681 191.616975,10.2944681 C194.683579,10.2944681 197.187392,11.0706305 199.128487,12.6229787 C201.069583,14.1753269 202.040116,16.6181961 202.040116,19.9516596 L202.040116,36.7659574 Z M196.559403,27.0597447 L196.559403,24.8537872 L190.393601,24.8537872 C186.446163,24.8537872 184.472474,26.0956472 184.472474,28.5794043 C184.472474,29.8539638 184.961819,30.8262094 185.940522,31.4961702 C186.919226,32.166131 188.281235,32.5011064 190.026589,32.5011064 C191.771944,32.5011064 193.297068,32.0108985 194.602006,31.0304681 C195.906944,30.0500377 196.559403,28.7264764 196.559403,27.0597447 Z M225.528885,34.9276596 C223.734595,36.4146457 221.434676,37.1581277 218.629059,37.1581277 C216.736899,37.1581277 214.771365,36.8149822 212.7324,36.1286809 C210.693434,35.4423795 208.891015,34.4783041 207.325089,33.2364255 L209.967576,28.9715745 C213.001557,31.2592455 215.937624,32.4030638 218.775864,32.4030638 C220.015555,32.4030638 220.994244,32.1171092 221.71196,31.5451915 C222.429676,30.9732737 222.788529,30.2461321 222.788529,29.3637447 C222.788529,28.0565041 221.059512,26.8800052 217.601426,25.8342128 C217.340438,25.7361697 217.1447,25.6708087 217.014206,25.6381277 C211.598713,24.167482 208.891007,21.7164427 208.891007,18.2849362 C208.891007,15.8665411 209.828917,13.93022 211.704766,12.4759149 C213.580614,11.0216097 216.019181,10.2944681 219.020539,10.2944681 C222.021896,10.2944681 224.860094,11.1768422 227.535218,12.941617 L225.47995,17.010383 C223.359426,15.6050994 221.059507,14.9024681 218.580124,14.9024681 C217.275186,14.9024681 216.21494,15.1394019 215.399354,15.6132766 C214.583767,16.0871513 214.17598,16.7979527 214.17598,17.7457021 C214.17598,18.5954085 214.600079,19.2163385 215.448288,19.6085106 C216.035511,19.9026398 216.85924,20.1804242 217.919503,20.4418723 C218.979765,20.7033205 219.917675,20.9647647 220.733262,21.2262128 C221.548848,21.4876609 222.339955,21.7817856 223.106606,22.1085957 C223.873257,22.4354059 224.696987,22.8929332 225.57782,23.4811915 C227.339487,24.657708 228.220307,26.4878174 228.220307,28.9715745 C228.220307,31.4553316 227.323175,33.4406734 225.528885,34.9276596 Z M258.657837,26.1283404 L238.251969,26.1283404 C238.382462,28.0238393 239.246971,29.5516538 240.84552,30.7118298 C242.444069,31.8720058 244.270955,32.4520851 246.326233,32.4520851 C249.588578,32.4520851 252.067924,31.4226486 253.764343,29.3637447 L256.896179,32.795234 C254.090562,35.7038443 250.43679,37.1581277 245.934753,37.1581277 C242.280927,37.1581277 239.173589,35.9407781 236.612648,33.5060426 C234.051707,31.071307 232.771256,27.8032545 232.771256,23.7017872 C232.771256,19.6003199 234.076174,16.3404376 236.686051,13.9220426 C239.295927,11.5036475 242.370641,10.2944681 245.910286,10.2944681 C249.449931,10.2944681 252.459399,11.3647553 254.938782,13.5053617 C257.418164,15.6459681 258.657837,18.5953855 258.657837,22.3537021 L258.657837,26.1283404 Z M238.251969,21.8144681 L253.177124,21.8144681 C253.177124,19.6248401 252.492042,17.9417931 251.121857,16.7652766 C249.751672,15.5887601 248.063433,15.0005106 246.057091,15.0005106 C244.050748,15.0005106 242.24833,15.6132705 240.64978,16.8388085 C239.051231,18.0643466 238.251969,19.7228832 238.251969,21.8144681 Z" id="Chase" fill="#3F51B5"></path>
            <path d="M121.852672,35.5109686 C124.240128,36.6090778 126.917747,37.1581277 129.885553,37.1581277 C135.056371,37.1581277 139.452315,35.1482754 143.073518,31.1285106 L139.354463,27.3048511 C137.788538,28.7754967 136.287881,29.8457839 134.852449,30.5157447 C133.417017,31.1857055 131.704312,31.5206809 129.714281,31.5206809 C126.712731,31.5206809 124.092218,30.4909015 121.852672,28.4313138 L121.852672,35.5109686 Z M113.597771,27.4402798 C112.46723,25.0896329 111.901964,22.4463704 111.901964,19.5104681 C111.901964,18.036212 112.047225,16.6330129 112.337748,15.3008678 C113.177765,16.9955524 113.597771,19.1972124 113.597771,21.9058534 L113.597771,27.4402798 Z M116.958684,6.91813263 C117.009912,6.86687678 117.061529,6.81581129 117.113535,6.76493617 C120.587933,3.36611067 124.975722,1.6667234 130.277033,1.6667234 C135.578344,1.6667234 140.006911,3.62755486 143.562868,7.5492766 L139.892748,11.5690213 C138.261575,10.0003326 136.72014,8.90553502 135.268396,8.28459574 C133.816653,7.66365647 132.112103,7.35319149 130.154695,7.35319149 C126.696609,7.35319149 123.793165,8.47249945 121.444277,10.7111489 C121.100605,11.0386918 120.782074,11.3795265 120.488686,11.7336533 C119.823278,10.159044 118.914408,8.79975983 117.762074,7.65579196 C117.501986,7.39759284 117.23419,7.1517064 116.958684,6.91813263 Z" id="Combined-Shape" fill="#3F51B5"></path>
            <path d="M27.7991214,13.6279149 C27.7991214,19.2817304 25.3360876,22.8439075 20.4099461,24.3145532 L29.3650394,36.7659574 L22.024799,36.7659574 L13.8526647,25.2459574 L6.26774969,25.2459574 L6.26774969,36.7659574 L0.493427269,36.7659574 L0.493427269,2.50008511 L13.2165106,2.50008511 C18.4362631,2.50008511 22.1715926,3.38245926 24.4226109,5.14723404 C26.6736292,6.91200882 27.7991214,9.73887417 27.7991214,13.6279149 Z M20.1163365,18.4810213 C21.2907808,17.4679098 21.8779942,15.8420537 21.8779942,13.6034043 C21.8779942,11.3647548 21.2744694,9.82877012 20.0674016,8.99540426 C18.8603338,8.16203839 16.7072181,7.7453617 13.6079901,7.7453617 L6.26774969,7.7453617 L6.26774969,20.0006809 L13.4611852,20.0006809 C16.7235306,20.0006809 18.9418922,19.4941327 20.1163365,18.4810213 Z M38.6137422,47.1584681 C36.2322301,47.1584681 34.0791145,46.2924342 32.1543307,44.5603404 L34.6500124,40.0994043 C35.7918333,41.1778777 36.9744158,41.7171064 38.1977953,41.7171064 C39.4211748,41.7171064 40.4161752,41.2759193 41.1828264,40.3935319 C41.9494775,39.5111445 42.3327973,38.5470691 42.3327973,37.5012766 C42.3327973,37.0437424 38.8258287,28.105619 31.8117862,10.6866383 L37.6839785,10.6866383 L45.4646332,29.9029787 L53.245288,10.6866383 L59.1174803,10.6866383 L46.4922669,41.6680851 C45.7419275,43.3674979 44.6653696,44.7073994 43.2625611,45.6878298 C41.8597526,46.6682602 40.3101618,47.1584681 38.6137422,47.1584681 Z M84.1721674,36.7659574 L79.180804,36.7659574 L79.180804,33.2854468 C77.027656,35.867247 74.1405237,37.1581277 70.5193203,37.1581277 C67.8115737,37.1581277 65.5687449,36.3901353 63.7907667,34.8541277 C62.0127885,33.31812 61.1238127,31.2674171 61.1238127,28.7019574 C61.1238127,26.1364978 62.0698786,24.216517 63.962039,22.9419574 C65.8541993,21.6673979 68.415102,21.0301277 71.6448239,21.0301277 L78.7403896,21.0301277 L78.7403896,20.0497021 C78.7403896,16.5855146 76.8156347,14.8534468 72.9660671,14.8534468 C70.5519316,14.8534468 68.0399633,15.735821 65.430087,17.5005957 L62.9833402,14.0691064 C66.1478152,11.5526683 69.7363413,10.2944681 73.7490261,10.2944681 C76.8156307,10.2944681 79.3194433,11.0706305 81.2605387,12.6229787 C83.2016342,14.1753269 84.1721674,16.6181961 84.1721674,19.9516596 L84.1721674,36.7659574 Z M78.6914546,27.0597447 L78.6914546,24.8537872 L72.5256527,24.8537872 C68.5782148,24.8537872 66.6045255,26.0956472 66.6045255,28.5794043 C66.6045255,29.8539638 67.09387,30.8262094 68.0725736,31.4961702 C69.0512772,32.166131 70.4132859,32.5011064 72.1586407,32.5011064 C73.9039955,32.5011064 75.429119,32.0108985 76.7340572,31.0304681 C78.0389953,30.0500377 78.6914546,28.7264764 78.6914546,27.0597447 Z M97.2867302,22.6478298 L97.2867302,36.7659574 L91.8060174,36.7659574 L91.8060174,10.6866383 L97.2867302,10.6866383 L97.2867302,15.4417021 C98.1675635,13.8403324 99.3827689,12.5821322 100.932383,11.6670638 C102.481997,10.7519954 104.153924,10.2944681 105.948214,10.2944681 C108.884325,10.2944681 111.257645,11.1931825 113.068247,12.9906383 C114.878849,14.7880941 115.784136,17.3861958 115.784136,20.7850213 L115.784136,36.7659574 L110.303423,36.7659574 L110.303423,22.4517447 C110.303423,17.6476356 108.313422,15.245617 104.333361,15.245617 C102.441201,15.245617 100.793741,15.8747171 99.3909324,17.1329362 C97.9881239,18.3911552 97.2867302,20.2294347 97.2867302,22.6478298 Z" id="Ryan" fill="#263238"></path>
        </g>
    </g>
</svg>