<?xml version="1.0" encoding="UTF-8"?>
<svg width="22px" height="22px" viewBox="0 0 22 22" version="1.1" xmlns="http://www.w3.org/2000/svg" xmlns:xlink="http://www.w3.org/1999/xlink">
    <!-- Generator: Sketch 44.1 (41455) - http://www.bohemiancoding.com/sketch -->
    <title>Untitled</title>
    <desc>Created with Sketch.</desc>
    <defs></defs>
    <g id="Page-1" stroke="none" stroke-width="1" fill="none" fill-rule="evenodd">
        <path d="M16.7995495,16 C17.0923438,16.330332 17.4639617,16.4954955 17.9144144,16.4954955 C18.4399426,16.4954955 18.9091571,16.27778 19.3220721,15.8423423 C19.734987,15.4069047 20.0578066,14.7912953 20.2905405,13.9954955 C20.5232744,13.1996957 20.6396396,12.2762815 20.6396396,11.2252252 C20.6396396,9.4384295 20.2417457,7.82808525 19.4459459,6.39414414 C18.6501462,4.96020304 17.5427999,3.83784189 16.1238739,3.02702703 C14.7049479,2.21621216 13.102111,1.81081081 11.3153153,1.81081081 C9.5135045,1.81081081 7.88814538,2.21621216 6.43918919,3.02702703 C4.990233,3.83784189 3.85285698,4.96020304 3.02702703,6.39414414 C2.20119707,7.82808525 1.78828829,9.43092207 1.78828829,11.2027027 C1.78828829,12.8994079 2.18618221,14.4309241 2.98198198,15.7972973 C3.77778176,17.1636705 4.87762061,18.2334796 6.28153153,19.0067568 C7.68544245,19.7800339 9.26575698,20.1666667 11.0225225,20.1666667 C11.6681714,20.1666667 12.3776238,20.0653163 13.1509009,19.8626126 C13.924178,19.6599089 14.5810784,19.4009025 15.1216216,19.0855856 L15.4594595,19.8063063 C14.8738709,20.1516534 14.1606649,20.4369358 13.3198198,20.6621622 C12.4789748,20.8873885 11.7132167,21 11.0225225,21 C9.13062117,21 7.41892658,20.5758301 5.88738739,19.7274775 C4.3558482,18.8791249 3.15841273,17.7117191 2.29504505,16.2252252 C1.43167736,14.7387313 1,13.0645739 1,11.2027027 C1,9.26575608 1.44669223,7.52027804 2.34009009,5.96621622 C3.23348795,4.41215439 4.46470687,3.19595034 6.03378378,2.31756757 C7.6028607,1.4391848 9.3633536,1 11.3153153,1 C13.2372468,1 14.9639563,1.4391848 16.4954955,2.31756757 C18.0270347,3.19595034 19.2282239,4.41215439 20.0990991,5.96621622 C20.9699743,7.52027804 21.4054054,9.27326351 21.4054054,11.2252252 C21.4054054,12.4414475 21.2590105,13.5037492 20.9662162,14.4121622 C20.673422,15.3205751 20.2567595,16.02252 19.7162162,16.518018 C19.175673,17.013516 18.5450486,17.2612613 17.8243243,17.2612613 C17.2087056,17.2612613 16.6906928,17.0510532 16.2702703,16.6306306 C15.8498477,16.2102081 15.6246248,15.6396432 15.5945946,14.9189189 L15.5945946,13.7477477 C15.159157,14.6936984 14.5060104,15.4444417 13.6351351,16 C12.7642599,16.5555583 11.7732788,16.8333333 10.6621622,16.8333333 C9.61110586,16.8333333 8.65766194,16.5893418 7.8018018,16.1013514 C6.94594167,15.6133609 6.27402646,14.9339383 5.78603604,14.0630631 C5.29804561,13.1921878 5.05405405,12.2087142 5.05405405,11.1126126 C5.05405405,10.0315261 5.29053818,9.05180619 5.76351351,8.17342342 C6.23648885,7.29504065 6.89714291,6.60811059 7.7454955,6.11261261 C8.59384809,5.61711464 9.54353829,5.36936937 10.5945946,5.36936937 C11.7207264,5.36936937 12.7229686,5.65089809 13.6013514,6.21396396 C14.4797341,6.77702984 15.0990973,7.49398964 15.4594595,8.36486486 L15.4594595,5.45945946 L16.3603604,5.45945946 L16.3603604,14.6486486 C16.3603604,15.2192221 16.5067553,15.669668 16.7995495,16 Z M8.28603604,6.91216216 C7.57281926,7.32507714 7.01351554,7.89939572 6.60810811,8.63513514 C6.20270068,9.37087455 6,10.1891847 6,11.0900901 C6,12.0060106 6.20270068,12.8280744 6.60810811,13.5563063 C7.01351554,14.2845382 7.57281926,14.8588568 8.28603604,15.2792793 C8.99925282,15.6997018 9.8063018,15.9099099 10.7072072,15.9099099 C11.6231277,15.9099099 12.4376841,15.7034555 13.1509009,15.2905405 C13.8641177,14.8776256 14.4234214,14.303307 14.8288288,13.5675676 C15.2342363,12.8318282 15.4369369,12.0060106 15.4369369,11.0900901 C15.4369369,10.1891847 15.2342363,9.37087455 14.8288288,8.63513514 C14.4234214,7.89939572 13.860364,7.32507714 13.1396396,6.91216216 C12.4189153,6.49924718 11.6081126,6.29279279 10.7072072,6.29279279 C9.8063018,6.29279279 8.99925282,6.49924718 8.28603604,6.91216216 Z" id="@" stroke="#FFFFFF" stroke-width="0.35" fill="#FFFFFF"></path>
    </g>
</svg>