<?xml version="1.0" encoding="UTF-8"?>
<svg width="27px" height="26px" viewBox="0 0 27 26" version="1.1" xmlns="http://www.w3.org/2000/svg" xmlns:xlink="http://www.w3.org/1999/xlink">
    <!-- Generator: Sketch 44.1 (41455) - http://www.bohemiancoding.com/sketch -->
    <title>Untitled</title>
    <desc>Created with Sketch.</desc>
    <defs></defs>
    <g id="Page-1" stroke="none" stroke-width="1" fill="none" fill-rule="evenodd">
        <path d="M13.3025535,1 C6.50925991,1 1,6.5085046 1,13.3040642 C1,18.7400586 4.52505018,23.3512503 9.41419735,24.9781965 C10.0297782,25.0914936 10.2541065,24.7115707 10.2541065,24.385275 C10.2541065,24.0937239 10.2435321,23.3195271 10.2374895,22.2930554 C6.81516206,23.0362843 6.09308193,20.6434498 6.09308193,20.6434498 C5.5333943,19.2219489 4.726719,18.8435366 4.726719,18.8435366 C3.60960968,18.0806696 4.81131417,18.0957758 4.81131417,18.0957758 C6.04625247,18.1826369 6.69582246,19.3639479 6.69582246,19.3639479 C7.79329362,21.2439244 9.57583453,20.7008536 10.2767659,20.3858877 C10.3885523,19.5912974 10.7065395,19.048982 11.0577605,18.7415693 C8.32578995,18.4311352 5.45333102,17.3752063 5.45333102,12.6605367 C5.45333102,11.3175885 5.93295537,10.2186067 6.71999251,9.35905943 C6.59309976,9.04787008 6.17087927,7.79631488 6.84084274,6.10290101 C6.84084274,6.10290101 7.8733569,5.7720735 10.2238939,7.3642753 C11.2050467,7.09085165 12.2579543,6.95489514 13.3040642,6.94960794 C14.3494187,6.95489514 15.401571,7.09085165 16.3842344,7.3642753 C18.7332608,5.7720735 19.7642643,6.10290101 19.7642643,6.10290101 C20.4357384,7.79631488 20.0135179,9.04787008 19.8873805,9.35905943 C20.6759283,10.2186067 21.1517761,11.3175885 21.1517761,12.6605367 C21.1517761,17.3872913 18.2747852,18.4273587 15.5345062,18.7317502 C15.9756096,19.1116731 16.3691282,19.8624551 16.3691282,21.0105323 C16.3691282,22.6548508 16.3540219,23.9819374 16.3540219,24.385275 C16.3540219,24.7145919 16.5760842,25.0975361 17.1999735,24.9774412 C22.0853441,23.3467184 25.607373,18.738548 25.607373,13.3040642 C25.607373,6.5085046 20.0981131,1 13.3025535,1" id="Fill-3" stroke="#FFFFFF"></path>
    </g>
</svg>