<?xml version="1.0" encoding="UTF-8"?>
<svg width="23px" height="22px" viewBox="0 0 23 22" version="1.1" xmlns="http://www.w3.org/2000/svg" xmlns:xlink="http://www.w3.org/1999/xlink">
    <!-- Generator: Sketch 44.1 (41455) - http://www.bohemiancoding.com/sketch -->
    <title>Untitled</title>
    <desc>Created with Sketch.</desc>
    <defs></defs>
    <g id="Page-1" stroke="none" stroke-width="1" fill="none" fill-rule="evenodd">
        <path d="M5.33043478,3.17391304 C5.33043478,4.37478261 4.36521739,5.34782609 3.17391304,5.34782609 C1.9826087,5.34782609 1.0173913,4.37478261 1.0173913,3.17391304 C1.0173913,1.97391304 1.9826087,1 3.17391304,1 C4.36521739,1 5.33043478,1.97391304 5.33043478,3.17391304 Z M5.34782609,7.08695652 L1,7.08695652 L1,21 L5.34782609,21 L5.34782609,7.08695652 Z M12.2886957,7.08695652 L7.96869565,7.08695652 L7.96869565,21 L12.2895652,21 L12.2895652,13.6965217 C12.2895652,9.63565217 17.5321739,9.30347826 17.5321739,13.6965217 L17.5321739,21 L21.8695652,21 L21.8695652,12.1904348 C21.8695652,5.33826087 14.1113043,5.58782609 12.2886957,8.96086957 L12.2886957,7.08695652 Z" id="Shape" stroke="#FFFFFF" fill-rule="nonzero"></path>
    </g>
</svg>