<?xml version="1.0" encoding="utf-8"?>
<!-- Generator: Adobe Illustrator 18.0.0, SVG Export Plug-In . SVG Version: 6.00 Build 0)  -->
<!DOCTYPE svg PUBLIC "-//W3C//DTD SVG 1.1//EN" "http://www.w3.org/Graphics/SVG/1.1/DTD/svg11.dtd">
<svg version="1.1" id="Layer_2" xmlns="http://www.w3.org/2000/svg" xmlns:xlink="http://www.w3.org/1999/xlink" x="0px" y="0px"
	 viewBox="0 0 247.041 61" enable-background="new 0 0 247.041 61" xml:space="preserve">
<path fill="#5B5B5B" d="M28.379,47.098C28.379,54.513,22.274,61,14.448,61C7.74,61,0,57.798,0,46.845V13.818
	C0,5.982,5.762,0,14.276,0c8.084,0,14.104,5.982,14.104,14.323v3.37h-8.772v-2.864c0-3.371-2.064-6.235-5.418-6.235
	c-4.386,0-5.418,2.949-5.418,6.993v30.669c0,3.454,1.376,6.15,5.332,6.15c2.408,0,5.504-1.348,5.504-6.066v-2.949h8.772V47.098z"/>
<path fill="#5B5B5B" d="M35.518,0h8.772v26.13h10.835V0h8.772v61h-8.772V33.841H44.29V61h-8.772V0z"/>
<path fill="#5B5B5B" d="M81.871,0h7.31l13.674,61h-8.772l-2.58-13.108H79.549L76.969,61h-8.772L81.871,0z M85.569,17.563h-0.172
	l-4.3,22.104h8.772L85.569,17.563z"/>
<path fill="#5B5B5B" d="M135.535,17.777h-8.772V15.84c0-3.96-1.72-7.247-6.191-7.247c-4.816,0-5.934,3.792-5.934,7.752
	c0,4.634,0.431,6.235,4.988,8.004l6.708,2.611c7.74,2.865,9.202,7.667,9.202,16.43c0,10.11-3.784,17.609-15.136,17.609
	c-8.515,0-14.964-6.15-14.964-14.239V43.56h8.771v2.696c0,3.117,1.72,6.15,6.192,6.15c5.934,0,6.363-3.455,6.363-8.931
	c0-6.403-0.773-7.415-5.073-9.099l-6.278-2.528c-7.567-3.033-9.546-7.919-9.546-15.418c0-9.1,4.988-16.43,15.05-16.43
	c8.771,0,14.62,6.909,14.62,13.565V17.777z"/>
<path fill="#5B5B5B" d="M142.071,0h26.144v8.225h-17.372V26.13h15.136v8.225h-15.136v17.906h17.372V61h-26.144V0z"/>
<path fill="#6F6F6F" d="M220.019,35.212L214.189,0h9.287l2.777,24.246h0.172L237.751,0h9.289l-18.25,35.212L224.244,61h-8.771
	L220.019,35.212z"/>
<g>
	<path fill="#6F6F6F" d="M182.97,0h14.104c10.406,0,14.408,6.084,12.323,17.906c-1.239,7.025-4.124,12.166-10.257,15.25L203.69,61
		h-9.288l-3.578-26.044h-5.246L180.986,61h-8.771L182.97,0z M186.938,27.245h4.988c6.105,0,7.655-3.427,8.729-9.51
		c1.087-6.168,0.645-9.509-5.805-9.509h-4.559L186.938,27.245z"/>
	<rect x="172.214" y="52" fill="#6F6F6F" width="8" height="9"/>
	<rect x="172.214" y="42" fill="#6F6F6F" width="9" height="8"/>
	<rect x="172.214" y="33" fill="#6F6F6F" width="10" height="7"/>
	<rect x="172.214" y="25" fill="#6F6F6F" width="11" height="6"/>
	<rect x="172.214" y="18" fill="#6F6F6F" width="12" height="5"/>
	<rect x="172.214" y="12" fill="#6F6F6F" width="13" height="4"/>
	<rect x="172.214" y="3" fill="#6F6F6F" width="15" height="2"/>
	<rect x="172.214" y="7" fill="#6F6F6F" width="14" height="3"/>
	<rect x="172.214" y="0" fill="#6F6F6F" width="16" height="1"/>
</g>
</svg>
