<?xml version="1.0" encoding="utf-8"?>
<!-- Generator: Adobe Illustrator 18.0.0, SVG Export Plug-In . SVG Version: 6.00 Build 0)  -->
<!DOCTYPE svg PUBLIC "-//W3C//DTD SVG 1.1//EN" "http://www.w3.org/Graphics/SVG/1.1/DTD/svg11.dtd">
<svg version="1.1" id="Logo" xmlns="http://www.w3.org/2000/svg" xmlns:xlink="http://www.w3.org/1999/xlink" x="0px" y="0px"
	 viewBox="0 0 284.289 131.197" enable-background="new 0 0 284.289 131.197" xml:space="preserve">
<path fill="#595D60" d="M72.109,35.295c-1.584-0.504-2.304,2.88-2.664,3.672h-1.152c0,0.864,1.008,1.008,1.656,1.224
	c-0.36,0.792-1.152,1.008-2.016,0.936l-2.016,6.337l0.864-0.432l1.512-4.608l0.432,1.152l-1.008,3.601
	c-0.36,1.296-1.008,2.304-1.728,2.304c-1.008,0-0.792,1.296-1.08,2.232l-0.504-0.648l-0.432,0.432c0.36,0.72,1.08,1.656,1.08,2.52
	c0,1.656-1.8,4.752-3.024,7.561l-1.224-1.08c-0.144,0.144-0.36,0.216-0.576,0.288c-0.216,0.072-0.432,0.072-0.72,0.072
	c-2.736,0-5.904-4.608-5.904-7.201c0-2.952,5.904-13.537,8.497-19.226l-0.216-0.576c-2.088,1.296-7.2,2.952-7.417,5.185
	L41.722,49.913c-1.224-1.656-2.088-0.432-3.6-0.432c-1.872,0-2.952-3.528-3.672-5.905c1.08-3.528,2.88-7.92,4.608-11.953l-0.72-1.44
	c-2.88,2.376-5.544,6.049-7.561,9.217c-3.024,4.896-7.128,12.457-10.225,18.074c-0.72-0.288-0.144-1.512,0.36-2.521
	c-0.792-0.216-1.368,1.008-1.872,2.376c-0.504,1.44-0.36,3.024,0.072,4.032c-0.36,0.288-0.72,0.432-1.152,0.432
	c-2.953,0-7.057-5.256-7.057-6.841c0-1.728,6.048-11.305,9.361-16.489c3.744-5.977,7.417-11.521,12.313-15.193
	c1.368-2.088,4.32-6.265,6.913-6.265c4.032,0,5.472,5.041,7.128,9.073c-0.36,1.873-0.144,4.608,0.576,6.265
	c2.304-1.584,5.185-4.032,7.489-5.328c0.504-0.288,1.152,0.144,1.512,0.72c0.576-0.432,1.008-1.224,0.648-2.016
	c3.816-2.376,8.641-4.824,10.225-4.824c1.368,0,3.096,1.224,4.608,2.376c1.224,2.88,2.592,5.256,2.592,7.633
	C74.269,32.991,73.406,35.727,72.109,35.295z M21.633,52.505l-0.792,1.368l0.432,0.432l0.792-1.512L21.633,52.505z M21.993,51.713
	l0.432,0.36c0.36-0.72,0.72-1.008,0.216-1.368L21.993,51.713z M64.045,47.825c0,0.36,0.072,0.72,0.072,0.864
	c0.576-0.432,0.936-1.8,0.288-2.088C64.189,46.816,64.116,47.321,64.045,47.825z M67.645,39.832h-0.072
	c-1.008,1.44-2.376,3.312-2.376,5.544c0,0.432,0.072,0.792,0.144,1.224h0.072L67.645,39.832z M68.797,35.8l-0.792,2.232
	c0.792-0.576,1.44-1.296,1.224-1.656L68.797,35.8z M69.733,35.295l0.864-2.232c-1.008,0-1.08,0.936-1.656,2.232H69.733z
	 M70.813,38.968h-0.792c0.288-0.576,1.008-1.296,1.368-1.44L70.813,38.968z"/>
<path fill="#595D60" d="M102.779,52.649l-1.008-0.936c-0.72,0.576-1.944,1.44-0.576,3.168c-0.576,0.864-1.152,1.944-1.728,3.096
	c-0.648,0.288-1.224,0.72-1.728,1.224l0.576,1.44l-0.288,0.504l-0.864-1.152c-1.152,1.584-1.944,3.816-2.304,5.977l1.368,0.648
	c-0.288,1.152-0.432,2.304-0.504,3.24c-0.576,0.288-1.512,0.432-2.232,0.432c-2.376,0-4.176-0.864-5.329-1.872
	c-0.072-0.72-0.504-1.008-1.008-1.008c-0.576-0.72-0.792-1.296-0.72-1.512c1.152-6.049,5.761-12.745,8.713-21.026l-0.504-0.432
	c-2.232,0-4.033-0.432-5.977-1.368c-0.288,0.432-0.72,0.576-1.296,0l-4.752-4.68h-0.864C77.36,31.983,80.6,24.495,84.561,17.87
	l1.008,0.432c0.144-0.36,0.288-0.648,0.432-0.792c0.216-0.216,0.432-0.36,0.648-0.36c0.432,0,4.032,1.512,5.833,2.304l1.152,2.016
	c-0.648,4.104-3.24,6.121-3.672,10.297l-1.08,0.864c-0.504,3.024-0.216,4.825,1.512,7.057c4.824,0.432,8.569-1.8,10.729-4.824
	l7.633-10.729l0.576,0.936l2.88-4.176c0.504-0.72,1.152-0.72,1.8-0.216c1.872-1.512,3.456-1.656,4.752-1.008
	c-0.072,0.864,0.288,1.224,1.512,1.368c0.792,1.08,1.368,2.592,1.656,4.248c-0.72,1.8-1.872,3.528-3.384,5.257
	c-2.808-0.432-3.096,0.864-4.032,2.808l1.008,0.504c-2.809,2.952-5.617,5.833-6.553,8.569l-1.008-0.936
	c-0.072,2.88-2.16,4.752-3.24,6.409c-0.504,0.792-0.36,1.8-0.504,2.664l-0.72-0.504c0.072-0.504,0.072-0.937-0.288-1.224
	c-0.792,1.368-1.224,1.944,0.072,3.312L102.779,52.649z M94.714,66.69l-0.216,1.224l0.576,0.288l0.432-1.152L94.714,66.69z
	 M96.37,66.042c-0.936-0.648-0.288-2.521,0.936-2.953l0.072,0.072L96.37,66.042z M102.274,55.961
	c-0.216,0.432-0.648,0.792-1.368,0.504l0.648-1.152L102.274,55.961z M116.099,31.911c0.36-0.36,1.008-1.152,1.873-0.72
	c-0.432,0.504-0.937,1.08-1.44,1.584L116.099,31.911z"/>
<path fill="#595D60" d="M175.498,26.943c-6.553,2.952-13.249,3.168-19.586,4.968c-0.792,1.296-1.8,2.953-3.024,4.896
	c2.88-0.288,8.856-2.736,10.945-2.736s2.736,0.72,4.249,3.312c-0.288,0.792,0.072,1.512,0.792,1.872l-0.504,1.584
	c-4.393,0.72-15.122,2.448-18.722,4.032c-1.872,0.792-3.528,8.713-3.601,10.369c2.232,1.656,5.617,0.936,7.705,0.432l0.432,0.72
	c0.504,0,1.152-0.432,1.152-0.864c1.08-0.144,1.44,1.584,2.448,1.296c4.68-1.296,10.225-3.168,13.825-4.32
	c0.216-0.072,0.504-0.144,0.576,0.072c0.144,0.36-0.936,0.864-1.512,1.152l-4.896,1.8c0.432,0.288,1.224,0.792,1.728,1.08
	c0.216,0.072,0.072,0.216-0.144,0.288c-3.6,1.224-8.064,2.448-12.097,3.457c1.08,0.504,2.665,0.504,4.033,0.144
	c2.88-0.792,6.84-2.161,10.369-3.384c0.216-0.072,0.72-0.288,0.36,0.432c-0.432,0.72-1.008,1.224-2.016,1.584
	c-4.68,1.8-10.729,3.96-15.121,3.96c-8.425,0-14.401-3.816-14.113-14.329c0.144-5.329,4.536-11.881,9.793-22.898
	c-0.36-1.8-0.288-3.528,1.008-5.473c3.601,0.432,5.688-5.112,8.209-5.112c1.368,0,5.184,1.08,6.121,1.368
	c0.072,1.584-0.288,3.24-1.296,5.185c1.224,0.288,4.681,0.648,6.265,0.648l0.648,1.368c0.36,0,1.008-0.432,1.8-0.432
	s2.52,0.72,3.528,0.864c0.144,0,0.288,0.144,0.144,0.288c-2.88,2.592-4.896,1.008-4.393,3.168c2.16-0.864,3.96-1.368,5.977-2.304
	c0.288-0.144,0.72-0.648,0.792-0.216C177.514,25.935,176.219,26.367,175.498,26.943z M145.04,52.073
	c-0.288,1.296-0.36,2.232,0.216,2.664l0.36-1.944L145.04,52.073z M146.192,47.969l-0.792,2.664l0.504,0.648l1.008-3.384
	L146.192,47.969z M146.336,47.465h0.072c0.432-0.576,1.008-1.152,1.296-1.873c-0.936-0.072-1.224,0.36-1.368,1.081V47.465z
	 M150.44,37.024l0.936-0.144l0.72-1.656C151.592,35.224,150.656,36.232,150.44,37.024z M153.752,32.199l-1.224,2.016l0.937-0.216
	l1.224-2.016L153.752,32.199z M163.113,53.801c-2.016,1.512-4.536,2.52-5.4,1.152c3.312-0.72,6.625-1.8,9.289-2.88
	c0.288-0.144,0.36,0.072,0.216,0.288C166.353,53.369,164.481,53.873,163.113,53.801z M169.882,24.711l0.216,0.864l1.296-0.576
	C171.322,24.639,170.314,24.567,169.882,24.711z"/>
<path fill="#6C7073" d="M246.649,30.183c-2.089,1.512-3.673,3.24-4.536,4.032l-0.433-0.72c-0.792,1.296-3.528,3.456-5.544,5.256
	c-0.072,0.36-0.288,1.152-0.504,1.512c-1.296,1.368-8.425,9.577-8.425,13.105c0,0.864,0.36,1.368,1.152,1.368
	c2.592,0,8.569-1.728,12.889-2.376c1.008-0.144,1.8,0.288,2.161,0.72c-3.457,0.72-8.353,1.584-9.145,3.024
	c1.368,0.864,3.744,0.288,4.824-0.792c3.817-0.72,8.641-1.728,12.313-2.232l1.152,0.288l1.729-0.216l0.792,0.504l-3.744,0.576
	c-0.937,0.144-1.944,0.432-1.297,1.368l0.504,0.72c-0.647,0.288-8.641,2.665-13.393,4.177c-0.792,0.288-1.296,1.008-0.864,1.512
	c-1.512,0.36-3.816,1.008-5.473,1.008c-0.792,0-1.44-1.152-2.16-1.152c-1.728,0-2.16-1.8-4.464-1.512
	c-1.296-1.224-4.032-5.833-4.608-6.913c-0.36-0.576-0.504-1.656-0.504-2.448v-1.944c1.152-1.008,1.224-2.52,1.224-4.032l0.72,0.432
	c0.504-0.792-0.072-1.8,0.288-2.592c1.512-3.024,4.392-7.849,5.328-7.849s-0.432,1.08,0.576,1.08c0.792,0,2.304-3.745,3.096-3.745
	h0.864c-0.216-0.504-0.288-1.368-0.36-2.016h0.504c1.872-4.536,15.625-12.673,18.145-12.673c0.864,0,2.593,0.792,3.673,1.368
	c1.008,2.376,3.024,4.248,2.521,7.2C252.697,26.943,249.168,28.383,246.649,30.183z M225.551,37.816l-1.008,1.656l0.648,0.504
	l0.936-1.512L225.551,37.816z M225.839,37.312l0.72,0.432l0.576-1.008C226.559,36.519,226.199,36.663,225.839,37.312z
	 M226.919,49.193l-0.504,1.008l0.432,0.576l0.792-1.584H226.919z M229.871,44.512l-0.864,1.368c-0.288,0.504-1.08,1.656-0.72,2.304
	l2.232-3.312L229.871,44.512z M232.895,40.408l-0.432,0.72l0.504,0.432l0.576-0.72L232.895,40.408z M233.904,40.408
	c1.512-1.512,1.512-1.8,1.512-2.088c-0.72,0-1.368,0.72-2.16,1.656L233.904,40.408z M237.72,61.506l2.376-0.792
	c0.864,0.648,0.072,1.08-1.008,1.08C238.656,61.794,238.152,61.722,237.72,61.506z M245.857,59.057
	c-1.368,0.792-2.736,1.584-3.961,1.584c-0.359,0-0.72-0.072-1.008-0.216c1.368-0.576,3.312-0.936,4.969-1.44V59.057z
	 M243.624,52.073c2.88-0.504,5.904-1.08,8.064-1.224c-0.359,1.224-2.808,1.656-4.968,1.656
	C245.424,52.505,244.2,52.361,243.624,52.073z M251.473,55.961l-0.72-0.864l1.943-0.288l0.937,0.432L251.473,55.961z"/>
<path fill="#595D60" d="M42.988,101.945c0.071,0.792-0.216,1.44-1.368,1.728l-4.393,1.152c0.648,0.792,2.376,0.504,4.393,0
	l-0.36,0.864c-5.04,1.584-11.737,4.249-15.77,4.608l-8.353,0.792c-1.8,0.72-3.096,2.376-4.32,4.464l0.432,0.648
	c-1.224,2.376-3.24,6.625-4.392,9.073l-0.576-0.36c-0.504,0.72,0.071,1.584,0.071,2.448c0,0.792-0.575,1.8-1.151,2.88l-2.664,0.864
	c-1.009,0.36-1.585-0.432-2.089-1.224l-0.576,0.504c-0.863-0.864-1.224-1.728-0.72-2.304c-0.576-0.936-1.008-1.8-1.152-2.736
	c1.152-2.304,2.377-5.616,3.312-7.705c1.08-2.304,0.72-4.032-1.152-5.185l-0.576-3.456c0.721-0.288,1.873-1.224,2.017-2.448
	l4.177-1.224l-0.433-0.72c2.089-0.504,1.368-2.376,2.376-4.896l6.697-16.705c0.864-2.088,2.088-4.537,4.248-5.761l4.032-2.232
	c4.969,0,11.81,5.761,11.81,12.745c0,2.232-0.721,3.96-1.513,5.041c-1.008-0.144-1.8-1.008-2.592-1.224
	c0-1.944-0.792-3.888-2.017-5.256c-4.248,1.728-6.912,9.289-10.656,15.481c0.647,0.648,2.231-0.288,3.672,0.576l-2.232,0.504
	l0.648,0.504c2.16-0.288,5.185-0.792,7.272-1.08c0.36-0.072,1.152,0.648,0.432,0.864c-0.504,0.144-1.008,0.432-1.008,1.008
	l5.688-1.08l1.296,0.792l2.017-0.432c0.504-0.072,1.08-0.216,1.296-0.864L42.988,101.945z M4.32,113.682l0.36,1.872
	c0.36-0.36,0.576-0.648,0.576-0.936S4.969,114.043,4.32,113.682z M7.849,122.971l-0.504,1.008l0.504,0.504l1.152-2.088
	C8.569,122.395,8.137,122.611,7.849,122.971z M11.018,113.899c-0.504,0.216-1.152,0.792-1.584,1.728
	c-0.217,0.432-0.072,1.368,0.216,1.728L11.018,113.899z M13.609,112.674c-0.432,0.072-2.232,1.008-2.232,1.8
	c0,0.36,0.433,0.648,0.792,0.648L13.609,112.674z M29.234,106.77c-0.863,0.288-1.8,0.144-2.016,0.504
	c-0.145,0.216-0.216,0.72,0,0.648l2.016-0.504C29.522,107.346,29.379,106.698,29.234,106.77z M34.275,105.474
	c-2.16,0.144-2.809,0.792-4.177,1.152c-0.216,0.072-0.216,0.648,0,0.576c2.232-0.576,3.601-0.864,3.961-0.576l2.16-0.648
	C35.716,105.402,35.14,105.402,34.275,105.474z"/>
<path fill="#595D60" d="M72.796,108.786c-0.576,1.224-0.36,4.393-1.872,5.833c1.008,0.576,0.432,2.376-0.504,3.24
	c0.432,1.08,0.72,1.873-0.792,3.889c-0.072,0.288,0.647-0.072,0.792-0.216c-0.145,2.448-0.72,4.393-1.44,6.553
	c-2.232,0-4.248-2.16-5.4-1.728c0.072-1.44-0.144-2.016-1.152-2.016l0.072-1.008c0.36,0,0.648-0.216,0.72-0.72
	c-0.359,0-0.647-0.216-0.647-0.72c0.144-1.656,1.008-3.745,1.439-5.905c0.505,0,0.505,0.936,0.433,2.016
	c0.504,0,1.296-2.952,1.44-4.608l-0.864-0.36c-0.072,1.152-0.072,2.736-0.937,2.376c0.216-1.008,0.433-3.528,0.648-4.392
	l1.224,1.512c-0.071-0.864,0.288-1.08,0.145-2.16c-4.104-0.144-14.978,5.688-18.218,7.92l-0.36,0.936l0.288,0.864
	c-1.224,2.52-2.304,5.473-3.456,6.984l-4.536-1.944c-0.216-2.232-3.312-3.168-2.521-5.041h-1.152
	c1.584-10.873,13.609-22.538,20.378-31.611c3.385-4.464,6.769-7.489,9.577-9.721c0.504-0.432,2.521,0.288,2.664-1.08
	c0.937,0.288,2.952,1.152,4.032,2.016L71.5,80.128c-0.072,1.224,1.728-0.144,2.088,0.144c2.664,2.304,1.152,6.192,2.521,8.281
	c0.072,0.36-0.072,6.552-1.152,7.201c0.145,0.144,0.216,0.144,0.433,0.288c-0.433,1.584-1.009,3.672-1.152,5.688
	c-0.072,0.864,2.664,3.312,2.448,6.481C75.389,108.354,74.021,108.642,72.796,108.786z M49.97,114.547
	c-0.359,0.504-0.504,0.792-0.792,1.296l5.473-2.88C53.714,112.242,51.338,113.826,49.97,114.547z M53.066,111.522
	c-0.576,0.216-1.008,0.288-1.513,0.504l-0.863,1.224C50.979,113.106,52.634,112.53,53.066,111.522z M70.636,86.896
	c-1.368,0.072-4.681,4.104-7.776,8.208l-0.36-0.36c0.216-0.576,0.432-1.008,0.145-1.296c-1.152,1.296-1.656,1.944-1.009,3.312
	c-1.08,1.44-2.088,2.736-3.024,3.888c-1.296,1.656-3.24,4.752-4.896,7.129c1.44-0.864,2.521-2.376,5.401-3.601
	c2.52-1.08,4.032-1.368,6.624-2.088c0.216-1.872,0.937-3.24,1.225-4.249l1.224,1.08c0.864-2.232,1.872-8.064,2.664-11.305
	L70.636,86.896z M58.035,111.234v-0.072c-1.585,0.072-2.232,0.216-2.521,1.368C56.162,112.17,57.242,111.738,58.035,111.234z
	 M64.371,118.507l-0.288,0.936h0.433l0.288-1.152L64.371,118.507z M66.604,101.153c-0.288,0.864,0.216,0.864,0.72,0.792l0.072-0.792
	H66.604z M67.252,100.001l-0.288-0.072l-0.288,0.792h0.647L67.252,100.001z M69.34,91.145h-0.648l0.576-1.944l0.648-0.288
	L69.34,91.145z"/>
<path fill="#595D60" d="M113.835,96.041c-3.097,1.944-1.944,2.88-5.616,5.041c-1.08-1.512-3.169-0.288-5.329,1.728
	c6.841,6.265,14.401,16.49,21.386,16.49c3.385,0,6.985-1.008,8.569-1.44c0.792,0.216,1.944,1.08,2.52,1.8
	c-1.368,0.36-2.664,0.72-4.032,1.224l0.145,0.144c0.936,0,2.376,0.144,1.944,0.432c-0.721,0.576-3.457,2.088-6.121,3.024
	c-0.576,0.216,0.288,0.576,0.648,0.504c2.952-1.008,5.832-3.096,8.064-4.608c0.288,0.288,0.576,0.648,0.72,0.936
	c-3.816,3.528-10.656,7.128-16.057,7.128c-2.736-0.936-5.833-2.232-7.705-4.104c-3.528-3.457-13.177-17.209-17.497-19.442
	c-1.873,2.592-4.825,8.353-5.833,11.161c-0.432,0.936,0.937,2.808,0.576,4.176c-0.432,1.584-2.376,2.736-3.96,4.32
	c-1.368,0-3.24-1.152-3.816-2.664l-1.08-2.953c1.728-1.152-0.648-0.504-0.648-1.872c0-3.744,11.809-29.667,18.865-40.251
	c5.905,0,3.961,5.041,5.041,7.273c2.232-0.937,5.112-2.088,7.633-2.088c1.584,0,2.808,0.144,4.104,0.504l-0.505,1.152
	c1.009,0.288,2.16,0.288,2.16-0.648l1.368,0.576c-0.071,0.36-0.359,0.792-0.575,1.008c0.575,0.432,1.224,0.432,1.367-0.36
	c1.44,1.368,2.017,2.376,2.017,4.033c0,0.864-0.36,2.016-0.937,2.52c-1.943,1.728-3.96,3.745-6.624,6.049L113.835,96.041z
	 M90.721,110.514l-2.088,3.816l0.359,0.864l2.089-4.104L90.721,110.514z M105.41,102.522l-0.433-0.648
	c0.793-0.576,2.017-1.008,2.377-0.288L105.41,102.522z M112.755,83.152l2.304,0.36l0.36-0.504
	C114.627,82.72,113.259,82.864,112.755,83.152z M123.124,125.564c-1.009-0.288-1.729,0.432-0.072,0.936
	c1.368-0.216,3.024-0.72,4.032-1.08v-0.072c-0.36,0-0.504-0.36-0.72-0.504L123.124,125.564z"/>
<path fill="#595D60" d="M184.108,96.977c-1.585-0.504-2.305,2.88-2.665,3.672h-1.151c0,0.864,1.008,1.008,1.656,1.224
	c-0.36,0.792-1.152,1.008-2.017,0.936l-2.017,6.337l0.864-0.432l1.513-4.608l0.432,1.152l-1.008,3.601
	c-0.36,1.296-1.009,2.304-1.729,2.304c-1.008,0-0.792,1.296-1.08,2.232l-0.504-0.648l-0.432,0.432c0.359,0.72,1.08,1.656,1.08,2.52
	c0,1.656-1.801,4.752-3.024,7.561l-1.225-1.08c-0.144,0.144-0.359,0.216-0.576,0.288c-0.216,0.072-0.432,0.072-0.72,0.072
	c-2.736,0-5.904-4.608-5.904-7.201c0-2.952,5.904-13.537,8.496-19.226l-0.216-0.576c-2.088,1.296-7.2,2.952-7.416,5.185
	l-12.745,10.873c-1.225-1.656-2.089-0.432-3.601-0.432c-1.872,0-2.952-3.528-3.673-5.905c1.08-3.528,2.881-7.92,4.608-11.953
	l-0.72-1.44c-2.88,2.376-5.544,6.049-7.561,9.217c-3.024,4.896-7.129,12.457-10.225,18.074c-0.721-0.288-0.145-1.512,0.359-2.521
	c-0.792-0.216-1.368,1.008-1.872,2.376c-0.504,1.44-0.359,3.024,0.072,4.032c-0.36,0.288-0.72,0.432-1.152,0.432
	c-2.952,0-7.057-5.256-7.057-6.841c0-1.728,6.049-11.305,9.361-16.489c3.744-5.977,7.416-11.521,12.312-15.193
	c1.368-2.088,4.32-6.265,6.913-6.265c4.032,0,5.473,5.041,7.129,9.073c-0.36,1.873-0.145,4.608,0.575,6.265
	c2.305-1.584,5.185-4.032,7.489-5.328c0.504-0.288,1.152,0.144,1.512,0.72c0.576-0.432,1.009-1.224,0.648-2.016
	c3.816-2.376,8.641-4.824,10.225-4.824c1.368,0,3.097,1.224,4.608,2.376c1.225,2.88,2.593,5.256,2.593,7.633
	C186.269,94.673,185.404,97.409,184.108,96.977z M133.632,114.187l-0.792,1.368l0.432,0.432l0.792-1.512L133.632,114.187z
	 M133.991,113.394l0.433,0.36c0.359-0.72,0.72-1.008,0.216-1.368L133.991,113.394z M176.043,109.506c0,0.36,0.072,0.72,0.072,0.864
	c0.576-0.432,0.937-1.8,0.288-2.088C176.188,108.498,176.115,109.002,176.043,109.506z M179.644,101.513h-0.072
	c-1.008,1.44-2.376,3.312-2.376,5.544c0,0.432,0.072,0.792,0.144,1.224h0.072L179.644,101.513z M180.796,97.481l-0.792,2.232
	c0.792-0.576,1.439-1.296,1.224-1.656L180.796,97.481z M181.731,96.977l0.864-2.232c-1.008,0-1.08,0.936-1.656,2.232H181.731z
	 M182.812,100.649h-0.792c0.288-0.576,1.009-1.296,1.368-1.44L182.812,100.649z"/>
<path fill="#595D60" d="M226.515,88.624c-6.553,2.952-13.25,3.168-19.586,4.968c-0.792,1.296-1.801,2.953-3.024,4.896
	c2.88-0.288,8.856-2.736,10.945-2.736c2.088,0,2.735,0.72,4.248,3.312c-0.288,0.792,0.072,1.512,0.792,1.872l-0.504,1.584
	c-4.393,0.72-15.121,2.448-18.722,4.032c-1.872,0.792-3.528,8.713-3.601,10.369c2.232,1.656,5.616,0.936,7.705,0.432l0.432,0.72
	c0.504,0,1.152-0.432,1.152-0.864c1.08-0.144,1.44,1.584,2.448,1.296c4.681-1.296,10.225-3.168,13.825-4.32
	c0.216-0.072,0.504-0.144,0.576,0.072c0.144,0.36-0.937,0.864-1.513,1.152l-4.896,1.8c0.433,0.288,1.225,0.792,1.729,1.08
	c0.216,0.072,0.072,0.216-0.144,0.288c-3.601,1.224-8.065,2.448-12.098,3.457c1.08,0.504,2.664,0.504,4.032,0.144
	c2.881-0.792,6.841-2.161,10.369-3.384c0.216-0.072,0.72-0.288,0.36,0.432c-0.433,0.72-1.009,1.224-2.017,1.584
	c-4.681,1.8-10.729,3.96-15.121,3.96c-8.425,0-14.401-3.816-14.113-14.329c0.144-5.329,4.536-11.881,9.793-22.898
	c-0.36-1.8-0.288-3.528,1.008-5.473c3.601,0.432,5.688-5.112,8.209-5.112c1.368,0,5.185,1.08,6.12,1.368
	c0.072,1.584-0.288,3.24-1.296,5.185c1.225,0.288,4.681,0.648,6.265,0.648l0.648,1.368c0.359,0,1.008-0.432,1.8-0.432
	s2.521,0.72,3.528,0.864c0.144,0,0.288,0.144,0.144,0.288c-2.88,2.592-4.896,1.008-4.392,3.168c2.16-0.864,3.96-1.368,5.977-2.304
	c0.287-0.144,0.72-0.648,0.792-0.216C228.53,87.616,227.234,88.048,226.515,88.624z M196.056,113.755
	c-0.288,1.296-0.36,2.232,0.216,2.664l0.36-1.944L196.056,113.755z M197.208,109.65l-0.792,2.664l0.504,0.648l1.008-3.384
	L197.208,109.65z M197.352,109.146h0.072c0.432-0.576,1.008-1.152,1.296-1.873c-0.937-0.072-1.224,0.36-1.368,1.081V109.146z
	 M201.456,98.705l0.936-0.144l0.721-1.656C202.608,96.905,201.672,97.913,201.456,98.705z M204.769,93.881l-1.225,2.016l0.937-0.216
	l1.224-2.016L204.769,93.881z M214.129,115.483c-2.016,1.512-4.536,2.52-5.4,1.152c3.312-0.72,6.625-1.8,9.289-2.88
	c0.288-0.144,0.36,0.072,0.216,0.288C217.369,115.05,215.497,115.554,214.129,115.483z M220.897,86.392l0.216,0.864l1.297-0.576
	C222.338,86.32,221.33,86.248,220.897,86.392z"/>
<path fill="#595D60" d="M260.209,96.041c-3.097,1.944-1.944,2.88-5.616,5.041c-1.08-1.512-3.169-0.288-5.329,1.728
	c6.841,6.265,14.401,16.49,21.386,16.49c3.385,0,6.985-1.008,8.569-1.44c0.792,0.216,1.944,1.08,2.52,1.8
	c-1.368,0.36-2.664,0.72-4.032,1.224l0.145,0.144c0.936,0,2.376,0.144,1.944,0.432c-0.721,0.576-3.457,2.088-6.121,3.024
	c-0.576,0.216,0.288,0.576,0.648,0.504c2.952-1.008,5.832-3.096,8.064-4.608c0.288,0.288,0.576,0.648,0.72,0.936
	c-3.816,3.528-10.656,7.128-16.057,7.128c-2.736-0.936-5.833-2.232-7.705-4.104c-3.528-3.457-13.177-17.209-17.497-19.442
	c-1.873,2.592-4.825,8.353-5.833,11.161c-0.432,0.936,0.937,2.808,0.576,4.176c-0.432,1.584-2.376,2.736-3.96,4.32
	c-1.368,0-3.24-1.152-3.816-2.664l-1.08-2.953c1.728-1.152-0.648-0.504-0.648-1.872c0-3.744,11.809-29.667,18.865-40.251
	c5.905,0,3.961,5.041,5.041,7.273c2.232-0.937,5.112-2.088,7.633-2.088c1.584,0,2.808,0.144,4.104,0.504l-0.505,1.152
	c1.009,0.288,2.16,0.288,2.16-0.648l1.368,0.576c-0.071,0.36-0.359,0.792-0.576,1.008c0.576,0.432,1.225,0.432,1.368-0.36
	c1.44,1.368,2.017,2.376,2.017,4.033c0,0.864-0.36,2.016-0.937,2.52c-1.943,1.728-3.96,3.745-6.624,6.049L260.209,96.041z
	 M237.095,110.514l-2.088,3.816l0.359,0.864l2.089-4.104L237.095,110.514z M251.784,102.522l-0.432-0.648
	c0.792-0.576,2.016-1.008,2.376-0.288L251.784,102.522z M259.129,83.152l2.304,0.36l0.36-0.504
	C261.001,82.72,259.633,82.864,259.129,83.152z M269.498,125.564c-1.009-0.288-1.729,0.432-0.072,0.936
	c1.368-0.216,3.024-0.72,4.032-1.08v-0.072c-0.36,0-0.504-0.36-0.72-0.504L269.498,125.564z"/>
<path fill="#6C7073" d="M255.663,24.5c0,0,4.904-2.454,9.059-4.287c2.177-4.124,4.283-7.774,7.072-8.909
	c1.225,1.368,2.017,3.312,2.017,5.256c0.792,0.216,1.584,1.08,2.592,1.224c0.792-1.08,1.513-2.808,1.513-5.041
	c0-6.984-6.841-12.745-11.81-12.745l-4.032,2.232c-2.16,1.224-3.384,3.672-4.248,5.761l-4.549,11.346L255.663,24.5z"/>
<path fill="#6C7073" d="M284.289,38.968c0-3.888-0.936-7.488-3.744-9.361c-2.952-2.016-6.48-4.68-6.48-7.993
	c-2.232-1.728-3.24-3.024-5.328-3.024c-3.601,0-14.493,5.03-21.358,13.565l4.628-2.924l1.934,0.571l-2.107,1.75l5.315,1.75
	l5.226,0.713v0.451c2.797-2.083,5.857-3.492,8.017-3.492c0.071,0,0.359,0.576,0.863,0.576c0.217,0,0.504-0.144,0.792-0.432
	s0.433,0.144,0.648,0.792l4.032,4.681l-3.24,4.249c-1.368,1.728-4.464,3.24-5.904,3.816l-12.961,5.401
	c-1.297,0.504-3.457,0.648-5.112,0.792c0.324-1.015,0.682-1.991,1.074-2.921l-1.972,1.208l-4.464-3.084l-1.75,1.25l-0.878,0.281
	c0.021,3.395,0.604,6.82,2.301,8.163c1.872,1.584,4.968,3.96,7.488,5.544c1.008-0.792,2.448-1.224,3.672,0
	c2.017-0.648,3.385-1.152,5.113-1.729c1.439-0.504,0.575-2.16,1.728-2.88l2.017,1.224l1.296-0.432
	c0.072-0.288-0.792-0.576-0.576-0.792c1.296-0.288,2.664-0.216,3.816-0.792c1.944-0.937,0.937-1.729,2.809-2.88l0.792,0.72
	c0.863-1.152,1.512-2.088,2.304-2.88c0.864-0.216,2.088,0.144,2.088-0.936c0-0.792,1.297-1.44,2.089-1.44
	c-0.433-0.792,0-1.08,0.576-1.224l0.504,0.936c0.792,0,1.296-0.792,0.936-1.512C283.066,44.584,284.289,41.344,284.289,38.968z
	 M252.967,59.634c0.288-0.288,0.576-0.36,0.864-0.432c0.504,0,1.008,0.36,1.296,0.792L252.967,59.634z M264.416,55.817
	c-0.145-0.144,0.144-0.648,0.144-0.864c0.72,0,1.08,0.216,1.08,0.72C265.28,55.817,264.703,56.033,264.416,55.817z M266.72,54.665
	c-0.072-0.792,0.432-1.152,1.729-1.8l0.359,0.72L266.72,54.665z M269.6,53.153l-0.287-0.792l1.151-1.224
	c0.216,0.144,0.36,0.936,0.576,1.152L269.6,53.153z"/>
<g>
	<path fill="#595D60" d="M204.346,31.407c-2.088,1.512-3.672,3.24-4.537,4.032l-0.432-0.72c-0.792,1.296-3.528,3.456-5.544,5.256
		c-0.072,0.36-0.288,1.152-0.504,1.512c-1.296,1.368-8.425,9.577-8.425,13.105c0,0.864,0.36,1.368,1.152,1.368
		c2.592,0,8.568-1.728,12.889-2.376c1.008-0.144,1.8,0.288,2.16,0.72c-3.456,0.72-8.353,1.584-9.145,3.024
		c1.368,0.864,3.744,0.288,4.824-0.792c3.816-0.72,8.641-1.728,12.313-2.232l1.152,0.288l1.728-0.216l0.792,0.504l-3.744,0.576
		c-0.936,0.144-1.944,0.432-1.296,1.368l0.504,0.72c-0.648,0.288-8.641,2.665-13.393,4.177c-0.792,0.288-1.296,1.008-0.864,1.512
		c-1.512,0.36-3.816,1.008-5.473,1.008c-0.792,0-1.44-1.152-2.16-1.152c-1.728,0-2.16-1.8-4.464-1.512
		c-1.296-1.224-4.032-5.833-4.608-6.913c-0.36-0.576-0.504-1.656-0.504-2.448v-1.944c1.152-1.008,1.224-2.52,1.224-4.032l0.72,0.432
		c0.504-0.792-0.072-1.8,0.288-2.592c1.512-3.024,4.392-7.849,5.328-7.849s-0.432,1.08,0.576,1.08c0.792,0,2.304-3.745,3.096-3.745
		h0.864c-0.216-0.504-0.288-1.368-0.36-2.016h0.504c1.872-4.536,15.625-12.673,18.146-12.673c0.864,0,2.592,0.792,3.672,1.368
		c1.008,2.376,3.024,4.248,2.52,7.2C210.395,28.167,206.866,29.607,204.346,31.407z M183.248,39.04l-1.008,1.656l0.648,0.504
		l0.936-1.512L183.248,39.04z M183.536,38.536l0.72,0.432l0.576-1.008C184.257,37.744,183.896,37.888,183.536,38.536z
		 M184.616,50.417l-0.504,1.008l0.432,0.576l0.792-1.584H184.616z M187.569,45.736l-0.864,1.368c-0.288,0.504-1.08,1.656-0.72,2.304
		l2.232-3.312L187.569,45.736z M190.593,41.632l-0.432,0.72l0.504,0.432l0.576-0.72L190.593,41.632z M191.601,41.632
		c1.512-1.512,1.512-1.8,1.512-2.088c-0.72,0-1.368,0.72-2.16,1.656L191.601,41.632z M195.417,62.73l2.376-0.792
		c0.864,0.648,0.072,1.08-1.008,1.08C196.354,63.018,195.849,62.946,195.417,62.73z M203.554,60.282
		c-1.368,0.792-2.736,1.584-3.96,1.584c-0.36,0-0.72-0.072-1.008-0.216c1.368-0.576,3.312-0.936,4.968-1.44V60.282z M201.322,53.297
		c2.88-0.504,5.904-1.08,8.064-1.224c-0.36,1.224-2.808,1.656-4.968,1.656C203.122,53.729,201.898,53.585,201.322,53.297z
		 M209.171,57.185l-0.72-0.864l1.944-0.288l0.936,0.432L209.171,57.185z"/>
</g>
</svg>
