<?xml version="1.0" encoding="utf-8"?>
<!-- Generator: Adobe Illustrator 18.1.1, SVG Export Plug-In . SVG Version: 6.00 Build 0)  -->
<!DOCTYPE svg PUBLIC "-//W3C//DTD SVG 1.1//EN" "http://www.w3.org/Graphics/SVG/1.1/DTD/svg11.dtd">
<svg version="1.1" id="Layer_1" xmlns="http://www.w3.org/2000/svg" xmlns:xlink="http://www.w3.org/1999/xlink" x="0px" y="0px"
	 viewBox="0 0 476.2 122.4" enable-background="new 0 0 476.2 122.4" xml:space="preserve">
<g>
	<path fill="#7F8C8D" d="M305.5,71.6l-0.6,3.2c-0.4,2.1-1.2,3.9-2.2,5.5c-1.4,1.9-3.2,3.4-5.2,4.5l-2.9,1.4l1.9-2.6
		c1.4-1.9,2.7-3.6,4-5.3l0.5-0.7c0.9-1.2,1.8-2.3,2.6-3.4L305.5,71.6z M324.7,45.7c1-3.3,1-6-0.3-8.2c-0.9-1.6-2.9-3.6-7-3.6
		c-0.6,0-1.2,0-1.9,0.1l-1.5,0.2l1.1,8.3C313.4,47.9,302,63,294.5,73l-7.8,10.3c-2.8-0.5-5-1.5-6.3-2.9c-1.8-2-2.5-4.7-2.2-8.2
		c0.2-2.1,0.8-3.9,1.8-5c0.6-0.8,1.3-1.4,2.5-1.8c1.1-0.5,2.6-0.7,4.5-0.7c1.5,0,3.1,0.1,4.1,0.2h2.6l2.8-10.8l-2.1-0.9
		c-4.2-2-6.9-4.2-7.3-6.1c-0.1-1.1,0.6-2.2,1.3-2.9c0.2-0.2,0.8-0.4,1.6-0.4c0.5,0,1.1,0,1.4,0.2c1.2,0.4,3.3,1.6,3.9,5.4l0.4,2.7
		l12.2-1.8l-0.4-2.8c-0.6-3.9-2-7.2-4.2-9.9c-2.1-2.6-4.8-4.5-7.8-5.4c-1.8-0.7-3.6-0.9-5.5-0.9c-0.9,0-1.9,0-2.8,0.2
		c-2.9,0.5-5.5,1.8-7.5,3.8c-3.9,3.8-5.6,8.9-4.8,13.9c0.4,1.8,0.9,3.5,2,5.2c-2.7,1.2-4.9,3.1-6.8,5.4c-2.1,2.8-3.5,6.6-4.1,11.2
		v0.4c-0.5,6.9,1.3,12.9,5.3,17.4c2.1,2.3,4.8,4.2,8.1,5.5c-7.3,10.9-9,16.7-6.6,21c0.9,1.8,3.1,3.8,7.3,3.8c0.6,0,1.2,0,1.8-0.1
		l1.5-0.2l-1.1-8.8c0.8-2.5,3.5-7,8.1-13.5h0.8c3.8,0,7.5-0.8,10.9-2.6c3.5-1.8,6.7-4.5,8.9-7.6c2.3-3.4,4-6.7,4.6-11.5
		c0.1-5-1.5-11.5-2.2-13c-0.1-0.2,0-0.5,0-0.8V47.6c0-1.2,0.6-1.8,1.8-1.8H324.7z"/>
	<path fill="#7F8C8D" d="M176.7,27.6c0.5,0,0.7,0.2,0.7,0.7v2.7c0,0.5-0.2,0.7-0.7,0.7h-5.8c-0.5,0-0.7,0.2-0.7,0.7v0.8
		c0,0.5,0.3,0.7,0.7,0.7h3.7c0.5,0,0.7,0.2,0.7,0.7v2.7c0,0.5-0.2,0.7-0.7,0.7h-3.7c-0.5,0-0.7,0.2-0.7,0.7v0.8
		c0,0.5,0.3,0.7,0.7,0.7h5.8c0.5,0,0.7,0.2,0.7,0.7v2.7c0,0.5-0.2,0.7-0.7,0.7h-10.2c-0.5,0-0.7-0.3-0.7-0.7V28.4
		c0-0.5,0.3-0.7,0.7-0.7H176.7z M154.7,27.6c0.5,0,0.7,0.3,0.7,0.7v6c0,0.5,0.3,0.7,0.7,0.7h2.3c0.5,0,0.7-0.3,0.7-0.7v-6
		c0-0.5,0.3-0.7,0.7-0.7h2.7c0.5,0,0.7,0.2,0.7,0.7v15.5c0,0.5-0.2,0.7-0.7,0.7h-2.7c-0.5,0-0.7-0.3-0.7-0.7V40
		c0-0.5-0.2-0.7-0.7-0.7h-2.3c-0.5,0-0.7,0.2-0.7,0.7v3.8c0,0.5-0.2,0.7-0.7,0.7H152c-0.5,0-0.7-0.3-0.7-0.7V28.4
		c0-0.5,0.2-0.7,0.7-0.7H154.7z M140.8,32.5c0-0.5-0.2-0.7-0.7-0.7h-3.4c-0.5,0-0.7-0.3-0.7-0.7v-2.7c0-0.5,0.3-0.7,0.7-0.7h12.4
		c0.5,0,0.7,0.2,0.7,0.7v2.7c0,0.5-0.2,0.7-0.7,0.7h-3.4c-0.5,0-0.7,0.2-0.7,0.7v11.3c0,0.5-0.2,0.7-0.7,0.7h-2.7
		c-0.5,0-0.7-0.3-0.7-0.7V32.5z"/>
	<path fill="#7F8C8D" d="M286.9,31.6c-2.8,0.5-5.3,1.8-7.3,3.7c-3.9,3.8-5.6,8.9-4.8,13.9c0.4,1.8,0.9,3.5,2,5.2
		c-2.7,1.2-4.9,3.1-6.8,5.4c-2.1,2.8-3.5,6.6-4.1,11.2v0.4c-0.5,6.9,1.3,12.9,5.3,17.4c2.1,2.3,4.8,4.2,8.1,5.5
		c-7.3,10.9-9,16.7-6.6,21c0.9,1.8,3.1,3.8,7.3,3.8c0.6,0,1.2,0,1.8-0.1l1.5-0.2l-1.1-8.8c0.6-1.8,2.2-4.6,4.7-8.5V83.2l-0.1,0.1
		c-2.8-0.5-5.1-1.5-6.3-2.9c-1.8-2-2.5-4.7-2.2-8.2c0.2-2.1,0.8-3.9,1.8-5c0.6-0.8,1.3-1.4,2.5-1.8c1.1-0.5,2.6-0.7,4.4-0.7V31.6z"
		/>
	<path fill="#7F8C8D" d="M474.6,46.6h-8.2c-1,0-1.6,0.4-2,1.3l-4.3,10.7c-0.2,0.5-0.6,0.5-0.8,0L455.1,48c-0.3-0.9-1-1.3-2-1.3h-8.3
		c-1.3,0-1.9,0.8-1.3,2l10.4,23c0.1,0.2,0.1,0.5,0.1,0.7v12.8c0,1.1,0.6,1.7,1.7,1.7h8.1c1.2,0,1.7-0.6,1.7-1.7V72.4
		c0-0.2,0-0.5,0.1-0.7l10.3-23C476.5,47.4,476,46.6,474.6,46.6"/>
	<path fill="#7F8C8D" d="M433,60.4c0,3.6-1.4,3.9-4.1,3.9h-2.9c-1,0-1.8-0.7-1.8-1.8v-4.3c0-1,0.7-1.8,1.8-1.8h2.9
		C431.6,56.5,433,56.9,433,60.4 M438.3,72.5c-0.1-0.3-0.1-0.6,0.2-0.7c3.1-2.2,4.4-5.9,4.4-11.3c0-9.4-4.1-13.8-14.4-13.8h-12.6
		c-1,0-1.8,0.7-1.8,1.8v36.7c0,1,0.7,1.8,1.8,1.8h6.4c1,0,1.8-0.7,1.8-1.8V76c0-1,0.7-1.8,1.8-1.8h2.3c0.2,0,0.3,0.1,0.5,0.3l6,11.6
		c0.2,0.5,0.7,0.8,1.3,0.8h6.6c1.8,0,2.7-1.6,1.9-3.1L438.3,72.5z"/>
	<path fill="#7F8C8D" d="M398.8,60.4c0,3.6-1.4,3.9-4.1,3.9h-2.9c-1,0-1.8-0.7-1.8-1.8v-4.3c0-1,0.7-1.8,1.8-1.8h2.9
		C397.5,56.5,398.8,56.9,398.8,60.4 M404.2,72.5c-0.1-0.3-0.1-0.6,0.2-0.7c3.1-2.2,4.4-5.9,4.4-11.3c0-9.4-4.1-13.8-14.4-13.8h-12.6
		c-1,0-1.8,0.7-1.8,1.8v36.7c0,1,0.7,1.8,1.8,1.8h6.4c1,0,1.8-0.7,1.8-1.8V76c0-1,0.7-1.8,1.8-1.8h2.3c0.2,0,0.3,0.1,0.5,0.3l6,11.6
		c0.2,0.5,0.7,0.8,1.3,0.8h6.6c1.8,0,2.7-1.6,1.9-3.1L404.2,72.5z"/>
	<path fill="#7F8C8D" d="M375.5,85.2v-6.4c0-1.2-0.6-1.7-1.7-1.7h-13.9c-1.1,0-1.7-0.6-1.7-1.7v-1.8c0-1.2,0.6-1.7,1.7-1.7h8.9
		c1.2,0,1.7-0.6,1.7-1.7v-6.4c0-1.2-0.6-1.7-1.7-1.7h-8.9c-1.1,0-1.7-0.6-1.7-1.7v-1.8c0-1.2,0.6-1.7,1.7-1.7h13.9
		c1.2,0,1.7-0.6,1.7-1.7v-6.4c0-1.1-0.6-1.7-1.7-1.7h-24.2c-1.1,0-1.7,0.6-1.7,1.7v36.8c0,1.1,0.6,1.7,1.7,1.7h24.2
		C375,86.9,375.5,86.3,375.5,85.2"/>
	<path fill="#7F8C8D" d="M333.5,75.8c0,2.7-1.4,3-4.1,3h-3.6c-1.1,0-1.7-0.6-1.7-1.7v-2.6c0-1.2,0.6-1.7,1.7-1.7h3.7
		C332.3,72.6,333.5,73,333.5,75.8 M333.1,60.4c0,3.6-1.4,3.9-4.1,3.9h-3.1c-1.1,0-1.7-0.6-1.7-1.7v-4.4c0-1.2,0.6-1.7,1.7-1.7h3.1
		C331.7,56.5,333.1,56.9,333.1,60.4 M340,68.8c2.4-2.6,2.9-6.4,2.9-8.3c0-9.4-4.1-13.8-15-13.8h-12.1c-1.2,0.1-1.7,0.6-1.7,1.8v12.9
		c0.1,0.2,0.1,0.4,0.3,0.7c1.2,3.5,2.4,9.4,2,13.1c-0.3,2.8-1.1,5.4-2.3,7.9v2.2c0,1.1,0.6,1.7,1.7,1.7h14.2c10.8,0,14-3.5,14-10.6
		C344.1,72.8,342.4,69.9,340,68.8"/>
	<path fill="#7F8C8D" d="M268.2,86.9c-1.8-2.9-2.9-6.2-3.3-9.9h-3.4c-1.1,0-1.7-0.6-1.7-1.7V48.4c0-1.2-0.6-1.7-1.7-1.7h-6.4
		c-1.1,0-1.7,0.6-1.7,1.7v36.8c0,1.1,0.6,1.7,1.7,1.7H268.2z"/>
	<path fill="#7F8C8D" d="M246.2,48.5c0.2-1.2-0.3-1.9-1.6-1.9h-6.8c-1,0-1.8,0.5-1.9,1.5l-3.3,24c-0.1,0.6-0.6,0.6-0.7,0l-3.9-24
		c-0.2-1-0.9-1.5-1.9-1.5h-4.9c-1,0-1.7,0.5-1.9,1.5l-3.9,24c-0.1,0.6-0.6,0.6-0.7,0l-3.3-24c-0.1-1-0.9-1.5-1.9-1.5h-6.8
		c-1.2,0-1.8,0.7-1.6,1.9l7.1,36.9c0.2,1,0.9,1.5,1.9,1.5h8.1c1,0,1.7-0.5,1.9-1.5l3.2-14.2c0.1-0.6,0.6-0.6,0.7,0l3.2,14.2
		c0.2,1,0.9,1.5,1.9,1.5h8.1c1,0,1.7-0.5,1.9-1.5L246.2,48.5z"/>
	<path fill="#7F8C8D" d="M188.2,70.9c0,4.4-0.3,7.1-4.5,7.1c-4.3,0-4.5-2.7-4.5-7.1v-8.3c0-4.4,0.3-7.1,4.5-7.1
		c4.3,0,4.5,2.7,4.5,7.1V70.9z M198.1,74V59.6c0-3.8-0.8-14-14.4-14c-13.6,0-14.4,10.2-14.4,14V74c0,3.8,0.8,14,14.4,14
		C197.3,88,198.1,77.8,198.1,74"/>
	<path fill="#7F8C8D" d="M155.4,75.8c0,2.7-1.4,3-4.1,3h-3.6c-1.1,0-1.7-0.6-1.7-1.7v-2.6c0-1.2,0.6-1.7,1.7-1.7h3.7
		C154.2,72.6,155.4,73,155.4,75.8 M155,60.4c0,3.6-1.4,3.9-4.1,3.9h-3.1c-1.1,0-1.7-0.6-1.7-1.7v-4.4c0-1.2,0.6-1.7,1.7-1.7h3.1
		C153.6,56.5,155,56.9,155,60.4 M161.9,68.8c2.4-2.6,2.9-6.4,2.9-8.3c0-9.4-4.1-13.8-15-13.8h-12.1c-1.2,0.1-1.7,0.6-1.7,1.8v36.8
		c0,1.1,0.6,1.7,1.7,1.7H152c10.8,0,14-3.5,14-10.6C166,72.8,164.3,69.9,161.9,68.8"/>
</g>
<path fill="none" d="M61.2,120.5c32.8,0,59.3-26.6,59.3-59.3c0-32.8-26.6-59.3-59.3-59.3S1.9,28.4,1.9,61.2
	C1.9,94,28.4,120.5,61.2,120.5"/>
<circle fill="#ECF0F1" stroke="#7F8C8D" stroke-width="3.768" cx="61.2" cy="61.2" r="59.3"/>
<path fill="none" d="M61.2,101.7c22.3,0,40.5-18.2,40.5-40.5c0-22.3-18.2-40.5-40.5-40.5S20.7,38.9,20.7,61.2
	C20.7,83.5,38.9,101.7,61.2,101.7"/>
<path fill="none" stroke="#7F8C8D" stroke-width="1.36" d="M61.2,101.7c22.3,0,40.5-18.2,40.5-40.5c0-22.3-18.2-40.5-40.5-40.5
	S20.7,38.9,20.7,61.2C20.7,83.5,38.9,101.7,61.2,101.7z"/>
<path fill="#7F8C8D" d="M61.2,98.3c20.5,0,37.1-16.6,37.1-37.1c0-20.5-16.6-37.1-37.1-37.1c-20.5,0-37.1,16.6-37.1,37.1
	C24.1,81.7,40.7,98.3,61.2,98.3"/>
<circle fill="none" stroke="#7F8C8D" stroke-width="0.781" cx="61.2" cy="61.2" r="37.1"/>
<path fill="#7F8C8D" d="M12.1,55.4c1.2,0.1,2.3-0.9,2.4-2.3c0.1-1.4-0.8-2.5-2.1-2.6c-1.2-0.1-2.3,0.9-2.4,2.3
	C9.9,54.1,10.8,55.3,12.1,55.4"/>
<path fill="#ECF0F1" d="M10.7,53.8c0.2,0,0.3-0.3,0.3-0.7c0-0.4-0.2-0.7-0.3-0.7s-0.3,0.3-0.3,0.7C10.4,53.5,10.5,53.8,10.7,53.8"/>
<path fill="#7F8C8D" d="M109.9,47.6c-1.2,0.1-2.1,1.3-2,2.7c0.1,1.4,1.3,2.4,2.5,2.2c1.2-0.1,2.1-1.3,2-2.7
	C112.2,48.5,111.1,47.5,109.9,47.6"/>
<path fill="#ECF0F1" d="M111.5,49c-0.2,0-0.3,0.4-0.2,0.7c0.1,0.4,0.3,0.6,0.4,0.6c0.2,0,0.3-0.3,0.2-0.7
	C111.9,49.2,111.7,48.9,111.5,49"/>
<path fill="#ECF0F1" d="M68.5,62c7.8,0,13.8,0.6,13.9,0.6c0.3,0.1,0.5,0.2,0.6,0.8c0.3,0.9,0.3,2.1,0.3,3.2c0,1.4-0.3,2.2-0.4,2.5
	c-0.1,0.2-0.3,0.5-1.1,0.6c-0.9,0-3.6,0.1-8,0.1c-1.7,0-3.5-0.1-5.3-0.1V62z M80.7,53.7c-0.3,0.1-1.8,0.4-9.6,0.6h-0.2h-2.4v-6.8h3
	c3.8,0,6.9,0.1,8.7,0.1c0.5,0.1,1.1,0.4,1.1,2.6C81.3,53.3,80.9,53.5,80.7,53.7 M59.4,47.8l1.8-0.1h0.4v6.6H60v7.9h1.7v7.9h-0.5
	h-1.7L59.1,78l1.8,0.1c4.6,0.1,9,0.1,12.6,0.1c4.1,0,7.4,0,9-0.1H83c2.7-0.5,4.8-2,6.2-4.2c1-1.9,1.5-4.1,1.5-6.8
	c0-1.6,0-3.6-0.5-5.6c-0.4-1.3-1-2.5-1.8-3.4c-0.3-0.4-0.6-0.7-1-1c0.3-0.4,0.4-1,0.6-1.5c0.6-2,0.6-4,0.6-5.3
	c0-2.6-0.5-4.7-1.5-6.5c-1.3-2.1-3.4-3.5-5.9-4h-0.4c-0.8-0.1-4-0.1-8.9-0.1c-3.7,0-7.5,0-11,0.1l-1.8,0.1L59.4,47.8z"/>
<rect x="66.6" y="45.5" display="none" fill="#FFFFFF" width="18.1" height="26"/>
<path fill="#7F8C8D" d="M83,62.7L83,62.7l0.1,3.8c0,0,0.1,3.3-3.2,3.3l-10.7,0.1c0,0-1,0-1-1v-3.6c0,0,0-3.3,3.3-3.1L83,62.7z"/>
<path fill="#7F8C8D" d="M81.3,54L81.3,54l0.1-3.4c0,0,0.1-2.9-2.8-2.9l-9.4-0.1c0,0-1,0-1,1v3.1c0,0,0,2.9,2.9,2.8L81.3,54z"/>
<path fill="#ECF0F1" d="M53.9,62c-7.8,0-13.8,0.6-13.9,0.6c-0.3,0.1-0.5,0.2-0.6,0.8C39,64.4,39,65.6,39,66.8c0,1.4,0.3,2.2,0.4,2.5
	c0.1,0.2,0.3,0.5,1.1,0.6c0.9,0,3.6,0.1,8,0.1c1.7,0,3.5-0.1,5.3-0.1V62z M41.7,53.7c0.3,0.1,1.8,0.4,9.6,0.6h0.2h2.4v-6.8h-3
	c-3.8,0-6.9,0.1-8.7,0.1c-0.5,0.1-1.1,0.4-1.1,2.6C41.1,53.3,41.5,53.5,41.7,53.7 M63,47.8l-1.8-0.1h-0.4v6.6h1.7v7.9h-1.7v7.9h0.5
	H63l0.3,7.8l-1.8,0.1c-4.6,0.1-9,0.1-12.6,0.1c-4.1,0-7.4,0-9-0.1h-0.4c-2.7-0.5-4.8-2-6.2-4.2c-1-1.9-1.5-4.1-1.5-6.8
	c0-1.6,0-3.6,0.5-5.6c0.4-1.3,1-2.5,1.8-3.4c0.3-0.4,0.6-0.7,1-1c-0.3-0.4-0.4-1-0.6-1.5c-0.6-2-0.6-4-0.6-5.3
	c0-2.6,0.5-4.7,1.5-6.5c1.3-2.1,3.4-3.5,5.9-4h0.4c0.8-0.1,4-0.1,8.9-0.1c3.7,0,7.5,0,11,0.1l1.8,0.1L63,47.8z"/>
<rect x="37.7" y="45.5" fill="#ECF0F1" width="18.1" height="26"/>
<path fill="#7F8C8D" d="M39.4,62.7L39.4,62.7l-0.1,3.8c0,0-0.1,3.3,3.2,3.3l10.7,0.1c0,0,1,0,1-1v-3.6c0,0,0-3.3-3.3-3.1L39.4,62.7z
	"/>
<path fill="#7F8C8D" d="M41.1,54L41.1,54L41,50.6c0,0-0.1-2.9,2.8-2.9l9.4-0.1c0,0,1,0,1,1v3.1c0,0,0,2.9-2.9,2.8L41.1,54z"/>
<path fill="#ECF0F1" d="M64.7,70.3c-1.4-0.9-2.1-2.3-2.2-4.5c0-0.5,0-1,0-1.4l0-0.3l0-0.8c0-2.5,1.6-42.6,1.6-43
	c0-0.2-0.1-0.4-0.2-0.5c-1-1-2-1.5-3.2-1.5c-1.8,0-3.1,1.4-3.2,1.5c-0.1,0.1-0.2,0.3-0.2,0.5c0,0.4,1.7,36.7,1.9,43.2
	c0,0.9,0,1.7-0.1,2.4c-0.3,3.6-1.6,4.4-1.6,4.4c-5.5,5.1-3.5,12-2.9,14.3c0.1,0.2,0.1,0.4,0.1,0.5c0,0.1,2.2,7.9,6.1,8.3
	c1.9,0.2,3.8-1.4,5.4-4.8C72,76.9,64.8,70.4,64.7,70.3z"/>
<path fill="none" stroke="#7F8C8D" stroke-width="1.453" stroke-linecap="round" stroke-linejoin="round" stroke-miterlimit="10" d="
	M64.7,70.3c-1.4-0.9-2.1-2.3-2.2-4.5c0-0.5,0-1,0-1.4l0-0.3l0-0.8c0-2.5,1.6-42.6,1.6-43c0-0.2-0.1-0.4-0.2-0.5c-1-1-2-1.5-3.2-1.5
	c-1.8,0-3.1,1.4-3.2,1.5c-0.1,0.1-0.2,0.3-0.2,0.5c0,0.4,1.7,36.7,1.9,43.2c0,0.9,0,1.7-0.1,2.4c-0.3,3.6-1.6,4.4-1.6,4.4
	c-5.5,5.1-3.5,12-2.9,14.3c0.1,0.2,0.1,0.4,0.1,0.5c0,0.1,2.2,7.9,6.1,8.3c1.9,0.2,3.8-1.4,5.4-4.8C72,76.9,64.8,70.4,64.7,70.3z"/>
<path fill="#7F8C8D" d="M80.1,107.1c-0.6-1.1-2-1.5-3.2-0.8c-1.2,0.6-1.7,2-1.1,3.1c0.6,1.1,2,1.5,3.2,0.8
	C80.2,109.6,80.7,108.2,80.1,107.1"/>
<path fill="#ECF0F1" d="M79.5,109.1c-0.1-0.2-0.4-0.1-0.7,0.1c-0.3,0.2-0.5,0.5-0.4,0.6c0.1,0.2,0.4,0.1,0.7-0.1
	C79.4,109.5,79.6,109.3,79.5,109.1"/>
<path fill="#7F8C8D" d="M109.8,59.1c-0.4,0.5-0.7,1.4-0.8,2.6l-0.1,2.3c0,0.6-0.1,1-0.1,1.3l0,0c-0.9,0-1.2-0.1-1.3-0.2
	c-0.2-0.2-0.2-1.1-0.2-1.7c0-0.1,0-0.2,0-0.4c0-0.1,0-0.2,0-0.3l0-0.2c0-1.3,0.3-1.8,0.4-1.9c0-0.1,0.1-0.1,0.1-0.1l0.6,0l0-2
	l-0.6,0c-0.8,0-1.4,0.3-1.8,0.9c-0.5,0.7-0.7,1.7-0.8,3.3c0,0.1,0,0.2,0,0.3l0,0.4c0,0.6,0,1.2,0.1,1.7c0.1,0.7,0.3,1.2,0.7,1.6
	c0.9,0.7,1.5,0.7,3.1,0.7c0.2,0,0.5-0.1,0.5-0.1c0.3-0.1,0.7-0.4,1-1.1c0.1-0.4,0.2-1,0.3-2.1l0.1-2.3c0.1-0.9,0.2-1.2,0.3-1.3
	c0.6,0,1,0,1.4,0.1c0.3,0,0.4,0.1,0.4,0.1l0,0c0.2,0.2,0.2,0.9,0.2,1.6l0,0.1c0,0.2,0,0.5,0,0.7l0,0.2c-0.1,1.4-0.4,1.8-0.5,1.9
	c-0.1,0.1-0.2,0.1-0.4,0.1l-0.2,0l-0.7,0l0,2l0.4,0c0.2,0,0.4,0,0.4,0l0,0c0.4,0,1.2,0,1.9-0.6c0.7-0.6,1-1.7,1.1-3.3l0-0.4
	c0-0.2,0-0.4,0-0.6l0-0.2c0-0.5,0-1-0.1-1.4c-0.1-0.7-0.3-1.2-0.8-1.5c-0.3-0.3-0.8-0.6-1.4-0.7h0c-0.5-0.1-1.1-0.1-1.9-0.1
	C110.8,58.5,110.3,58.5,109.8,59.1 M110.8,77.7l-0.1,0.3l2,0.5l1.9-8l-2-0.5l-1.4,5.8l-1.7-0.4l0.8-3.6l-2-0.4l-0.8,3.6l-1.8-0.4
	l1.2-5.8l-2-0.4l-1.6,8.1l2,0.4l0-0.3L110.8,77.7z M107.2,81l0.2,0.1c0.3,0.3,0.5,0.6,0.6,0.9c0.3,0.7,0.3,1.4,0,2.1
	c-0.3,0.7-0.8,1.2-1.5,1.4c-0.7,0.2-1.5,0.2-2.2-0.1c-0.7-0.3-1.3-0.9-1.6-1.6c-0.3-0.7-0.3-1.4,0-2.1c0.3-0.7,0.8-1.2,1.5-1.4
	c0.5-0.2,0.9-0.2,1.4-0.1l0,0l-0.6-2.1c-0.5,0-1.1,0.1-1.6,0.3c-0.6,0.2-1.1,0.5-1.6,1c-0.5,0.4-0.9,1-1.1,1.5
	c-0.3,0.6-0.4,1.2-0.4,1.9c0,0.6,0.1,1.3,0.4,1.8c0.2,0.6,0.6,1.1,1.1,1.6c0.5,0.5,1,0.9,1.6,1.1c0.6,0.3,1.3,0.4,1.9,0.4
	c0.7,0,1.3-0.1,1.9-0.3c0.6-0.2,1.1-0.5,1.6-1c0.5-0.4,0.9-1,1.1-1.5c0.3-0.6,0.4-1.2,0.4-1.9c0-0.6-0.1-1.3-0.4-1.8
	c-0.2-0.5-0.5-1-1-1.5l-0.1-0.1L107.2,81z M104.1,91.1L99,87.7l0.4-0.6L97.8,86L95.9,89l1.6,1.1l0.4-0.6l5.1,3.3l-0.4,0.6l1.7,1.1
	l2-3l-1.7-1.1L104.1,91.1z M100.1,99.1c0.6-0.6,0.9-1.5,0.9-2.4c0-0.9-0.4-1.7-1.1-2.3L95.2,90l-1.4,1.5l4.7,4.4
	c0.6,0.5,0.6,1.4,0.1,1.9l-1.5,1.6c-0.5,0.5-1.3,0.6-1.9,0.1L90.6,95l-1.4,1.5l4.7,4.4c0.7,0.6,1.5,0.9,2.4,0.9
	c0.9,0,1.7-0.4,2.3-1.1L100.1,99.1z M92,101.4c-1.6-2.2-2.8-3.8-3.2-4.4l-0.3-0.4l-1.4,1.1l0.3,0.4l0,0.1c0.4,0.6,1.6,2.1,3.1,4.3
	l0,0c0.2,0.3,0.5,0.7,0.4,1.1c0,0.5-0.5,1-1.2,1.5c-1.1,0.8-1.7,0.8-2,0.7c-0.1,0-0.4-0.1-1-0.9l-0.3-0.4l-1.5,1l0.3,0.4
	c0.2,0.3,0.5,0.7,0.8,1c0.4,0.4,0.9,0.7,1.4,0.8c1,0.3,2.1-0.1,3.4-0.9c0.6-0.4,1.1-0.9,1.4-1.3c0.3-0.5,0.5-0.9,0.6-1.5
	c0-0.6-0.1-1.1-0.3-1.6C92.4,102,92.1,101.6,92,101.4L92,101.4z M68.6,109.7c-0.6-0.4-1.5-0.5-2.7-0.4l-2.3,0.3
	c-0.6,0.1-1,0.1-1.3,0.1l0,0c-0.2-0.9,0-1.2,0-1.3c0.2-0.2,1-0.3,1.7-0.4c0.1,0,0.2,0,0.3-0.1c0.1,0,0.2,0,0.3,0l0.2,0
	c1.3-0.1,1.8,0,2,0.1c0.1,0,0.1,0,0.1,0.1l0.1,0.6l2-0.3l-0.1-0.6c-0.1-0.8-0.5-1.3-1.2-1.6c-0.8-0.4-1.8-0.5-3.4-0.2
	c-0.1,0-0.2,0-0.3,0.1l-0.4,0c-0.6,0.1-1.2,0.2-1.6,0.3c-0.7,0.2-1.1,0.5-1.4,0.9c-0.6,1-0.5,1.6-0.2,3.2c0,0.2,0.2,0.5,0.2,0.5
	c0.2,0.3,0.5,0.7,1.2,0.8c0.4,0,1,0,2.1-0.1l2.2-0.3c0.9-0.1,1.2,0,1.4,0c0.1,0.6,0.2,1,0.2,1.4c0,0.3-0.1,0.4-0.1,0.4l0,0
	c-0.1,0.2-0.9,0.3-1.5,0.4l-0.1,0c-0.2,0-0.5,0.1-0.7,0.1l-0.2,0c-1.4,0.2-1.9-0.1-2-0.2c-0.1-0.1-0.1-0.1-0.1-0.4l0-0.2l-0.1-0.7
	l-2,0.3l0,0.4c0,0.2,0,0.4,0,0.4l0,0c0,0.3,0.1,1.2,0.9,1.8c0.7,0.6,1.8,0.8,3.5,0.6l0.4,0c0.2,0,0.4-0.1,0.6-0.1l0.2,0
	c0.5-0.1,1-0.1,1.4-0.3c0.6-0.2,1.1-0.5,1.4-1c0.3-0.4,0.4-0.9,0.5-1.5l0,0c0-0.5-0.1-1.1-0.2-1.9C69.5,110.6,69.3,110.1,68.6,109.7
	 M50.6,112.9l-0.3,0l-0.2,2l8.2,0.9l0.2-2.1l-5.9-0.6l0.2-1.7l3.7,0.3l0.2-2.1l-3.7-0.3l0.2-1.8l5.9,0.4l0.1-2.1l-8.2-0.6l-0.1,2.1
	l0.3,0L50.6,112.9z M47.2,111.8l1.6-5.9l0.7,0.2l0.5-1.9l-3.4-0.9l-0.5,1.9l0.7,0.2l-1.6,5.9l-0.7-0.2L44,113l3.5,0.9L48,112
	L47.2,111.8z M40.5,108.5l-1.2,2.6l1.9,0.8l1.1-2.6l0.2,0.1l0.9-1.9l-0.2-0.1l2.1-4.8l-1.9-0.8l-2.1,4.7l-3.3-1.6l2.3-4.6l-1.8-0.9
	l-2.3,4.7l-0.2-0.1L35,106l0.2,0.1l-1.3,2.5l1.9,1l1.3-2.6L40.5,108.5z M27.5,104l1.6,1.2l4.7-6.3l2.4,1.7l1.2-1.7L31,94.3L29.8,96
	l2.4,1.7L27.5,104z M22.2,91.8c0.6-0.5,1.3-0.8,2.1-0.8c0.7,0,1.4,0.3,1.8,0.8c0.5,0.5,0.7,1.2,0.6,1.9c-0.1,0.7-0.4,1.4-1,2
	c-0.6,0.5-1.3,0.8-2.1,0.8c-0.7,0-1.4-0.3-1.8-0.8c-0.4-0.5-0.7-1.2-0.6-1.9C21.3,93,21.6,92.4,22.2,91.8 M19.6,91.9L19.6,91.9
	c-0.3,0.6-0.5,1.2-0.5,1.7c0,0.6,0,1.2,0.2,1.8c0.2,0.6,0.5,1.2,0.9,1.6l0,0c0.4,0.5,0.9,0.8,1.5,1.1c0.6,0.2,1.2,0.4,1.8,0.4
	c0.6,0,1.2-0.1,1.7-0.3l0.3-0.2c0.5-0.2,1-0.5,1.5-0.9c0.3-0.3,0.6-0.6,0.9-1l0.1,0l0.2-0.4l0.1-0.1c0,0,0,0,0,0l0,0
	c0.3-0.6,0.5-1.2,0.5-1.8c0.1-0.6,0-1.2-0.2-1.8c-0.2-0.6-0.5-1.1-0.9-1.6l0,0c-0.4-0.5-0.9-0.9-1.5-1.1c-0.6-0.2-1.2-0.4-1.8-0.4
	c-0.6,0-1.2,0.1-1.8,0.3c0,0-0.1,0-0.1,0l0,0l-0.5,0.2l0,0c-0.4,0.2-0.7,0.5-1.1,0.7c-0.5,0.4-0.8,0.8-1.1,1.3L19.6,91.9z
	 M16.6,82.7c0.7-0.4,1.5-0.5,2.2-0.3c0.7,0.1,1.3,0.6,1.6,1.1c0.3,0.6,0.4,1.3,0.2,2c-0.2,0.7-0.7,1.3-1.4,1.7
	c-0.7,0.4-1.4,0.5-2.2,0.3c-0.7-0.2-1.3-0.6-1.6-1.2c-0.3-0.6-0.4-1.3-0.2-1.9C15.4,83.6,15.9,83,16.6,82.7 M14,82.2L14,82.2
	c-0.4,0.5-0.7,1-0.9,1.6c-0.2,0.6-0.3,1.2-0.2,1.8c0,0.7,0.2,1.3,0.5,1.8l0,0c0.3,0.5,0.7,1,1.3,1.4c0.5,0.4,1.1,0.6,1.6,0.8
	c0.6,0.1,1.2,0.2,1.8,0.1l0.4-0.1c0.6-0.1,1.1-0.3,1.6-0.6c0.4-0.2,0.7-0.5,1-0.8l0,0l0.3-0.3l0.1-0.1c0,0,0,0,0,0l0,0
	c0.4-0.5,0.7-1,0.9-1.7c0.2-0.6,0.3-1.2,0.2-1.8c0-0.6-0.2-1.2-0.6-1.8l0,0c-0.3-0.5-0.7-1-1.2-1.4c-0.5-0.4-1.1-0.6-1.7-0.7
	c-0.6-0.1-1.2-0.2-1.8-0.1c0,0-0.1,0-0.1,0l0,0l-0.6,0.1l0,0c-0.4,0.1-0.8,0.3-1.2,0.5c-0.5,0.3-1,0.6-1.4,1.1L14,82.2z M8.6,74.6
	l4.6-1.3L11.5,76l3,1.1L10,78.8l0.7,1.8l9.2-3.4l-5.5-2.1l3.2-5l-9.5,2.7L8.6,74.6z M13.2,69c0.4-0.6,0.5-1.5,0.4-2.7L13.4,64
	c-0.1-0.6-0.1-1-0.1-1.3l0,0c0.9-0.2,1.2,0,1.3,0c0.2,0.2,0.3,1,0.4,1.7c0,0.1,0,0.2,0.1,0.3c0,0.1,0,0.2,0,0.3l0,0.2
	c0.1,1.3-0.1,1.8-0.2,2c0,0.1,0,0.1-0.1,0.1l-0.6,0.1l0.3,2l0.6-0.1c0.8-0.1,1.3-0.5,1.7-1.2c0.4-0.8,0.5-1.8,0.3-3.4
	c0-0.1,0-0.2,0-0.3l0-0.4c-0.1-0.6-0.1-1.2-0.3-1.6c-0.2-0.7-0.5-1.1-0.9-1.5c-0.9-0.6-1.5-0.5-3.2-0.3c-0.2,0-0.5,0.2-0.5,0.2
	c-0.3,0.2-0.7,0.5-0.8,1.2c-0.1,0.4-0.1,1,0,2.1l0.2,2.2c0.1,0.9,0,1.2-0.1,1.4c-0.6,0.1-1,0.1-1.4,0.1c-0.3,0-0.4-0.1-0.4-0.1l0,0
	c-0.2-0.1-0.3-0.9-0.4-1.5l0-0.1c0-0.2-0.1-0.5-0.1-0.7l0-0.2c-0.1-1.4,0.1-1.9,0.2-2c0.1-0.1,0.1-0.1,0.4-0.1l0.2,0l0.7-0.1l-0.2-2
	l-0.4,0c-0.2,0-0.4,0-0.4,0l0,0c-0.3,0-1.2,0.1-1.8,0.8c-0.6,0.7-0.8,1.8-0.7,3.5l0,0.4c0,0.2,0.1,0.4,0.1,0.6l0,0.2
	c0.1,0.5,0.1,1,0.2,1.4c0.2,0.6,0.5,1.1,0.9,1.4c0.4,0.3,0.9,0.5,1.5,0.5l0,0c0.5,0,1.1,0,1.9-0.2C12.3,69.8,12.8,69.6,13.2,69"/>
<path fill="#7F8C8D" d="M107.6,41.8c0.1-0.7-0.1-1.6-0.6-2.7l-1-2c-0.3-0.5-0.5-0.9-0.6-1.2l0,0c0.8-0.5,1.1-0.5,1.2-0.5
	c0.2,0.1,0.7,0.9,1,1.4c0.1,0.1,0.1,0.2,0.2,0.3c0.1,0.1,0.1,0.2,0.2,0.3l0.1,0.2c0.6,1.2,0.6,1.7,0.6,1.9c0,0.1,0,0.1,0,0.1
	l-0.6,0.3l1,1.8l0.6-0.3c0.7-0.4,1-1,1.1-1.7c0.1-0.9-0.2-1.9-1-3.3c-0.1-0.1-0.1-0.2-0.2-0.3l-0.2-0.3c-0.3-0.5-0.6-1-0.9-1.4
	c-0.4-0.5-0.9-0.9-1.4-1c-1.1-0.2-1.6,0.1-3,0.9c-0.2,0.1-0.4,0.3-0.4,0.3c-0.2,0.3-0.4,0.7-0.3,1.4c0.1,0.4,0.3,1,0.8,2l1.1,2
	c0.4,0.8,0.4,1.2,0.4,1.3c-0.5,0.3-0.9,0.5-1.2,0.6c-0.3,0.1-0.4,0.1-0.4,0.1l0,0c-0.2-0.1-0.6-0.7-0.9-1.3l-0.1-0.1
	c-0.1-0.2-0.2-0.4-0.4-0.6l-0.1-0.2c-0.7-1.3-0.6-1.8-0.5-1.9c0-0.1,0.1-0.1,0.4-0.3l0.2-0.1l0.6-0.3l-1-1.8l-0.3,0.2
	c-0.2,0.1-0.4,0.2-0.4,0.2l0,0c-0.3,0.2-1,0.5-1.4,1.5c-0.3,0.9-0.1,2,0.7,3.5l0.2,0.3c0.1,0.2,0.2,0.4,0.3,0.6l0.1,0.2
	c0.3,0.5,0.5,0.8,0.8,1.2c0.4,0.5,0.9,0.8,1.4,1c0.5,0.1,1,0.1,1.6-0.1l0,0c0.5-0.2,1-0.5,1.7-0.9C107,42.9,107.4,42.5,107.6,41.8
	 M93.9,28l-1.6,1.4l5.8,6.5l1.5-1.4l-4.1-4.7l5.9-5.5l-1.4-1.5l-5.9,5.4L93.9,28z M95.6,19.3l-3.3,4.1l-0.2-3.6l-3.5,0.9l3-4.4
	l-1.5-1l-5.5,8.2l5.8-1.5l0.3,6l6.1-7.7L95.6,19.3z M78.2,15.3c0.3-0.7,0.8-1.3,1.5-1.6c0.7-0.3,1.3-0.4,2-0.1
	c0.6,0.3,1.1,0.8,1.4,1.4c0.3,0.7,0.2,1.5-0.1,2.2c-0.3,0.7-0.8,1.3-1.5,1.7c-0.6,0.3-1.4,0.3-2,0.1c-0.6-0.2-1.1-0.7-1.3-1.4
	C77.8,16.8,77.9,16,78.2,15.3 M75.9,16.5L75.9,16.5c0,0.7,0.1,1.2,0.3,1.8c0.2,0.6,0.5,1.1,1,1.5c0.4,0.5,1,0.8,1.5,1.1l0,0
	c0.6,0.2,1.2,0.3,1.9,0.3c0.6,0,1.2-0.2,1.8-0.4c0.5-0.3,1-0.6,1.4-1l0.2-0.3c0.4-0.4,0.7-0.9,0.9-1.5c0.2-0.4,0.3-0.8,0.3-1.3
	l0.1,0l0-0.5l0-0.1c0,0,0,0,0,0l0-0.1c0-0.6-0.1-1.3-0.3-1.9c-0.2-0.6-0.5-1.1-0.9-1.6c-0.4-0.5-1-0.8-1.6-1l0,0
	c-0.6-0.2-1.2-0.4-1.8-0.3c-0.6,0-1.2,0.2-1.8,0.5c-0.6,0.3-1.1,0.7-1.5,1.1c0,0-0.1,0.1-0.1,0.1l0,0l-0.4,0.4l0,0
	c-0.3,0.4-0.5,0.8-0.6,1.1c-0.2,0.6-0.3,1.1-0.4,1.7L75.9,16.5z M67.4,13.5c0.1,0,0.3,0,0.4,0l0.3,0c2.7,0.5,3.2,0.7,3.2,0.7
	c0.1,0.1,0.1,0.1,0.1,0.2c0.1,0.3,0,0.6,0,0.9c-0.1,0.4-0.2,0.6-0.2,0.6c0,0-0.2,0.1-0.3,0.1c-0.3,0-1-0.1-2.3-0.3
	c-0.5-0.1-1-0.2-1.5-0.3L67.4,13.5z M71.3,11.8c-0.1,0-0.5,0-2.8-0.3l-0.1,0l-0.7-0.1L68,9.7l0.9,0.1c1.1,0.2,2,0.3,2.5,0.4
	c0.1,0,0.3,0.1,0.2,0.7C71.5,11.8,71.3,11.8,71.3,11.8 M65.4,9.4l0.5,0.1l0.1,0l-0.3,1.7l-0.5-0.1l-0.3,2l0.5,0.1l-0.3,2l-0.1,0
	l-0.5-0.1l-0.4,2l0.5,0.1c1.3,0.2,2.6,0.4,3.6,0.6c1.2,0.2,2.1,0.3,2.6,0.4l0.1,0c0.8,0,1.5-0.3,1.9-0.8c0.4-0.4,0.6-1,0.7-1.7
	c0.1-0.4,0.1-0.9,0.1-1.5c-0.1-0.4-0.2-0.7-0.4-1c-0.1-0.1-0.1-0.2-0.2-0.3c0.1-0.1,0.2-0.2,0.2-0.4c0.3-0.5,0.3-1,0.4-1.3
	c0.1-0.7,0-1.2-0.2-1.7C73.2,9,72.7,8.5,72,8.3l-0.1,0c-0.2-0.1-1.1-0.2-2.5-0.4c-1.1-0.2-2.1-0.3-3.2-0.5l-0.5-0.1L65.4,9.4z
	 M53.6,8.4l-1.9-0.7l-1.9,4.7L46,9.2l-1.3,1.6l4.7,3.9l1,4l2-0.5l-1-4L53.6,8.4z M38.3,17.7l-0.2,0.1l-1-2l0.3-0.1
	c0.5-0.2,1.1-0.5,1.8-0.9c0.8-0.4,1.2-0.5,1.4-0.4c0.1,0,0.2,0,0.3,0.2l0,0c0.6,0.9,0.5,1.2,0.5,1.3l0,0c0,0.1-0.2,0.3-1.1,0.8
	L38.3,17.7z M43.2,16.4c0.1-0.4,0.1-0.9-0.1-1.4c-0.1-0.4-0.3-0.9-0.7-1.4c-0.2-0.4-0.5-0.7-0.8-0.8c-0.3-0.2-0.7-0.4-1.1-0.4
	c-0.6,0-1.3,0.2-2.3,0.6l0,0c-0.7,0.3-1.3,0.6-1.7,0.9L36,14.1c-0.5,0.2-1,0.5-1.4,0.7L34.1,15l0.9,1.7l0.3-0.2l3.3,6.8l1.8-0.9
	l-1.5-3l0.2-0.1c0.2-0.1,0.4-0.2,0.5-0.3l0.5-0.3c0.2-0.1,0.5-0.3,0.8-0.4l3.6,2.2l1.1-1.7l-2.9-1.8C43,17,43.1,16.7,43.2,16.4
	 M29.2,23.8L29,23.9l-1.4-1.8l0.2-0.2c0.4-0.3,0.9-0.7,1.6-1.2c0.7-0.5,1-0.7,1.2-0.7c0.1,0,0.2,0,0.3,0.2l0,0
	c0.7,0.8,0.8,1.1,0.8,1.2l0,0c0,0.1-0.1,0.4-0.9,1L29.2,23.8z M33.7,21.5c0-0.5-0.1-0.9-0.4-1.4c-0.2-0.4-0.5-0.8-0.9-1.3
	c-0.3-0.3-0.6-0.5-0.9-0.7c-0.4-0.1-0.7-0.2-1.2-0.1c-0.6,0.1-1.3,0.4-2.1,1.1l0,0c-0.6,0.5-1.1,0.9-1.5,1.2l-0.5,0.4
	c-0.5,0.3-0.9,0.7-1.2,1l-0.4,0.3l1.2,1.5l0.3-0.2l4.7,5.9l1.5-1.2l-2.1-2.6l0.2-0.1c0.2-0.1,0.3-0.3,0.5-0.4l0.5-0.4
	c0.2-0.2,0.5-0.4,0.7-0.6l3.9,1.4l0.7-1.9l-3.2-1.2C33.6,22.1,33.7,21.8,33.7,21.5 M22.9,35.3l-0.2,0.2l1.6,1.3l5.3-6.3L28,29.2
	l-3.8,4.5l-1.3-1.1l2.3-2.9l-1.6-1.3l-2.3,2.9l-1.4-1.1l3.6-4.7l-1.6-1.3l-5.1,6.5l1.6,1.3l0.2-0.2L22.9,35.3z M16.9,42.2
	c0.1-0.1,0.1-0.3,0.2-0.4l0.1-0.3c1.2-2.4,1.6-2.8,1.6-2.9c0.1-0.1,0.1-0.1,0.3-0.1c0.3,0,0.5,0.2,0.8,0.3c0.3,0.2,0.5,0.3,0.5,0.4
	c0,0.1,0,0.2,0,0.4c-0.1,0.2-0.4,1-1,2.1c-0.2,0.4-0.5,0.9-0.7,1.4L16.9,42.2z M16.5,38c0,0.1-0.1,0.5-1.1,2.6l0,0.1l-0.3,0.6
	l-1.6-0.8l0.4-0.8c0.5-1,0.9-1.8,1.2-2.3c0.1-0.1,0.2-0.2,0.8,0C16.5,37.8,16.5,37.9,16.5,38 M12.4,42.9l0.2-0.5l0.1-0.1l1.6,0.8
	L14,43.5l1.9,0.9l0.2-0.4l1.9,0.9L17.9,45l-0.2,0.4l1.8,1l0.2-0.5c0.6-1.2,1.2-2.3,1.6-3.3c0.5-1.1,0.9-1.9,1.1-2.4l0.1-0.1
	c0.2-0.8,0.2-1.5-0.2-2.1c-0.3-0.5-0.8-0.9-1.4-1.2c-0.4-0.2-0.8-0.4-1.4-0.5c-0.4,0-0.7,0-1,0.1c-0.1,0-0.2,0.1-0.4,0.1
	c-0.1-0.1-0.2-0.2-0.3-0.3c-0.4-0.4-0.8-0.6-1.2-0.8c-0.6-0.3-1.2-0.4-1.7-0.4c-0.7,0.1-1.3,0.5-1.7,1.1l-0.1,0.1
	c-0.1,0.2-0.5,1-1.2,2.3c-0.5,1-1,1.9-1.4,2.9L10.5,42L12.4,42.9z"/>
<path fill="#ECF0F1" d="M72.3,85.5c0.5-0.8,0.4-1.8-0.1-2.5c0.2-0.2,0.4-0.4,0.6-0.7c0.7-1.1,0.3-2.6-0.8-3.2
	c-0.7-0.4-1.5-0.4-2.2-0.1c0-0.8-0.4-1.6-1.2-2.1c-0.7-0.4-1.6-0.4-2.3,0c0-0.8-0.4-1.6-1.2-2c-1.1-0.7-2.6-0.3-3.2,0.8
	c-0.2,0.3-0.3,0.6-0.3,0.9c-0.9-0.1-1.8,0.3-2.2,1.2c-0.5,0.9-0.4,2,0.3,2.7c-0.1,0.1-0.2,0.2-0.2,0.3c-0.6,1-0.4,2.2,0.5,2.9
	c-0.1,0.1-0.2,0.2-0.3,0.4c-0.6,1-0.4,2.1,0.4,2.9c-0.5,1.1-0.1,2.4,0.9,3c1.1,0.6,2.4,0.3,3.1-0.7c1,0.3,2.1-0.1,2.7-1.1
	c0.1-0.1,0.1-0.2,0.2-0.3c1,0.3,2.2-0.1,2.7-1c0.1-0.1,0.1-0.3,0.2-0.4C70.7,86.9,71.7,86.4,72.3,85.5"/>
<path fill="none" stroke="#ECF0F1" stroke-width="0.921" stroke-miterlimit="10" d="M72.3,85.5c0.5-0.8,0.4-1.8-0.1-2.5
	c0.2-0.2,0.4-0.4,0.6-0.7c0.7-1.1,0.3-2.6-0.8-3.2c-0.7-0.4-1.5-0.4-2.2-0.1c0-0.8-0.4-1.6-1.2-2.1c-0.7-0.4-1.6-0.4-2.3,0
	c0-0.8-0.4-1.6-1.2-2c-1.1-0.7-2.6-0.3-3.2,0.8c-0.2,0.3-0.3,0.6-0.3,0.9c-0.9-0.1-1.8,0.3-2.2,1.2c-0.5,0.9-0.4,2,0.3,2.7
	c-0.1,0.1-0.2,0.2-0.2,0.3c-0.6,1-0.4,2.2,0.5,2.9c-0.1,0.1-0.2,0.2-0.3,0.4c-0.6,1-0.4,2.1,0.4,2.9c-0.5,1.1-0.1,2.4,0.9,3
	c1.1,0.6,2.4,0.3,3.1-0.7c1,0.3,2.1-0.1,2.7-1.1c0.1-0.1,0.1-0.2,0.2-0.3c1,0.3,2.2-0.1,2.7-1c0.1-0.1,0.1-0.3,0.2-0.4
	C70.7,86.9,71.7,86.4,72.3,85.5z"/>
<path fill="#7F8C8D" d="M67,82.4c-0.3-0.2-0.4-0.6-0.3-1c0.2-0.3,0.6-0.4,1-0.2c0.3,0.2,0.4,0.6,0.2,1C67.8,82.5,67.3,82.6,67,82.4
	 M66.9,78.5c-0.3-0.2-0.4-0.6-0.2-1c0.2-0.3,0.6-0.4,1-0.2c0.3,0.2,0.4,0.6,0.3,1C67.7,78.6,67.3,78.7,66.9,78.5 M61.3,88.3
	c-0.3-0.2-0.4-0.6-0.2-1c0.2-0.3,0.6-0.4,1-0.2c0.3,0.2,0.4,0.6,0.3,1C62,88.3,61.6,88.4,61.3,88.3 M63.1,82.9
	c0.2-0.3,0.6-0.4,1-0.2c0.3,0.2,0.4,0.6,0.3,1c-0.2,0.3-0.6,0.4-1,0.3C63,83.6,62.9,83.2,63.1,82.9 M63.8,80.5
	c-0.3-0.2-0.4-0.6-0.2-1c0.2-0.3,0.6-0.4,1-0.3c0.3,0.2,0.4,0.6,0.2,1C64.5,80.6,64.1,80.7,63.8,80.5 M60.5,85.5
	c-0.3-0.2-0.4-0.6-0.2-1c0.2-0.3,0.6-0.4,1-0.3c0.3,0.2,0.4,0.6,0.2,1C61.3,85.6,60.9,85.7,60.5,85.5 M60.4,82.1
	c-0.3-0.2-0.4-0.6-0.2-1c0.2-0.3,0.6-0.4,1-0.3c0.3,0.2,0.4,0.6,0.3,1C61.1,82.2,60.7,82.3,60.4,82.1 M60.9,78.8
	c-0.3-0.2-0.4-0.6-0.3-1c0.2-0.3,0.6-0.4,1-0.2c0.3,0.2,0.4,0.6,0.2,1C61.7,78.9,61.3,79,60.9,78.8 M64.1,75.3
	c0.3,0.2,0.4,0.6,0.2,1c-0.2,0.3-0.6,0.4-1,0.3c-0.3-0.2-0.4-0.6-0.3-1C63.3,75.2,63.8,75.1,64.1,75.3 M72.3,85.5
	c0.5-0.8,0.4-1.8-0.1-2.5c0.2-0.2,0.4-0.4,0.6-0.7c0.7-1.1,0.3-2.6-0.8-3.2c-0.7-0.4-1.5-0.4-2.2-0.1c0-0.8-0.4-1.6-1.2-2.1
	c-0.7-0.4-1.6-0.4-2.3,0c0-0.8-0.4-1.6-1.2-2c-1.1-0.7-2.6-0.3-3.2,0.8c-0.2,0.3-0.3,0.6-0.3,0.9c-0.9-0.1-1.8,0.3-2.2,1.2
	c-0.5,0.9-0.4,2,0.3,2.7c-0.1,0.1-0.2,0.2-0.2,0.3c-0.6,1-0.4,2.2,0.5,2.9c-0.1,0.1-0.2,0.2-0.3,0.4c-0.6,1-0.4,2.1,0.4,2.9
	c-0.5,1.1-0.1,2.4,0.9,3c1.1,0.6,2.4,0.3,3.1-0.7c1,0.3,2.1-0.1,2.7-1.1c0.1-0.1,0.1-0.2,0.2-0.3c1,0.3,2.2-0.1,2.7-1
	c0.1-0.1,0.1-0.3,0.2-0.4C70.7,86.9,71.7,86.4,72.3,85.5"/>
</svg>
